<?xml version="1.0" encoding="UTF-8"?>
<!--Generator: Apple Native CoreSVG 123-->
<!DOCTYPE svg
PUBLIC "-//W3C//DTD SVG 1.1//EN"
       "http://www.w3.org/Graphics/SVG/1.1/DTD/svg11.dtd">
<svg version="1.1" xmlns="http://www.w3.org/2000/svg" xmlns:xlink="http://www.w3.org/1999/xlink" width="3300" height="2200">
 <!--glyph: "uni100269.medium", point size: 100.000000, font version: "Version 15.0d7e11", template writer version: "5"-->
 <g id="Notes">
  <rect height="2200" id="artboard" style="fill:white;opacity:1" width="3300" x="0" y="0"/>
  <line id="" style="fill:none;stroke:black;opacity:1;stroke-width:0.5;" x1="263" x2="3036" y1="292" y2="292"/>
  <text style="stroke:none;fill:black;font-family:-apple-system,&quot;SF Pro Display&quot;,&quot;SF Pro Text&quot;,Helvetica,sans-serif;font-weight:bold;" transform="matrix(1 0 0 1 263 322)">Weight/Scale Variations</text>
  <text style="stroke:none;fill:black;font-family:-apple-system,&quot;SF Pro Display&quot;,&quot;SF Pro Text&quot;,Helvetica,sans-serif;text-anchor:middle;" transform="matrix(1 0 0 1 559.711 322)">Ultralight</text>
  <text style="stroke:none;fill:black;font-family:-apple-system,&quot;SF Pro Display&quot;,&quot;SF Pro Text&quot;,Helvetica,sans-serif;text-anchor:middle;" transform="matrix(1 0 0 1 856.422 322)">Thin</text>
  <text style="stroke:none;fill:black;font-family:-apple-system,&quot;SF Pro Display&quot;,&quot;SF Pro Text&quot;,Helvetica,sans-serif;text-anchor:middle;" transform="matrix(1 0 0 1 1153.13 322)">Light</text>
  <text style="stroke:none;fill:black;font-family:-apple-system,&quot;SF Pro Display&quot;,&quot;SF Pro Text&quot;,Helvetica,sans-serif;text-anchor:middle;" transform="matrix(1 0 0 1 1449.84 322)">Regular</text>
  <text style="stroke:none;fill:black;font-family:-apple-system,&quot;SF Pro Display&quot;,&quot;SF Pro Text&quot;,Helvetica,sans-serif;text-anchor:middle;" transform="matrix(1 0 0 1 1746.56 322)">Medium</text>
  <text style="stroke:none;fill:black;font-family:-apple-system,&quot;SF Pro Display&quot;,&quot;SF Pro Text&quot;,Helvetica,sans-serif;text-anchor:middle;" transform="matrix(1 0 0 1 2043.27 322)">Semibold</text>
  <text style="stroke:none;fill:black;font-family:-apple-system,&quot;SF Pro Display&quot;,&quot;SF Pro Text&quot;,Helvetica,sans-serif;text-anchor:middle;" transform="matrix(1 0 0 1 2339.98 322)">Bold</text>
  <text style="stroke:none;fill:black;font-family:-apple-system,&quot;SF Pro Display&quot;,&quot;SF Pro Text&quot;,Helvetica,sans-serif;text-anchor:middle;" transform="matrix(1 0 0 1 2636.69 322)">Heavy</text>
  <text style="stroke:none;fill:black;font-family:-apple-system,&quot;SF Pro Display&quot;,&quot;SF Pro Text&quot;,Helvetica,sans-serif;text-anchor:middle;" transform="matrix(1 0 0 1 2933.4 322)">Black</text>
  <line id="" style="fill:none;stroke:black;opacity:1;stroke-width:0.5;" x1="263" x2="3036" y1="1903" y2="1903"/>
  <g id="" transform="matrix(1 0 0 1 263 1933)">
   <path d="M 9.24805 0.830078 C 13.5547 0.830078 17.1387 -2.74414 17.1387 -7.05078 C 17.1387 -11.3574 13.5449 -14.9316 9.23828 -14.9316 C 4.94141 -14.9316 1.36719 -11.3574 1.36719 -7.05078 C 1.36719 -2.74414 4.95117 0.830078 9.24805 0.830078 Z M 9.24805 -0.654297 C 5.70312 -0.654297 2.87109 -3.49609 2.87109 -7.05078 C 2.87109 -10.6055 5.69336 -13.4473 9.23828 -13.4473 C 12.793 -13.4473 15.6348 -10.6055 15.6445 -7.05078 C 15.6543 -3.49609 12.8027 -0.654297 9.24805 -0.654297 Z M 9.22852 -3.42773 C 9.69727 -3.42773 9.9707 -3.74023 9.9707 -4.25781 L 9.9707 -6.31836 L 12.1973 -6.31836 C 12.6953 -6.31836 13.0371 -6.57227 13.0371 -7.04102 C 13.0371 -7.51953 12.7148 -7.7832 12.1973 -7.7832 L 9.9707 -7.7832 L 9.9707 -10.0098 C 9.9707 -10.5273 9.69727 -10.8496 9.22852 -10.8496 C 8.75977 -10.8496 8.50586 -10.5078 8.50586 -10.0098 L 8.50586 -7.7832 L 6.29883 -7.7832 C 5.78125 -7.7832 5.44922 -7.51953 5.44922 -7.04102 C 5.44922 -6.57227 5.80078 -6.31836 6.29883 -6.31836 L 8.50586 -6.31836 L 8.50586 -4.25781 C 8.50586 -3.75977 8.75977 -3.42773 9.22852 -3.42773 Z"/>
  </g>
  <g id="" transform="matrix(1 0 0 1 281.506 1933)">
   <path d="M 11.709 2.91016 C 17.1582 2.91016 21.6699 -1.60156 21.6699 -7.05078 C 21.6699 -12.4902 17.1484 -17.0117 11.6992 -17.0117 C 6.25977 -17.0117 1.74805 -12.4902 1.74805 -7.05078 C 1.74805 -1.60156 6.26953 2.91016 11.709 2.91016 Z M 11.709 1.25 C 7.09961 1.25 3.41797 -2.44141 3.41797 -7.05078 C 3.41797 -11.6504 7.08984 -15.3516 11.6992 -15.3516 C 16.3086 -15.3516 20 -11.6504 20.0098 -7.05078 C 20.0195 -2.44141 16.3184 1.25 11.709 1.25 Z M 11.6895 -2.41211 C 12.207 -2.41211 12.5195 -2.77344 12.5195 -3.33984 L 12.5195 -6.23047 L 15.5762 -6.23047 C 16.123 -6.23047 16.5039 -6.51367 16.5039 -7.03125 C 16.5039 -7.55859 16.1426 -7.86133 15.5762 -7.86133 L 12.5195 -7.86133 L 12.5195 -10.9277 C 12.5195 -11.5039 12.207 -11.8555 11.6895 -11.8555 C 11.1719 -11.8555 10.8789 -11.4844 10.8789 -10.9277 L 10.8789 -7.86133 L 7.83203 -7.86133 C 7.26562 -7.86133 6.89453 -7.55859 6.89453 -7.03125 C 6.89453 -6.51367 7.28516 -6.23047 7.83203 -6.23047 L 10.8789 -6.23047 L 10.8789 -3.33984 C 10.8789 -2.79297 11.1719 -2.41211 11.6895 -2.41211 Z"/>
  </g>
  <g id="" transform="matrix(1 0 0 1 304.924 1933)">
   <path d="M 14.9707 5.67383 C 21.9336 5.67383 27.6953 -0.078125 27.6953 -7.04102 C 27.6953 -14.0039 21.9238 -19.7559 14.9609 -19.7559 C 8.00781 -19.7559 2.25586 -14.0039 2.25586 -7.04102 C 2.25586 -0.078125 8.01758 5.67383 14.9707 5.67383 Z M 14.9707 3.85742 C 8.93555 3.85742 4.08203 -1.00586 4.08203 -7.04102 C 4.08203 -13.0762 8.92578 -17.9395 14.9609 -17.9395 C 21.0059 -17.9395 25.8594 -13.0762 25.8691 -7.04102 C 25.8789 -1.00586 21.0156 3.85742 14.9707 3.85742 Z M 14.9512 -1.06445 C 15.5176 -1.06445 15.8691 -1.45508 15.8691 -2.06055 L 15.8691 -6.13281 L 20.1074 -6.13281 C 20.6934 -6.13281 21.1133 -6.46484 21.1133 -7.02148 C 21.1133 -7.59766 20.7227 -7.93945 20.1074 -7.93945 L 15.8691 -7.93945 L 15.8691 -12.1875 C 15.8691 -12.8027 15.5176 -13.1934 14.9512 -13.1934 C 14.3848 -13.1934 14.0625 -12.7832 14.0625 -12.1875 L 14.0625 -7.93945 L 9.83398 -7.93945 C 9.21875 -7.93945 8.80859 -7.59766 8.80859 -7.02148 C 8.80859 -6.46484 9.23828 -6.13281 9.83398 -6.13281 L 14.0625 -6.13281 L 14.0625 -2.06055 C 14.0625 -1.47461 14.3848 -1.06445 14.9512 -1.06445 Z"/>
  </g>
  <text style="stroke:none;fill:black;font-family:-apple-system,&quot;SF Pro Display&quot;,&quot;SF Pro Text&quot;,Helvetica,sans-serif;font-weight:bold;" transform="matrix(1 0 0 1 263 1953)">Design Variations</text>
  <text style="stroke:none;fill:black;font-family:-apple-system,&quot;SF Pro Display&quot;,&quot;SF Pro Text&quot;,Helvetica,sans-serif;" transform="matrix(1 0 0 1 263 1971)">Symbols are supported in up to nine weights and three scales.</text>
  <text style="stroke:none;fill:black;font-family:-apple-system,&quot;SF Pro Display&quot;,&quot;SF Pro Text&quot;,Helvetica,sans-serif;" transform="matrix(1 0 0 1 263 1989)">For optimal layout with text and other symbols, vertically align</text>
  <text style="stroke:none;fill:black;font-family:-apple-system,&quot;SF Pro Display&quot;,&quot;SF Pro Text&quot;,Helvetica,sans-serif;" transform="matrix(1 0 0 1 263 2007)">symbols with the adjacent text.</text>
  <rect height="14" id="" style="fill:#00AEEF;stroke:none;opacity:0.4;" width="3" x="776" y="1919"/>
  <g id="" transform="matrix(1 0 0 1 779 1933)">
   <path d="M 10.5273 0 L 12.373 0 L 7.17773 -14.0918 L 5.43945 -14.0918 L 0.244141 0 L 2.08984 0 L 3.50586 -4.0332 L 9.11133 -4.0332 Z M 6.2793 -11.9531 L 6.33789 -11.9531 L 8.59375 -5.52734 L 4.02344 -5.52734 Z"/>
  </g>
  <rect height="14" id="" style="fill:#00AEEF;stroke:none;opacity:0.4;" width="3" x="791.617" y="1919"/>
  <text style="stroke:none;fill:black;font-family:-apple-system,&quot;SF Pro Display&quot;,&quot;SF Pro Text&quot;,Helvetica,sans-serif;font-weight:bold;" transform="matrix(1 0 0 1 776 1953)">Margins</text>
  <text style="stroke:none;fill:black;font-family:-apple-system,&quot;SF Pro Display&quot;,&quot;SF Pro Text&quot;,Helvetica,sans-serif;" transform="matrix(1 0 0 1 776 1971)">Leading and trailing margins on the left and right side of each symbol</text>
  <text style="stroke:none;fill:black;font-family:-apple-system,&quot;SF Pro Display&quot;,&quot;SF Pro Text&quot;,Helvetica,sans-serif;" transform="matrix(1 0 0 1 776 1989)">can be adjusted by modifying the width of the blue rectangles.</text>
  <text style="stroke:none;fill:black;font-family:-apple-system,&quot;SF Pro Display&quot;,&quot;SF Pro Text&quot;,Helvetica,sans-serif;" transform="matrix(1 0 0 1 776 2007)">Modifications are automatically applied proportionally to all</text>
  <text style="stroke:none;fill:black;font-family:-apple-system,&quot;SF Pro Display&quot;,&quot;SF Pro Text&quot;,Helvetica,sans-serif;" transform="matrix(1 0 0 1 776 2025)">scales and weights.</text>
  <g id="" transform="matrix(1 0 0 1 1289 1933)">
   <path d="M 2.83203 3.11523 L 4.375 4.6582 C 5.22461 5.48828 6.19141 5.41992 7.06055 4.46289 L 17.2754 -6.66016 C 17.7051 -6.36719 18.0957 -6.37695 18.5645 -6.47461 L 19.6094 -6.68945 L 20.3027 -5.99609 L 20.2539 -5.47852 C 20.1855 -4.95117 20.3516 -4.53125 20.8496 -4.0332 L 21.6602 -3.22266 C 22.168 -2.71484 22.8223 -2.68555 23.3008 -3.16406 L 26.5527 -6.41602 C 27.0312 -6.89453 27.0117 -7.54883 26.5039 -8.05664 L 25.6836 -8.87695 C 25.1855 -9.375 24.7754 -9.55078 24.2383 -9.47266 L 23.7109 -9.41406 L 23.0566 -10.0781 L 23.3398 -11.2207 C 23.4863 -11.7871 23.3398 -12.2559 22.7148 -12.8613 L 20.3027 -15.2539 C 16.7578 -18.7793 12.2266 -18.6719 9.11133 -15.5371 C 8.69141 -15.1074 8.64258 -14.5215 8.91602 -14.0918 C 9.15039 -13.7207 9.62891 -13.4961 10.2734 -13.6621 C 11.7871 -14.043 13.3008 -13.9258 14.7852 -12.9199 L 14.1602 -11.3379 C 13.9258 -10.752 13.9453 -10.2734 14.1797 -9.83398 L 3.01758 0.439453 C 2.08008 1.30859 1.97266 2.25586 2.83203 3.11523 Z M 10.6738 -15.1465 C 13.3398 -17.1387 16.6504 -16.8262 19.0527 -14.4141 L 21.6797 -11.8066 C 21.9141 -11.5723 21.9434 -11.3867 21.8848 -11.0938 L 21.5039 -9.53125 L 23.0762 -7.95898 L 24.043 -8.04688 C 24.3262 -8.07617 24.4141 -8.05664 24.6387 -7.83203 L 25.2637 -7.20703 L 22.5098 -4.46289 L 21.8848 -5.07812 C 21.6602 -5.30273 21.6406 -5.40039 21.6699 -5.68359 L 21.7578 -6.64062 L 20.1953 -8.20312 L 18.5742 -7.89062 C 18.291 -7.83203 18.1445 -7.83203 17.9102 -8.07617 L 15.7324 -10.2539 C 15.5078 -10.4883 15.4785 -10.625 15.6055 -10.9473 L 16.5527 -13.2227 C 14.9512 -14.7559 12.8418 -15.6055 10.8008 -14.9512 C 10.7129 -14.9219 10.6445 -14.9414 10.6152 -14.9805 C 10.5859 -15.0293 10.5859 -15.0781 10.6738 -15.1465 Z M 4.10156 2.41211 C 3.61328 1.91406 3.78906 1.61133 4.12109 1.30859 L 15.0781 -8.80859 L 16.3086 -7.57812 L 6.15234 3.34961 C 5.84961 3.68164 5.46875 3.7793 5.06836 3.37891 Z"/>
  </g>
  <text style="stroke:none;fill:black;font-family:-apple-system,&quot;SF Pro Display&quot;,&quot;SF Pro Text&quot;,Helvetica,sans-serif;font-weight:bold;" transform="matrix(1 0 0 1 1289 1953)">Exporting</text>
  <text style="stroke:none;fill:black;font-family:-apple-system,&quot;SF Pro Display&quot;,&quot;SF Pro Text&quot;,Helvetica,sans-serif;" transform="matrix(1 0 0 1 1289 1971)">Symbols should be outlined when exporting to ensure the</text>
  <text style="stroke:none;fill:black;font-family:-apple-system,&quot;SF Pro Display&quot;,&quot;SF Pro Text&quot;,Helvetica,sans-serif;" transform="matrix(1 0 0 1 1289 1989)">design is preserved when submitting to Xcode.</text>
  <text id="template-version" style="stroke:none;fill:black;font-family:-apple-system,&quot;SF Pro Display&quot;,&quot;SF Pro Text&quot;,Helvetica,sans-serif;text-anchor:end;" transform="matrix(1 0 0 1 3036 1933)">Template v.1.0</text>
  <text style="stroke:none;fill:black;font-family:-apple-system,&quot;SF Pro Display&quot;,&quot;SF Pro Text&quot;,Helvetica,sans-serif;text-anchor:end;" transform="matrix(1 0 0 1 3036 1951)">Generated from person</text>
  <text style="stroke:none;fill:black;font-family:-apple-system,&quot;SF Pro Display&quot;,&quot;SF Pro Text&quot;,Helvetica,sans-serif;text-anchor:end;" transform="matrix(1 0 0 1 3036 1969)">Typeset at 100 points</text>
  <text style="stroke:none;fill:black;font-family:-apple-system,&quot;SF Pro Display&quot;,&quot;SF Pro Text&quot;,Helvetica,sans-serif;" transform="matrix(1 0 0 1 263 726)">Small</text>
  <text style="stroke:none;fill:black;font-family:-apple-system,&quot;SF Pro Display&quot;,&quot;SF Pro Text&quot;,Helvetica,sans-serif;" transform="matrix(1 0 0 1 263 1156)">Medium</text>
  <text style="stroke:none;fill:black;font-family:-apple-system,&quot;SF Pro Display&quot;,&quot;SF Pro Text&quot;,Helvetica,sans-serif;" transform="matrix(1 0 0 1 263 1586)">Large</text>
 </g>
 <g id="Guides">
  <g id="H-reference" style="fill:#27AAE1;stroke:none;" transform="matrix(1 0 0 1 339 696)">
   <path d="M 54.9316 0 L 57.666 0 L 30.5664 -70.459 L 28.0762 -70.459 L 0.976562 0 L 3.66211 0 L 12.9395 -24.4629 L 45.7031 -24.4629 Z M 29.1992 -67.0898 L 29.4434 -67.0898 L 44.8242 -26.709 L 13.8184 -26.709 Z"/>
  </g>
  <line id="Baseline-S" style="fill:none;stroke:#27AAE1;opacity:1;stroke-width:0.577;" x1="263" x2="3036" y1="696" y2="696"/>
  <line id="Capline-S" style="fill:none;stroke:#27AAE1;opacity:1;stroke-width:0.577;" x1="263" x2="3036" y1="625.541" y2="625.541"/>
  <g id="H-reference" style="fill:#27AAE1;stroke:none;" transform="matrix(1 0 0 1 339 1126)">
   <path d="M 54.9316 0 L 57.666 0 L 30.5664 -70.459 L 28.0762 -70.459 L 0.976562 0 L 3.66211 0 L 12.9395 -24.4629 L 45.7031 -24.4629 Z M 29.1992 -67.0898 L 29.4434 -67.0898 L 44.8242 -26.709 L 13.8184 -26.709 Z"/>
  </g>
  <line id="Baseline-M" style="fill:none;stroke:#27AAE1;opacity:1;stroke-width:0.577;" x1="263" x2="3036" y1="1126" y2="1126"/>
  <line id="Capline-M" style="fill:none;stroke:#27AAE1;opacity:1;stroke-width:0.577;" x1="263" x2="3036" y1="1055.54" y2="1055.54"/>
  <g id="H-reference" style="fill:#27AAE1;stroke:none;" transform="matrix(1 0 0 1 339 1556)">
   <path d="M 54.9316 0 L 57.666 0 L 30.5664 -70.459 L 28.0762 -70.459 L 0.976562 0 L 3.66211 0 L 12.9395 -24.4629 L 45.7031 -24.4629 Z M 29.1992 -67.0898 L 29.4434 -67.0898 L 44.8242 -26.709 L 13.8184 -26.709 Z"/>
  </g>
  <line id="Baseline-L" style="fill:none;stroke:#27AAE1;opacity:1;stroke-width:0.577;" x1="263" x2="3036" y1="1556" y2="1556"/>
  <line id="Capline-L" style="fill:none;stroke:#27AAE1;opacity:1;stroke-width:0.577;" x1="263" x2="3036" y1="1485.54" y2="1485.54"/>
  <rect height="119.336" id="left-margin" style="fill:#00AEEF;stroke:none;opacity:0.4;" width="12.4512" x="1394.74" y="1030.79"/>
  <rect height="119.336" id="right-margin" style="fill:#00AEEF;stroke:none;opacity:0.4;" width="12.4512" x="1492.5" y="1030.79"/>
 </g>
 <g id="Symbols">
  <g id="Black-L" transform="matrix(1 0 0 1 2860.62 1556)">
   <path d="M 72.7539 -33.1055 C 88.8184 -33.1055 101.66 -46.9727 101.66 -64.2578 C 101.66 -81.0547 88.6719 -94.8242 72.7539 -94.8242 C 56.8848 -94.8242 43.8477 -81.0059 43.8965 -64.209 C 43.9453 -46.9238 56.6895 -33.1055 72.7539 -33.1055 Z M 72.7539 -49.0234 C 65.8691 -49.0234 60.0586 -55.5176 60.0586 -64.2578 C 59.9609 -72.4121 65.9668 -78.9062 72.7539 -78.9062 C 79.6387 -78.9062 85.498 -72.4609 85.498 -64.2578 C 85.498 -55.6152 79.7363 -49.0234 72.7539 -49.0234 Z M 34.668 26.5137 L 110.889 26.5137 C 123.242 26.5137 129.492 22.1191 129.492 13.0371 C 129.492 -6.64062 105.42 -27.4414 72.7539 -27.4414 C 40.0879 -27.4414 16.0645 -6.64062 16.0645 13.0371 C 16.0645 22.1191 22.3145 26.5137 34.668 26.5137 Z M 35.5469 10.5469 C 34.7656 10.5469 34.5703 10.1074 34.5703 9.52148 C 34.5703 2.49023 48.6816 -11.5234 72.7539 -11.5234 C 96.875 -11.5234 110.986 2.49023 110.986 9.52148 C 110.986 10.1074 110.742 10.5469 110.01 10.5469 Z"/>
  </g>
  <g id="Heavy-L" transform="matrix(1 0 0 1 2564.42 1556)">
   <path d="M 72.2656 -33.3984 C 88.0371 -33.3984 100.635 -47.0215 100.635 -64.0625 C 100.635 -80.6641 87.9395 -94.1406 72.2656 -94.1406 C 56.6895 -94.1406 43.8477 -80.5664 43.8965 -64.0137 C 43.9453 -47.0215 56.4941 -33.3984 72.2656 -33.3984 Z M 72.2656 -47.4609 C 64.6484 -47.4609 58.3008 -54.5898 58.3008 -64.0625 C 58.2031 -72.998 64.7461 -80.0293 72.2656 -80.0293 C 79.8828 -80.0293 86.2793 -73.0469 86.2793 -64.0625 C 86.2793 -54.6875 79.9805 -47.4609 72.2656 -47.4609 Z M 33.6426 25.8301 L 110.889 25.8301 C 122.607 25.8301 128.467 21.7773 128.467 13.2812 C 128.467 -5.66406 105.225 -27.0996 72.2656 -27.0996 C 39.3066 -27.0996 16.0645 -5.66406 16.0645 13.2812 C 16.0645 21.7773 21.9238 25.8301 33.6426 25.8301 Z M 33.7402 11.7188 C 32.6172 11.7188 32.2266 11.2305 32.2266 10.4004 C 32.2266 2.34375 46.9238 -12.9883 72.2656 -12.9883 C 97.6074 -12.9883 112.305 2.34375 112.305 10.4004 C 112.305 11.2305 111.914 11.7188 110.742 11.7188 Z"/>
  </g>
  <g id="Bold-L" transform="matrix(1 0 0 1 2268.27 1556)">
   <path d="M 71.7285 -33.6914 C 87.1582 -33.6914 99.5605 -47.168 99.5605 -63.8672 C 99.5605 -80.1758 87.0605 -93.4082 71.7285 -93.4082 C 56.4453 -93.4082 43.8477 -80.0781 43.8965 -63.8184 C 43.9941 -47.1191 56.2988 -33.6914 71.7285 -33.6914 Z M 71.7285 -45.752 C 63.3301 -45.752 56.2988 -53.5645 56.2988 -63.8184 C 56.25 -73.6328 63.3789 -81.3477 71.7285 -81.3477 C 80.127 -81.3477 87.1582 -73.6816 87.1582 -63.8672 C 87.1582 -53.6621 80.1758 -45.752 71.7285 -45.752 Z M 32.5195 25.0977 L 110.889 25.0977 C 121.924 25.0977 127.344 21.3867 127.344 13.5742 C 127.344 -4.49219 104.932 -26.709 71.6797 -26.709 C 38.4277 -26.709 16.0645 -4.49219 16.0645 13.5742 C 16.0645 21.3867 21.4844 25.0977 32.5195 25.0977 Z M 31.7871 13.0371 C 30.1758 13.0371 29.6387 12.5 29.6387 11.3281 C 29.6387 2.14844 44.9707 -14.6484 71.6797 -14.6484 C 98.4375 -14.6484 113.77 2.14844 113.77 11.3281 C 113.77 12.5 113.232 13.0371 111.621 13.0371 Z"/>
  </g>
  <g id="Semibold-L" transform="matrix(1 0 0 1 1971.95 1556)">
   <path d="M 71.3379 -33.9355 C 86.5723 -33.9355 98.7793 -47.2168 98.7793 -63.7207 C 98.7793 -79.8828 86.4746 -92.8711 71.3379 -92.8711 C 56.25 -92.8711 43.8477 -79.7363 43.9453 -63.6719 C 43.9941 -47.168 56.1523 -33.9355 71.3379 -33.9355 Z M 71.3379 -44.5312 C 62.4023 -44.5312 54.9805 -52.8809 54.9805 -63.6719 C 54.9316 -74.0723 62.4023 -82.2266 71.3379 -82.2266 C 80.3223 -82.2266 87.7441 -74.1699 87.7441 -63.7207 C 87.7441 -52.9785 80.3223 -44.5312 71.3379 -44.5312 Z M 31.7383 24.5605 L 110.889 24.5605 C 121.436 24.5605 126.562 21.1426 126.562 13.7695 C 126.562 -3.71094 104.785 -26.416 71.2891 -26.416 C 37.8418 -26.416 16.0645 -3.71094 16.0645 13.7695 C 16.0645 21.1426 21.1914 24.5605 31.7383 24.5605 Z M 30.3711 13.916 C 28.5156 13.916 27.832 13.3789 27.832 12.0117 C 27.832 2.00195 43.6035 -15.8203 71.2891 -15.8203 C 98.9746 -15.8203 114.795 2.00195 114.795 12.0117 C 114.795 13.3789 114.111 13.916 112.207 13.916 Z"/>
  </g>
  <g id="Medium-L" transform="matrix(1 0 0 1 1675.54 1556)">
   <path d="M 71.0449 -34.082 C 86.084 -34.082 98.1934 -47.2656 98.1934 -63.623 C 98.1934 -79.6387 86.0352 -92.4805 71.0449 -92.4805 C 56.1523 -92.4805 43.8965 -79.4922 43.9453 -63.5254 C 43.9941 -47.2168 56.0547 -34.082 71.0449 -34.082 Z M 71.0449 -43.6523 C 61.7188 -43.6523 53.9551 -52.3438 53.9551 -63.5742 C 53.8574 -74.4141 61.6699 -82.9102 71.0449 -82.9102 C 80.4688 -82.9102 88.1836 -74.5117 88.1836 -63.623 C 88.1836 -52.4414 80.4688 -43.6523 71.0449 -43.6523 Z M 31.1523 24.1699 L 110.889 24.1699 C 121.094 24.1699 125.977 20.8984 125.977 13.916 C 125.977 -3.125 104.639 -26.2207 70.9961 -26.2207 C 37.4023 -26.2207 16.0645 -3.125 16.0645 13.916 C 16.0645 20.8984 20.9473 24.1699 31.1523 24.1699 Z M 29.3457 14.5996 C 27.2461 14.5996 26.4648 14.0137 26.4648 12.5 C 26.4648 1.9043 42.5781 -16.6992 70.9961 -16.6992 C 99.4141 -16.6992 115.527 1.9043 115.527 12.5 C 115.527 14.0137 114.795 14.5996 112.695 14.5996 Z"/>
  </g>
  <g id="Regular-L" transform="matrix(1 0 0 1 1379.21 1556)">
   <path d="M 70.7031 -34.2773 C 85.498 -34.2773 97.4121 -47.3633 97.4121 -63.5254 C 97.4121 -79.3457 85.498 -91.9434 70.7031 -91.9434 C 55.957 -91.9434 43.8965 -79.1504 43.9453 -63.3789 C 43.9941 -47.3145 55.9082 -34.2773 70.7031 -34.2773 Z M 70.7031 -42.4316 C 60.791 -42.4316 52.5879 -51.6113 52.5879 -63.3789 C 52.5391 -74.8535 60.7422 -83.7891 70.7031 -83.7891 C 80.6641 -83.7891 88.7695 -74.9512 88.7695 -63.5254 C 88.7695 -51.709 80.6152 -42.4316 70.7031 -42.4316 Z M 30.3711 23.6328 L 110.889 23.6328 C 120.605 23.6328 125.195 20.6543 125.195 14.0625 C 125.195 -2.34375 104.443 -25.9766 70.6055 -25.9766 C 36.8164 -25.9766 16.0645 -2.34375 16.0645 14.0625 C 16.0645 20.6543 20.6543 23.6328 30.3711 23.6328 Z M 27.9785 15.4785 C 25.5859 15.4785 24.707 14.8926 24.707 13.1348 C 24.707 1.75781 41.2598 -17.8223 70.6055 -17.8223 C 100 -17.8223 116.553 1.75781 116.553 13.1348 C 116.553 14.8926 115.674 15.4785 113.281 15.4785 Z"/>
  </g>
  <g id="Light-L" transform="matrix(1 0 0 1 1083.16 1556)">
   <path d="M 70.0684 -34.4727 C 84.6191 -34.4727 96.1914 -47.168 96.1914 -63.1836 C 96.1914 -78.6621 84.4727 -91.1621 70.0684 -91.1621 C 55.7129 -91.1621 43.8965 -78.5645 43.9941 -63.0859 C 44.0918 -47.1191 55.5176 -34.4727 70.0684 -34.4727 Z M 70.0684 -40.7715 C 59.2773 -40.7715 50.5859 -50.4883 50.5859 -63.0859 C 50.4883 -75.1465 59.3262 -84.8633 70.0684 -84.8633 C 80.8105 -84.8633 89.5508 -75.293 89.5508 -63.1836 C 89.5508 -50.5859 80.9082 -40.7715 70.0684 -40.7715 Z M 28.7598 22.9492 L 111.182 22.9492 C 119.824 22.9492 123.877 20.166 123.877 14.0625 C 123.877 -2.29492 103.32 -25.4883 69.9707 -25.4883 C 36.6699 -25.4883 16.0645 -2.29492 16.0645 14.0625 C 16.0645 20.166 20.166 22.9492 28.7598 22.9492 Z M 27.2949 16.6504 C 23.8281 16.6504 22.7051 15.8203 22.7051 13.4766 C 22.7051 0.732422 39.9902 -19.1895 69.9707 -19.1895 C 99.9512 -19.1895 117.285 0.732422 117.285 13.4766 C 117.285 15.8203 116.162 16.6504 112.695 16.6504 Z"/>
  </g>
  <g id="Thin-L" transform="matrix(1 0 0 1 787.306 1556)">
   <path d="M 69.2871 -34.7168 C 83.4961 -34.7168 94.5312 -46.9238 94.5312 -62.7441 C 94.5312 -77.7832 83.1543 -90.1367 69.2871 -90.1367 C 55.3223 -90.1367 43.8965 -77.7344 44.043 -62.6953 C 44.1895 -46.9238 55.0293 -34.7168 69.2871 -34.7168 Z M 69.2871 -38.5742 C 57.2754 -38.5742 47.9492 -49.0234 47.9492 -62.6953 C 47.8027 -75.5859 57.4707 -86.2793 69.2871 -86.2793 C 81.0059 -86.2793 90.5762 -75.6836 90.5762 -62.7441 C 90.5762 -49.0234 81.25 -38.5742 69.2871 -38.5742 Z M 26.6602 22.0703 L 111.572 22.0703 C 118.799 22.0703 122.168 19.5801 122.168 14.0137 C 122.168 -2.24609 101.807 -24.9023 69.1406 -24.9023 C 36.4746 -24.9023 16.0645 -2.24609 16.0645 14.0137 C 16.0645 19.5801 19.4824 22.0703 26.6602 22.0703 Z M 26.3672 18.2129 C 21.4844 18.2129 19.9707 17.0898 19.9707 13.916 C 19.9707 -0.634766 38.2812 -21.0449 69.1406 -21.0449 C 99.9512 -21.0449 118.262 -0.634766 118.262 13.916 C 118.262 17.0898 116.748 18.2129 111.914 18.2129 Z"/>
  </g>
  <g id="Ultralight-L" transform="matrix(1 0 0 1 491.034 1556)">
   <path d="M 68.8477 -34.8633 C 82.959 -34.8633 93.6523 -46.7773 93.6523 -62.5 C 93.6523 -77.3438 82.4707 -89.5996 68.8477 -89.5996 C 55.127 -89.5996 43.8965 -77.2949 44.043 -62.5 C 44.2383 -46.7773 54.7852 -34.8633 68.8477 -34.8633 Z M 68.8477 -37.4512 C 56.25 -37.4512 46.6309 -48.2422 46.6309 -62.5 C 46.4355 -75.8301 56.543 -87.0117 68.8477 -87.0117 C 81.1035 -87.0117 91.1133 -75.9277 91.1133 -62.5 C 91.1133 -48.2422 81.4453 -37.4512 68.8477 -37.4512 Z M 25.5859 21.582 L 111.768 21.582 C 118.262 21.582 121.289 19.2871 121.289 14.0137 C 121.289 -2.19727 101.025 -24.5605 68.7012 -24.5605 C 36.377 -24.5605 16.0645 -2.19727 16.0645 14.0137 C 16.0645 19.2871 19.0918 21.582 25.5859 21.582 Z M 25.8789 18.9941 C 20.3125 18.9941 18.6035 17.7246 18.6035 14.1602 C 18.6035 -1.36719 37.4512 -21.9727 68.7012 -21.9727 C 99.9512 -21.9727 118.75 -1.36719 118.75 14.1602 C 118.75 17.7246 117.041 18.9941 111.475 18.9941 Z"/>
  </g>
  <g id="Black-M" transform="matrix(1 0 0 1 2876.66 1126)">
   <path d="M 56.7383 -33.3008 C 69.4824 -33.3008 79.4434 -44.0918 79.4434 -57.7637 C 79.4434 -70.9473 69.1895 -81.9336 56.7383 -81.9336 C 44.2383 -81.9336 33.9355 -70.9473 34.0332 -57.7637 C 34.082 -44.0918 43.9941 -33.3008 56.7383 -33.3008 Z M 56.7383 -47.1191 C 51.8555 -47.1191 47.8516 -51.5625 47.8516 -57.8125 C 47.7539 -63.4277 52.0508 -68.0664 56.7383 -68.0664 C 61.4746 -68.0664 65.625 -63.4277 65.625 -57.7637 C 65.625 -51.6602 61.6699 -47.1191 56.7383 -47.1191 Z M 27.3926 13.1348 L 86.084 13.1348 C 95.9473 13.1348 101.025 9.42383 101.025 1.85547 C 101.025 -14.4531 81.3965 -29.4434 56.7383 -29.4434 C 32.0312 -29.4434 12.4512 -14.4531 12.4512 1.85547 C 12.4512 9.42383 17.5293 13.1348 27.3926 13.1348 Z M 29.5898 -0.683594 C 28.9551 -0.683594 28.8086 -1.12305 28.8086 -1.51367 C 28.8086 -6.29883 39.4043 -15.5762 56.7383 -15.5762 C 74.0723 -15.5762 84.6191 -6.29883 84.6191 -1.51367 C 84.6191 -1.12305 84.5215 -0.683594 83.8867 -0.683594 Z"/>
  </g>
  <g id="Heavy-M" transform="matrix(1 0 0 1 2580.34 1126)">
   <path d="M 56.3477 -33.5449 C 68.7988 -33.5449 78.6621 -44.2383 78.6621 -57.666 C 78.6621 -70.6543 68.6523 -81.3965 56.3477 -81.3965 C 44.0918 -81.3965 33.9844 -70.6055 34.0332 -57.6172 C 34.082 -44.2383 43.8965 -33.5449 56.3477 -33.5449 Z M 56.3477 -45.8496 C 50.9277 -45.8496 46.4355 -50.8789 46.4355 -57.666 C 46.3867 -63.9648 51.0742 -69.0918 56.3477 -69.0918 C 61.7188 -69.0918 66.2598 -64.0137 66.2598 -57.666 C 66.2598 -50.9277 61.8164 -45.8496 56.3477 -45.8496 Z M 26.709 12.5977 L 85.9863 12.5977 C 95.459 12.5977 100.244 9.17969 100.244 2.14844 C 100.244 -13.3301 81.4453 -29.1504 56.3477 -29.1504 C 31.25 -29.1504 12.4512 -13.3301 12.4512 2.14844 C 12.4512 9.17969 17.2363 12.5977 26.709 12.5977 Z M 27.7832 0.292969 C 27.0508 0.292969 26.8066 -0.146484 26.8066 -0.634766 C 26.8066 -6.25 37.793 -16.8457 56.3477 -16.8457 C 74.9023 -16.8457 85.8887 -6.25 85.8887 -0.634766 C 85.8887 -0.146484 85.6445 0.292969 84.8633 0.292969 Z"/>
  </g>
  <g id="Bold-M" transform="matrix(1 0 0 1 2284.07 1126)">
   <path d="M 55.9082 -33.8379 C 68.1152 -33.8379 77.832 -44.3848 77.832 -57.5684 C 77.832 -70.3613 68.0176 -80.7617 55.9082 -80.7617 C 43.8965 -80.7617 33.9844 -70.2637 34.0332 -57.5195 C 34.082 -44.3848 43.75 -33.8379 55.9082 -33.8379 Z M 55.9082 -44.4336 C 49.9023 -44.4336 44.873 -50.0977 44.873 -57.5195 C 44.8242 -64.5996 49.9512 -70.166 55.9082 -70.166 C 61.9629 -70.166 66.9922 -64.6484 66.9922 -57.5684 C 66.9922 -50.1465 62.0117 -44.4336 55.9082 -44.4336 Z M 25.9277 11.9629 L 85.9375 11.9629 C 94.9219 11.9629 99.3652 8.88672 99.3652 2.44141 C 99.3652 -12.1094 81.4941 -28.8574 55.9082 -28.8574 C 30.3223 -28.8574 12.4512 -12.1094 12.4512 2.44141 C 12.4512 8.88672 16.8945 11.9629 25.9277 11.9629 Z M 25.8301 1.36719 C 24.9023 1.36719 24.5605 0.976562 24.5605 0.292969 C 24.5605 -6.15234 36.0352 -18.2617 55.9082 -18.2617 C 75.7812 -18.2617 87.2559 -6.15234 87.2559 0.292969 C 87.2559 0.976562 86.9629 1.36719 85.9863 1.36719 Z"/>
  </g>
  <g id="Semibold-M" transform="matrix(1 0 0 1 1987.65 1126)">
   <path d="M 55.6641 -34.0332 C 67.627 -34.0332 77.2461 -44.5312 77.2461 -57.4707 C 77.2461 -70.166 67.5781 -80.3711 55.6641 -80.3711 C 43.75 -80.3711 33.9844 -70.0684 34.0332 -57.4219 C 34.082 -44.4824 43.6523 -34.0332 55.6641 -34.0332 Z M 55.6641 -43.457 C 49.2188 -43.457 43.7988 -49.5117 43.7988 -57.4219 C 43.75 -64.9902 49.2188 -70.9473 55.6641 -70.9473 C 62.1094 -70.9473 67.4805 -65.0879 67.4805 -57.4707 C 67.4805 -49.6094 62.1094 -43.457 55.6641 -43.457 Z M 25.3906 11.5234 L 85.8887 11.5234 C 94.5312 11.5234 98.7793 8.69141 98.7793 2.63672 C 98.7793 -11.2793 81.543 -28.6621 55.6152 -28.6621 C 29.6875 -28.6621 12.4512 -11.2793 12.4512 2.63672 C 12.4512 8.69141 16.6992 11.5234 25.3906 11.5234 Z M 24.4629 2.09961 C 23.3887 2.09961 22.998 1.75781 22.998 0.927734 C 22.998 -6.10352 34.8145 -19.2383 55.6152 -19.2383 C 76.416 -19.2383 88.2324 -6.10352 88.2324 0.927734 C 88.2324 1.75781 87.8418 2.09961 86.7676 2.09961 Z"/>
  </g>
  <g id="Medium-M" transform="matrix(1 0 0 1 1691.16 1126)">
   <path d="M 55.4199 -34.1797 C 67.2363 -34.1797 76.8066 -44.6289 76.8066 -57.4219 C 76.8066 -70.0195 67.2363 -80.0293 55.4199 -80.0293 C 43.6523 -80.0293 33.9844 -69.873 34.0332 -57.3242 C 34.082 -44.5801 43.6035 -34.1797 55.4199 -34.1797 Z M 55.4199 -42.7246 C 48.6816 -42.7246 42.9688 -49.1211 42.9688 -57.3242 C 42.9199 -65.332 48.6328 -71.4844 55.4199 -71.4844 C 62.2559 -71.4844 67.8711 -65.4297 67.8711 -57.4219 C 67.8711 -49.2188 62.207 -42.7246 55.4199 -42.7246 Z M 24.9512 11.2305 L 85.8398 11.2305 C 94.2871 11.2305 98.3398 8.54492 98.3398 2.7832 C 98.3398 -10.6445 81.5918 -28.5156 55.4199 -28.5156 C 29.248 -28.5156 12.4512 -10.6445 12.4512 2.7832 C 12.4512 8.54492 16.5039 11.2305 24.9512 11.2305 Z M 23.4375 2.68555 C 22.2656 2.68555 21.8262 2.29492 21.8262 1.41602 C 21.8262 -6.05469 33.8867 -19.9707 55.4199 -19.9707 C 76.9043 -19.9707 88.9648 -6.05469 88.9648 1.41602 C 88.9648 2.29492 88.5254 2.68555 87.3535 2.68555 Z"/>
  </g>
  <g id="Regular-M" transform="matrix(1 0 0 1 1394.74 1126)">
   <path d="M 55.127 -34.375 C 66.748 -34.375 76.2207 -44.7266 76.2207 -57.3242 C 76.2207 -69.8242 66.7969 -79.6387 55.127 -79.6387 C 43.5547 -79.6387 34.0332 -69.6289 34.0332 -57.2266 C 34.082 -44.6777 43.5059 -34.375 55.127 -34.375 Z M 55.127 -41.748 C 47.998 -41.748 41.8945 -48.584 41.8945 -57.2266 C 41.8945 -65.7227 47.9004 -72.2656 55.127 -72.2656 C 62.4023 -72.2656 68.3594 -65.8203 68.3594 -57.3242 C 68.3594 -48.6816 62.3047 -41.748 55.127 -41.748 Z M 24.4141 10.791 L 85.791 10.791 C 93.8965 10.791 97.7539 8.34961 97.7539 2.97852 C 97.7539 -9.81445 81.5918 -28.3203 55.127 -28.3203 C 28.6133 -28.3203 12.4512 -9.81445 12.4512 2.97852 C 12.4512 8.34961 16.3086 10.791 24.4141 10.791 Z M 22.1191 3.41797 C 20.8496 3.41797 20.3125 3.07617 20.3125 2.05078 C 20.3125 -5.95703 32.7148 -20.9473 55.127 -20.9473 C 77.4902 -20.9473 89.8926 -5.95703 89.8926 2.05078 C 89.8926 3.07617 89.4043 3.41797 88.1348 3.41797 Z"/>
  </g>
  <g id="Light-M" transform="matrix(1 0 0 1 1098.62 1126)">
   <path d="M 54.5898 -34.5703 C 65.9668 -34.5703 75.0977 -44.5801 75.0977 -57.0312 C 75.0977 -69.1895 65.918 -78.9551 54.5898 -78.9551 C 43.3105 -78.9551 34.0332 -69.0918 34.082 -56.9824 C 34.1309 -44.5312 43.2129 -34.5703 54.5898 -34.5703 Z M 54.5898 -40.2832 C 46.6309 -40.2832 40.1367 -47.5586 40.1367 -56.9824 C 40.0391 -66.0156 46.6309 -73.1934 54.5898 -73.1934 C 62.5488 -73.1934 69.043 -66.1133 69.043 -57.0312 C 69.043 -47.6562 62.5977 -40.2832 54.5898 -40.2832 Z M 22.998 10.2051 L 86.0352 10.2051 C 93.2129 10.2051 96.582 7.91016 96.582 2.97852 C 96.582 -9.76562 80.5664 -27.8809 54.541 -27.8809 C 28.4668 -27.8809 12.4512 -9.76562 12.4512 2.97852 C 12.4512 7.91016 15.8691 10.2051 22.998 10.2051 Z M 21.4844 4.44336 C 19.2383 4.44336 18.5059 3.90625 18.5059 2.34375 C 18.5059 -6.88477 31.543 -22.168 54.541 -22.168 C 77.4902 -22.168 90.5762 -6.88477 90.5762 2.34375 C 90.5762 3.90625 89.7949 4.44336 87.5977 4.44336 Z"/>
  </g>
  <g id="Thin-M" transform="matrix(1 0 0 1 802.662 1126)">
   <path d="M 53.8574 -34.7656 C 64.9902 -34.7656 73.584 -44.3359 73.584 -56.6406 C 73.584 -68.4082 64.7461 -78.0273 53.8574 -78.0273 C 42.9688 -78.0273 34.0332 -68.3105 34.1309 -56.5918 C 34.2285 -44.3359 42.7734 -34.7656 53.8574 -34.7656 Z M 53.8574 -38.3301 C 44.8242 -38.3301 37.7441 -46.2402 37.7441 -56.5918 C 37.6465 -66.4062 44.9707 -74.5117 53.8574 -74.5117 C 62.7441 -74.5117 69.9707 -66.5039 69.9707 -56.6406 C 69.9707 -46.2402 62.8906 -38.3301 53.8574 -38.3301 Z M 21.1426 9.375 L 86.377 9.375 C 92.2852 9.375 95.0684 7.37305 95.0684 2.97852 C 95.0684 -9.66797 79.1992 -27.3438 53.7598 -27.3438 C 28.3203 -27.3438 12.4512 -9.66797 12.4512 2.97852 C 12.4512 7.37305 15.2344 9.375 21.1426 9.375 Z M 20.6543 5.85938 C 17.1875 5.85938 16.0645 5.0293 16.0645 2.73438 C 16.0645 -8.1543 30.0293 -23.8281 53.7598 -23.8281 C 77.4414 -23.8281 91.4551 -8.1543 91.4551 2.73438 C 91.4551 5.0293 90.332 5.85938 86.8652 5.85938 Z"/>
  </g>
  <g id="Ultralight-M" transform="matrix(1 0 0 1 506.342 1126)">
   <path d="M 53.5156 -34.9121 C 64.4531 -34.9121 72.8516 -44.2383 72.8516 -56.4453 C 72.8516 -68.0176 64.1113 -77.5391 53.5156 -77.5391 C 42.7734 -77.5391 34.0332 -67.9688 34.1309 -56.4453 C 34.2773 -44.2383 42.5293 -34.9121 53.5156 -34.9121 Z M 53.5156 -37.3047 C 43.8965 -37.3047 36.5234 -45.5566 36.5234 -56.4453 C 36.4258 -66.6504 44.0918 -75.1465 53.5156 -75.1465 C 62.793 -75.1465 70.459 -66.6992 70.459 -56.4453 C 70.459 -45.5566 63.0859 -37.3047 53.5156 -37.3047 Z M 20.166 8.93555 L 86.5723 8.93555 C 91.7969 8.93555 94.2871 7.08008 94.2871 2.92969 C 94.2871 -9.61914 78.5156 -27.0508 53.3691 -27.0508 C 28.2227 -27.0508 12.4512 -9.61914 12.4512 2.92969 C 12.4512 7.08008 14.9414 8.93555 20.166 8.93555 Z M 20.2148 6.54297 C 16.1133 6.54297 14.8438 5.61523 14.8438 2.97852 C 14.8438 -8.74023 29.2969 -24.6582 53.3691 -24.6582 C 77.4414 -24.6582 91.8945 -8.74023 91.8945 2.97852 C 91.8945 5.61523 90.625 6.54297 86.5234 6.54297 Z"/>
  </g>
  <g id="Black-S" transform="matrix(1 0 0 1 2888.97 696)">
   <path d="M 44.4336 -33.7402 C 54.3945 -33.7402 62.207 -42.1875 62.207 -52.8809 C 62.207 -63.1836 54.1992 -71.7773 44.4336 -71.7773 C 34.668 -71.7773 26.6113 -63.1836 26.6602 -52.8809 C 26.709 -42.1875 34.4727 -33.7402 44.4336 -33.7402 Z M 44.4336 -44.4824 C 40.5762 -44.4824 37.4023 -47.998 37.4023 -52.9297 C 37.3535 -57.373 40.7227 -61.0352 44.4336 -61.0352 C 48.1934 -61.0352 51.4648 -57.373 51.4648 -52.8809 C 51.4648 -48.0469 48.3398 -44.4824 44.4336 -44.4824 Z M 21.4355 2.63672 L 67.4316 2.63672 C 75.1465 2.63672 79.1016 -0.244141 79.1016 -6.15234 C 79.1016 -18.8477 63.8184 -30.6641 44.4336 -30.6641 C 25.0488 -30.6641 9.76562 -18.8477 9.76562 -6.15234 C 9.76562 -0.244141 13.7207 2.63672 21.4355 2.63672 Z M 23.0469 -8.10547 C 22.5586 -8.10547 22.4609 -8.44727 22.4609 -8.74023 C 22.4609 -12.5488 30.7617 -19.9219 44.4336 -19.9219 C 58.1055 -19.9219 66.4062 -12.5488 66.4062 -8.74023 C 66.4062 -8.44727 66.3086 -8.10547 65.8203 -8.10547 Z"/>
  </g>
  <g id="Heavy-S" transform="matrix(1 0 0 1 2592.48 696)">
   <path d="M 44.1895 -33.9355 C 54.0039 -33.9355 61.7676 -42.334 61.7676 -52.832 C 61.7676 -63.0371 53.8574 -71.4355 44.1895 -71.4355 C 34.5703 -71.4355 26.6113 -63.0371 26.6602 -52.832 C 26.709 -42.2852 34.4238 -33.9355 44.1895 -33.9355 Z M 44.1895 -43.7012 C 40.0391 -43.7012 36.5234 -47.5586 36.5234 -52.832 C 36.4746 -57.7637 40.0879 -61.6699 44.1895 -61.6699 C 48.3398 -61.6699 51.9043 -57.7637 51.9043 -52.832 C 51.9043 -47.6074 48.4375 -43.7012 44.1895 -43.7012 Z M 21.0449 2.29492 L 67.334 2.29492 C 74.8535 2.29492 78.6621 -0.390625 78.6621 -5.95703 C 78.6621 -18.0176 63.9648 -30.5176 44.1895 -30.5176 C 24.4629 -30.5176 9.76562 -18.0176 9.76562 -5.95703 C 9.76562 -0.390625 13.5742 2.29492 21.0449 2.29492 Z M 21.7773 -7.4707 C 21.2891 -7.4707 21.1426 -7.76367 21.1426 -8.1543 C 21.1426 -12.4023 29.6875 -20.752 44.1895 -20.752 C 58.7402 -20.752 67.2852 -12.4023 67.2852 -8.1543 C 67.2852 -7.76367 67.1387 -7.4707 66.6504 -7.4707 Z"/>
  </g>
  <g id="Bold-S" transform="matrix(1 0 0 1 2296.03 696)">
   <path d="M 43.9453 -34.1309 C 53.5156 -34.1309 61.2305 -42.4805 61.2305 -52.7832 C 61.2305 -62.8906 53.5156 -71.0449 43.9453 -71.0449 C 34.4727 -71.0449 26.6602 -62.8418 26.6602 -52.7344 C 26.709 -42.4316 34.375 -34.1309 43.9453 -34.1309 Z M 43.9453 -42.7734 C 39.4043 -42.7734 35.5469 -47.0703 35.5469 -52.7832 C 35.5469 -58.1543 39.4531 -62.4023 43.9453 -62.4023 C 48.5352 -62.4023 52.3438 -58.2031 52.3438 -52.7832 C 52.3438 -47.168 48.5352 -42.7734 43.9453 -42.7734 Z M 20.6543 1.9043 L 67.2363 1.9043 C 74.5117 1.9043 78.125 -0.585938 78.125 -5.71289 C 78.125 -17.0898 64.1113 -30.3223 43.9453 -30.3223 C 23.7793 -30.3223 9.76562 -17.0898 9.76562 -5.71289 C 9.76562 -0.585938 13.3789 1.9043 20.6543 1.9043 Z M 20.3613 -6.78711 C 19.8242 -6.78711 19.6289 -7.03125 19.6289 -7.4707 C 19.6289 -12.207 28.4668 -21.6797 43.9453 -21.6797 C 59.4238 -21.6797 68.2617 -12.207 68.2617 -7.4707 C 68.2617 -7.03125 68.0664 -6.78711 67.5781 -6.78711 Z"/>
  </g>
  <g id="Semibold-S" transform="matrix(1 0 0 1 1999.49 696)">
   <path d="M 43.7988 -34.2773 C 53.2227 -34.2773 60.8887 -42.5781 60.8887 -52.7344 C 60.8887 -62.793 53.2227 -70.8008 43.7988 -70.8008 C 34.375 -70.8008 26.6602 -62.6953 26.6602 -52.6855 C 26.6602 -42.5293 34.3262 -34.2773 43.7988 -34.2773 Z M 43.7988 -42.1387 C 39.0137 -42.1387 34.8633 -46.7773 34.8633 -52.6855 C 34.8633 -58.4473 38.9648 -62.8906 43.7988 -62.8906 C 48.6328 -62.8906 52.6855 -58.5449 52.6855 -52.7344 C 52.6855 -46.8262 48.584 -42.1387 43.7988 -42.1387 Z M 20.3613 1.61133 L 67.1875 1.61133 C 74.3164 1.61133 77.7832 -0.683594 77.7832 -5.56641 C 77.7832 -16.4551 64.2578 -30.2246 43.75 -30.2246 C 23.291 -30.2246 9.76562 -16.4551 9.76562 -5.56641 C 9.76562 -0.683594 13.2324 1.61133 20.3613 1.61133 Z M 19.3359 -6.29883 C 18.8477 -6.29883 18.6035 -6.54297 18.6035 -6.98242 C 18.6035 -12.0605 27.6367 -22.3145 43.75 -22.3145 C 59.9121 -22.3145 68.9453 -12.0605 68.9453 -6.98242 C 68.9453 -6.54297 68.7012 -6.29883 68.2129 -6.29883 Z"/>
  </g>
  <g id="Medium-S" transform="matrix(1 0 0 1 1702.93 696)">
   <path d="M 43.6523 -34.375 C 52.9785 -34.375 60.6445 -42.627 60.6445 -52.7344 C 60.6445 -62.6953 53.0273 -70.6055 43.6523 -70.6055 C 34.3262 -70.6055 26.6602 -62.5977 26.6602 -52.6367 C 26.6602 -42.627 34.3262 -34.375 43.6523 -34.375 Z M 43.6523 -41.6992 C 38.6719 -41.6992 34.375 -46.4844 34.375 -52.6367 C 34.375 -58.6914 38.623 -63.2812 43.6523 -63.2812 C 48.7305 -63.2812 52.9297 -58.7891 52.9297 -52.7344 C 52.9297 -46.582 48.6328 -41.6992 43.6523 -41.6992 Z M 20.1172 1.41602 L 67.1387 1.41602 C 74.1211 1.41602 77.4902 -0.78125 77.4902 -5.41992 C 77.4902 -15.9668 64.3066 -30.127 43.6523 -30.127 C 22.9492 -30.127 9.76562 -15.9668 9.76562 -5.41992 C 9.76562 -0.78125 13.1348 1.41602 20.1172 1.41602 Z M 18.6035 -5.9082 C 18.0664 -5.9082 17.8223 -6.15234 17.8223 -6.64062 C 17.8223 -11.9629 27.002 -22.8027 43.6523 -22.8027 C 60.2539 -22.8027 69.4336 -11.9629 69.4336 -6.64062 C 69.4336 -6.15234 69.1895 -5.9082 68.6523 -5.9082 Z"/>
  </g>
  <g id="Regular-S" transform="matrix(1 0 0 1 1406.39 696)">
   <path d="M 43.457 -34.5215 C 52.6855 -34.5215 60.2539 -42.7246 60.2539 -52.6855 C 60.2539 -62.5977 52.7832 -70.3613 43.457 -70.3613 C 34.2285 -70.3613 26.6602 -62.4512 26.6602 -52.5879 C 26.6602 -42.7246 34.2773 -34.5215 43.457 -34.5215 Z M 43.457 -41.0645 C 38.2812 -41.0645 33.6914 -46.1914 33.6914 -52.5879 C 33.6914 -58.9844 38.1348 -63.7695 43.457 -63.7695 C 48.8281 -63.7695 53.2227 -59.082 53.2227 -52.6855 C 53.2227 -46.2891 48.7305 -41.0645 43.457 -41.0645 Z M 19.8242 1.12305 L 67.0898 1.12305 C 73.9258 1.12305 77.1484 -0.878906 77.1484 -5.27344 C 77.1484 -15.332 64.4531 -30.0293 43.457 -30.0293 C 22.5098 -30.0293 9.76562 -15.332 9.76562 -5.27344 C 9.76562 -0.878906 13.0371 1.12305 19.8242 1.12305 Z M 17.627 -5.46875 C 17.0898 -5.46875 16.7969 -5.61523 16.7969 -6.15234 C 16.7969 -11.8652 26.1719 -23.4375 43.457 -23.4375 C 60.7422 -23.4375 70.1172 -11.8652 70.1172 -6.15234 C 70.1172 -5.61523 69.8242 -5.46875 69.2871 -5.46875 Z"/>
  </g>
  <g id="Light-S" transform="matrix(1 0 0 1 1110.19 696)">
   <path d="M 42.9688 -34.668 C 52.002 -34.668 59.2773 -42.5781 59.2773 -52.4414 C 59.2773 -62.0605 52.002 -69.7266 42.9688 -69.7266 C 34.0332 -69.7266 26.6602 -61.9629 26.709 -52.3438 C 26.709 -42.5781 33.9844 -34.668 42.9688 -34.668 Z M 42.9688 -39.7461 C 37.0605 -39.7461 32.1289 -45.2637 32.1289 -52.3438 C 32.0801 -59.2285 37.0117 -64.5996 42.9688 -64.5996 C 48.9746 -64.5996 53.8574 -59.3262 53.8574 -52.4414 C 53.8574 -45.3613 48.9258 -39.7461 42.9688 -39.7461 Z M 18.6035 0.585938 L 67.334 0.585938 C 73.291 0.585938 76.123 -1.26953 76.123 -5.27344 C 76.123 -15.2832 63.5254 -29.6387 42.9688 -29.6387 C 22.3633 -29.6387 9.76562 -15.2832 9.76562 -5.27344 C 9.76562 -1.26953 12.5977 0.585938 18.6035 0.585938 Z M 17.0898 -4.54102 C 15.6738 -4.54102 15.1855 -4.88281 15.1855 -5.9082 C 15.1855 -12.6953 25.1953 -24.5117 42.9688 -24.5117 C 60.7422 -24.5117 70.7031 -12.6953 70.7031 -5.9082 C 70.7031 -4.88281 70.2148 -4.54102 68.8477 -4.54102 Z"/>
  </g>
  <g id="Thin-S" transform="matrix(1 0 0 1 814.137 696)">
   <path d="M 42.334 -34.8145 C 51.123 -34.8145 57.959 -42.4316 57.959 -52.0996 C 57.959 -61.377 50.9766 -68.9453 42.334 -68.9453 C 33.7402 -68.9453 26.6602 -61.3281 26.709 -52.0508 C 26.8066 -42.3828 33.5938 -34.8145 42.334 -34.8145 Z M 42.334 -38.0371 C 35.498 -38.0371 30.0293 -44.0918 30.0293 -52.0508 C 29.9805 -59.5703 35.5469 -65.7227 42.334 -65.7227 C 49.1211 -65.7227 54.6387 -59.668 54.6387 -52.0996 C 54.6387 -44.1406 49.2188 -38.0371 42.334 -38.0371 Z M 16.9434 -0.146484 L 67.627 -0.146484 C 72.5098 -0.146484 74.8047 -1.75781 74.8047 -5.32227 C 74.8047 -15.2344 62.3535 -29.1504 42.2852 -29.1504 C 22.2168 -29.1504 9.76562 -15.2344 9.76562 -5.32227 C 9.76562 -1.75781 12.0605 -0.146484 16.9434 -0.146484 Z M 16.3574 -3.32031 C 13.8672 -3.32031 13.0859 -3.90625 13.0859 -5.56641 C 13.0859 -13.7695 23.8281 -25.9766 42.2852 -25.9766 C 60.6934 -25.9766 71.4844 -13.7695 71.4844 -5.56641 C 71.4844 -3.90625 70.7031 -3.32031 68.2129 -3.32031 Z"/>
  </g>
  <g id="Ultralight-S" transform="matrix(1 0 0 1 517.792 696)">
   <path d="M 42.041 -34.9609 C 50.6348 -34.9609 57.2754 -42.2852 57.2754 -51.9043 C 57.2754 -61.0352 50.4395 -68.5059 42.041 -68.5059 C 33.5938 -68.5059 26.6602 -60.9863 26.7578 -51.9043 C 26.8555 -42.2852 33.3984 -34.9609 42.041 -34.9609 Z M 42.041 -37.1094 C 34.668 -37.1094 28.9551 -43.5059 28.9551 -51.9043 C 28.8574 -59.7656 34.8145 -66.3086 42.041 -66.3086 C 49.2188 -66.3086 55.0781 -59.8145 55.0781 -51.9043 C 55.0781 -43.5059 49.3652 -37.1094 42.041 -37.1094 Z M 16.0645 -0.488281 L 67.7734 -0.488281 C 72.0703 -0.488281 74.0723 -2.00195 74.0723 -5.32227 C 74.0723 -15.1855 61.7188 -28.9062 41.9434 -28.9062 C 22.1191 -28.9062 9.76562 -15.1855 9.76562 -5.32227 C 9.76562 -2.00195 11.7676 -0.488281 16.0645 -0.488281 Z M 15.9668 -2.68555 C 12.8906 -2.68555 11.9629 -3.36914 11.9629 -5.37109 C 11.9629 -14.3066 23.1445 -26.709 41.9434 -26.709 C 60.6934 -26.709 71.875 -14.3066 71.875 -5.37109 C 71.875 -3.36914 70.9473 -2.68555 67.8711 -2.68555 Z"/>
  </g>
 </g>
</svg>
