<?xml version="1.0" encoding="UTF-8"?>
<!--Generator: Apple Native CoreSVG 123-->
<!DOCTYPE svg
PUBLIC "-//W3C//DTD SVG 1.1//EN"
       "http://www.w3.org/Graphics/SVG/1.1/DTD/svg11.dtd">
<svg version="1.1" xmlns="http://www.w3.org/2000/svg" xmlns:xlink="http://www.w3.org/1999/xlink" width="3300" height="2200">
 <!--glyph: "uni100385.medium", point size: 100.000000, font version: "Version 15.0d7e11", template writer version: "5"-->
 <g id="Notes">
  <rect height="2200" id="artboard" style="fill:white;opacity:1" width="3300" x="0" y="0"/>
  <line id="" style="fill:none;stroke:black;opacity:1;stroke-width:0.5;" x1="263" x2="3036" y1="292" y2="292"/>
  <text style="stroke:none;fill:black;font-family:-apple-system,&quot;SF Pro Display&quot;,&quot;SF Pro Text&quot;,Helvetica,sans-serif;font-weight:bold;" transform="matrix(1 0 0 1 263 322)">Weight/Scale Variations</text>
  <text style="stroke:none;fill:black;font-family:-apple-system,&quot;SF Pro Display&quot;,&quot;SF Pro Text&quot;,Helvetica,sans-serif;text-anchor:middle;" transform="matrix(1 0 0 1 559.711 322)">Ultralight</text>
  <text style="stroke:none;fill:black;font-family:-apple-system,&quot;SF Pro Display&quot;,&quot;SF Pro Text&quot;,Helvetica,sans-serif;text-anchor:middle;" transform="matrix(1 0 0 1 856.422 322)">Thin</text>
  <text style="stroke:none;fill:black;font-family:-apple-system,&quot;SF Pro Display&quot;,&quot;SF Pro Text&quot;,Helvetica,sans-serif;text-anchor:middle;" transform="matrix(1 0 0 1 1153.13 322)">Light</text>
  <text style="stroke:none;fill:black;font-family:-apple-system,&quot;SF Pro Display&quot;,&quot;SF Pro Text&quot;,Helvetica,sans-serif;text-anchor:middle;" transform="matrix(1 0 0 1 1449.84 322)">Regular</text>
  <text style="stroke:none;fill:black;font-family:-apple-system,&quot;SF Pro Display&quot;,&quot;SF Pro Text&quot;,Helvetica,sans-serif;text-anchor:middle;" transform="matrix(1 0 0 1 1746.56 322)">Medium</text>
  <text style="stroke:none;fill:black;font-family:-apple-system,&quot;SF Pro Display&quot;,&quot;SF Pro Text&quot;,Helvetica,sans-serif;text-anchor:middle;" transform="matrix(1 0 0 1 2043.27 322)">Semibold</text>
  <text style="stroke:none;fill:black;font-family:-apple-system,&quot;SF Pro Display&quot;,&quot;SF Pro Text&quot;,Helvetica,sans-serif;text-anchor:middle;" transform="matrix(1 0 0 1 2339.98 322)">Bold</text>
  <text style="stroke:none;fill:black;font-family:-apple-system,&quot;SF Pro Display&quot;,&quot;SF Pro Text&quot;,Helvetica,sans-serif;text-anchor:middle;" transform="matrix(1 0 0 1 2636.69 322)">Heavy</text>
  <text style="stroke:none;fill:black;font-family:-apple-system,&quot;SF Pro Display&quot;,&quot;SF Pro Text&quot;,Helvetica,sans-serif;text-anchor:middle;" transform="matrix(1 0 0 1 2933.4 322)">Black</text>
  <line id="" style="fill:none;stroke:black;opacity:1;stroke-width:0.5;" x1="263" x2="3036" y1="1903" y2="1903"/>
  <g id="" transform="matrix(1 0 0 1 263 1933)">
   <path d="M 9.24805 0.830078 C 13.5547 0.830078 17.1387 -2.74414 17.1387 -7.05078 C 17.1387 -11.3574 13.5449 -14.9316 9.23828 -14.9316 C 4.94141 -14.9316 1.36719 -11.3574 1.36719 -7.05078 C 1.36719 -2.74414 4.95117 0.830078 9.24805 0.830078 Z M 9.24805 -0.654297 C 5.70312 -0.654297 2.87109 -3.49609 2.87109 -7.05078 C 2.87109 -10.6055 5.69336 -13.4473 9.23828 -13.4473 C 12.793 -13.4473 15.6348 -10.6055 15.6445 -7.05078 C 15.6543 -3.49609 12.8027 -0.654297 9.24805 -0.654297 Z M 9.22852 -3.42773 C 9.69727 -3.42773 9.9707 -3.74023 9.9707 -4.25781 L 9.9707 -6.31836 L 12.1973 -6.31836 C 12.6953 -6.31836 13.0371 -6.57227 13.0371 -7.04102 C 13.0371 -7.51953 12.7148 -7.7832 12.1973 -7.7832 L 9.9707 -7.7832 L 9.9707 -10.0098 C 9.9707 -10.5273 9.69727 -10.8496 9.22852 -10.8496 C 8.75977 -10.8496 8.50586 -10.5078 8.50586 -10.0098 L 8.50586 -7.7832 L 6.29883 -7.7832 C 5.78125 -7.7832 5.44922 -7.51953 5.44922 -7.04102 C 5.44922 -6.57227 5.80078 -6.31836 6.29883 -6.31836 L 8.50586 -6.31836 L 8.50586 -4.25781 C 8.50586 -3.75977 8.75977 -3.42773 9.22852 -3.42773 Z"/>
  </g>
  <g id="" transform="matrix(1 0 0 1 281.506 1933)">
   <path d="M 11.709 2.91016 C 17.1582 2.91016 21.6699 -1.60156 21.6699 -7.05078 C 21.6699 -12.4902 17.1484 -17.0117 11.6992 -17.0117 C 6.25977 -17.0117 1.74805 -12.4902 1.74805 -7.05078 C 1.74805 -1.60156 6.26953 2.91016 11.709 2.91016 Z M 11.709 1.25 C 7.09961 1.25 3.41797 -2.44141 3.41797 -7.05078 C 3.41797 -11.6504 7.08984 -15.3516 11.6992 -15.3516 C 16.3086 -15.3516 20 -11.6504 20.0098 -7.05078 C 20.0195 -2.44141 16.3184 1.25 11.709 1.25 Z M 11.6895 -2.41211 C 12.207 -2.41211 12.5195 -2.77344 12.5195 -3.33984 L 12.5195 -6.23047 L 15.5762 -6.23047 C 16.123 -6.23047 16.5039 -6.51367 16.5039 -7.03125 C 16.5039 -7.55859 16.1426 -7.86133 15.5762 -7.86133 L 12.5195 -7.86133 L 12.5195 -10.9277 C 12.5195 -11.5039 12.207 -11.8555 11.6895 -11.8555 C 11.1719 -11.8555 10.8789 -11.4844 10.8789 -10.9277 L 10.8789 -7.86133 L 7.83203 -7.86133 C 7.26562 -7.86133 6.89453 -7.55859 6.89453 -7.03125 C 6.89453 -6.51367 7.28516 -6.23047 7.83203 -6.23047 L 10.8789 -6.23047 L 10.8789 -3.33984 C 10.8789 -2.79297 11.1719 -2.41211 11.6895 -2.41211 Z"/>
  </g>
  <g id="" transform="matrix(1 0 0 1 304.924 1933)">
   <path d="M 14.9707 5.67383 C 21.9336 5.67383 27.6953 -0.078125 27.6953 -7.04102 C 27.6953 -14.0039 21.9238 -19.7559 14.9609 -19.7559 C 8.00781 -19.7559 2.25586 -14.0039 2.25586 -7.04102 C 2.25586 -0.078125 8.01758 5.67383 14.9707 5.67383 Z M 14.9707 3.85742 C 8.93555 3.85742 4.08203 -1.00586 4.08203 -7.04102 C 4.08203 -13.0762 8.92578 -17.9395 14.9609 -17.9395 C 21.0059 -17.9395 25.8594 -13.0762 25.8691 -7.04102 C 25.8789 -1.00586 21.0156 3.85742 14.9707 3.85742 Z M 14.9512 -1.06445 C 15.5176 -1.06445 15.8691 -1.45508 15.8691 -2.06055 L 15.8691 -6.13281 L 20.1074 -6.13281 C 20.6934 -6.13281 21.1133 -6.46484 21.1133 -7.02148 C 21.1133 -7.59766 20.7227 -7.93945 20.1074 -7.93945 L 15.8691 -7.93945 L 15.8691 -12.1875 C 15.8691 -12.8027 15.5176 -13.1934 14.9512 -13.1934 C 14.3848 -13.1934 14.0625 -12.7832 14.0625 -12.1875 L 14.0625 -7.93945 L 9.83398 -7.93945 C 9.21875 -7.93945 8.80859 -7.59766 8.80859 -7.02148 C 8.80859 -6.46484 9.23828 -6.13281 9.83398 -6.13281 L 14.0625 -6.13281 L 14.0625 -2.06055 C 14.0625 -1.47461 14.3848 -1.06445 14.9512 -1.06445 Z"/>
  </g>
  <text style="stroke:none;fill:black;font-family:-apple-system,&quot;SF Pro Display&quot;,&quot;SF Pro Text&quot;,Helvetica,sans-serif;font-weight:bold;" transform="matrix(1 0 0 1 263 1953)">Design Variations</text>
  <text style="stroke:none;fill:black;font-family:-apple-system,&quot;SF Pro Display&quot;,&quot;SF Pro Text&quot;,Helvetica,sans-serif;" transform="matrix(1 0 0 1 263 1971)">Symbols are supported in up to nine weights and three scales.</text>
  <text style="stroke:none;fill:black;font-family:-apple-system,&quot;SF Pro Display&quot;,&quot;SF Pro Text&quot;,Helvetica,sans-serif;" transform="matrix(1 0 0 1 263 1989)">For optimal layout with text and other symbols, vertically align</text>
  <text style="stroke:none;fill:black;font-family:-apple-system,&quot;SF Pro Display&quot;,&quot;SF Pro Text&quot;,Helvetica,sans-serif;" transform="matrix(1 0 0 1 263 2007)">symbols with the adjacent text.</text>
  <rect height="14" id="" style="fill:#00AEEF;stroke:none;opacity:0.4;" width="3" x="776" y="1919"/>
  <g id="" transform="matrix(1 0 0 1 779 1933)">
   <path d="M 10.5273 0 L 12.373 0 L 7.17773 -14.0918 L 5.43945 -14.0918 L 0.244141 0 L 2.08984 0 L 3.50586 -4.0332 L 9.11133 -4.0332 Z M 6.2793 -11.9531 L 6.33789 -11.9531 L 8.59375 -5.52734 L 4.02344 -5.52734 Z"/>
  </g>
  <rect height="14" id="" style="fill:#00AEEF;stroke:none;opacity:0.4;" width="3" x="791.617" y="1919"/>
  <text style="stroke:none;fill:black;font-family:-apple-system,&quot;SF Pro Display&quot;,&quot;SF Pro Text&quot;,Helvetica,sans-serif;font-weight:bold;" transform="matrix(1 0 0 1 776 1953)">Margins</text>
  <text style="stroke:none;fill:black;font-family:-apple-system,&quot;SF Pro Display&quot;,&quot;SF Pro Text&quot;,Helvetica,sans-serif;" transform="matrix(1 0 0 1 776 1971)">Leading and trailing margins on the left and right side of each symbol</text>
  <text style="stroke:none;fill:black;font-family:-apple-system,&quot;SF Pro Display&quot;,&quot;SF Pro Text&quot;,Helvetica,sans-serif;" transform="matrix(1 0 0 1 776 1989)">can be adjusted by modifying the width of the blue rectangles.</text>
  <text style="stroke:none;fill:black;font-family:-apple-system,&quot;SF Pro Display&quot;,&quot;SF Pro Text&quot;,Helvetica,sans-serif;" transform="matrix(1 0 0 1 776 2007)">Modifications are automatically applied proportionally to all</text>
  <text style="stroke:none;fill:black;font-family:-apple-system,&quot;SF Pro Display&quot;,&quot;SF Pro Text&quot;,Helvetica,sans-serif;" transform="matrix(1 0 0 1 776 2025)">scales and weights.</text>
  <g id="" transform="matrix(1 0 0 1 1289 1933)">
   <path d="M 2.83203 3.11523 L 4.375 4.6582 C 5.22461 5.48828 6.19141 5.41992 7.06055 4.46289 L 17.2754 -6.66016 C 17.7051 -6.36719 18.0957 -6.37695 18.5645 -6.47461 L 19.6094 -6.68945 L 20.3027 -5.99609 L 20.2539 -5.47852 C 20.1855 -4.95117 20.3516 -4.53125 20.8496 -4.0332 L 21.6602 -3.22266 C 22.168 -2.71484 22.8223 -2.68555 23.3008 -3.16406 L 26.5527 -6.41602 C 27.0312 -6.89453 27.0117 -7.54883 26.5039 -8.05664 L 25.6836 -8.87695 C 25.1855 -9.375 24.7754 -9.55078 24.2383 -9.47266 L 23.7109 -9.41406 L 23.0566 -10.0781 L 23.3398 -11.2207 C 23.4863 -11.7871 23.3398 -12.2559 22.7148 -12.8613 L 20.3027 -15.2539 C 16.7578 -18.7793 12.2266 -18.6719 9.11133 -15.5371 C 8.69141 -15.1074 8.64258 -14.5215 8.91602 -14.0918 C 9.15039 -13.7207 9.62891 -13.4961 10.2734 -13.6621 C 11.7871 -14.043 13.3008 -13.9258 14.7852 -12.9199 L 14.1602 -11.3379 C 13.9258 -10.752 13.9453 -10.2734 14.1797 -9.83398 L 3.01758 0.439453 C 2.08008 1.30859 1.97266 2.25586 2.83203 3.11523 Z M 10.6738 -15.1465 C 13.3398 -17.1387 16.6504 -16.8262 19.0527 -14.4141 L 21.6797 -11.8066 C 21.9141 -11.5723 21.9434 -11.3867 21.8848 -11.0938 L 21.5039 -9.53125 L 23.0762 -7.95898 L 24.043 -8.04688 C 24.3262 -8.07617 24.4141 -8.05664 24.6387 -7.83203 L 25.2637 -7.20703 L 22.5098 -4.46289 L 21.8848 -5.07812 C 21.6602 -5.30273 21.6406 -5.40039 21.6699 -5.68359 L 21.7578 -6.64062 L 20.1953 -8.20312 L 18.5742 -7.89062 C 18.291 -7.83203 18.1445 -7.83203 17.9102 -8.07617 L 15.7324 -10.2539 C 15.5078 -10.4883 15.4785 -10.625 15.6055 -10.9473 L 16.5527 -13.2227 C 14.9512 -14.7559 12.8418 -15.6055 10.8008 -14.9512 C 10.7129 -14.9219 10.6445 -14.9414 10.6152 -14.9805 C 10.5859 -15.0293 10.5859 -15.0781 10.6738 -15.1465 Z M 4.10156 2.41211 C 3.61328 1.91406 3.78906 1.61133 4.12109 1.30859 L 15.0781 -8.80859 L 16.3086 -7.57812 L 6.15234 3.34961 C 5.84961 3.68164 5.46875 3.7793 5.06836 3.37891 Z"/>
  </g>
  <text style="stroke:none;fill:black;font-family:-apple-system,&quot;SF Pro Display&quot;,&quot;SF Pro Text&quot;,Helvetica,sans-serif;font-weight:bold;" transform="matrix(1 0 0 1 1289 1953)">Exporting</text>
  <text style="stroke:none;fill:black;font-family:-apple-system,&quot;SF Pro Display&quot;,&quot;SF Pro Text&quot;,Helvetica,sans-serif;" transform="matrix(1 0 0 1 1289 1971)">Symbols should be outlined when exporting to ensure the</text>
  <text style="stroke:none;fill:black;font-family:-apple-system,&quot;SF Pro Display&quot;,&quot;SF Pro Text&quot;,Helvetica,sans-serif;" transform="matrix(1 0 0 1 1289 1989)">design is preserved when submitting to Xcode.</text>
  <text id="template-version" style="stroke:none;fill:black;font-family:-apple-system,&quot;SF Pro Display&quot;,&quot;SF Pro Text&quot;,Helvetica,sans-serif;text-anchor:end;" transform="matrix(1 0 0 1 3036 1933)">Template v.1.0</text>
  <text style="stroke:none;fill:black;font-family:-apple-system,&quot;SF Pro Display&quot;,&quot;SF Pro Text&quot;,Helvetica,sans-serif;text-anchor:end;" transform="matrix(1 0 0 1 3036 1951)">Generated from goforward.30</text>
  <text style="stroke:none;fill:black;font-family:-apple-system,&quot;SF Pro Display&quot;,&quot;SF Pro Text&quot;,Helvetica,sans-serif;text-anchor:end;" transform="matrix(1 0 0 1 3036 1969)">Typeset at 100 points</text>
  <text style="stroke:none;fill:black;font-family:-apple-system,&quot;SF Pro Display&quot;,&quot;SF Pro Text&quot;,Helvetica,sans-serif;" transform="matrix(1 0 0 1 263 726)">Small</text>
  <text style="stroke:none;fill:black;font-family:-apple-system,&quot;SF Pro Display&quot;,&quot;SF Pro Text&quot;,Helvetica,sans-serif;" transform="matrix(1 0 0 1 263 1156)">Medium</text>
  <text style="stroke:none;fill:black;font-family:-apple-system,&quot;SF Pro Display&quot;,&quot;SF Pro Text&quot;,Helvetica,sans-serif;" transform="matrix(1 0 0 1 263 1586)">Large</text>
 </g>
 <g id="Guides">
  <g id="H-reference" style="fill:#27AAE1;stroke:none;" transform="matrix(1 0 0 1 339 696)">
   <path d="M 54.9316 0 L 57.666 0 L 30.5664 -70.459 L 28.0762 -70.459 L 0.976562 0 L 3.66211 0 L 12.9395 -24.4629 L 45.7031 -24.4629 Z M 29.1992 -67.0898 L 29.4434 -67.0898 L 44.8242 -26.709 L 13.8184 -26.709 Z"/>
  </g>
  <line id="Baseline-S" style="fill:none;stroke:#27AAE1;opacity:1;stroke-width:0.577;" x1="263" x2="3036" y1="696" y2="696"/>
  <line id="Capline-S" style="fill:none;stroke:#27AAE1;opacity:1;stroke-width:0.577;" x1="263" x2="3036" y1="625.541" y2="625.541"/>
  <g id="H-reference" style="fill:#27AAE1;stroke:none;" transform="matrix(1 0 0 1 339 1126)">
   <path d="M 54.9316 0 L 57.666 0 L 30.5664 -70.459 L 28.0762 -70.459 L 0.976562 0 L 3.66211 0 L 12.9395 -24.4629 L 45.7031 -24.4629 Z M 29.1992 -67.0898 L 29.4434 -67.0898 L 44.8242 -26.709 L 13.8184 -26.709 Z"/>
  </g>
  <line id="Baseline-M" style="fill:none;stroke:#27AAE1;opacity:1;stroke-width:0.577;" x1="263" x2="3036" y1="1126" y2="1126"/>
  <line id="Capline-M" style="fill:none;stroke:#27AAE1;opacity:1;stroke-width:0.577;" x1="263" x2="3036" y1="1055.54" y2="1055.54"/>
  <g id="H-reference" style="fill:#27AAE1;stroke:none;" transform="matrix(1 0 0 1 339 1556)">
   <path d="M 54.9316 0 L 57.666 0 L 30.5664 -70.459 L 28.0762 -70.459 L 0.976562 0 L 3.66211 0 L 12.9395 -24.4629 L 45.7031 -24.4629 Z M 29.1992 -67.0898 L 29.4434 -67.0898 L 44.8242 -26.709 L 13.8184 -26.709 Z"/>
  </g>
  <line id="Baseline-L" style="fill:none;stroke:#27AAE1;opacity:1;stroke-width:0.577;" x1="263" x2="3036" y1="1556" y2="1556"/>
  <line id="Capline-L" style="fill:none;stroke:#27AAE1;opacity:1;stroke-width:0.577;" x1="263" x2="3036" y1="1485.54" y2="1485.54"/>
  <rect height="119.336" id="left-margin" style="fill:#00AEEF;stroke:none;opacity:0.4;" width="8.74023" x="1391.3" y="1030.79"/>
  <rect height="119.336" id="right-margin" style="fill:#00AEEF;stroke:none;opacity:0.4;" width="8.74023" x="1499.65" y="1030.79"/>
 </g>
 <g id="Symbols">
  <g id="Black-L" transform="matrix(1 0 0 1 2854.05 1556)">
   <path d="M 79.3457 32.8125 C 116.748 32.8125 147.412 2.14844 147.412 -35.2539 C 147.412 -52.9297 139.111 -73.0957 126.807 -83.6914 C 121.338 -88.5742 115.234 -88.5254 111.377 -84.3262 C 107.08 -79.6875 108.545 -73.584 112.793 -68.9941 C 121.68 -59.8145 126.953 -48.5352 126.953 -35.2539 C 127.002 -8.88672 105.713 12.3535 79.3457 12.3535 C 52.9785 12.3535 31.7383 -8.88672 31.7383 -35.2539 C 31.7383 -56.1523 45.0195 -73.8281 63.6719 -80.2734 L 63.6719 -71.582 C 63.6719 -65.5762 68.9453 -63.7207 74.3652 -67.6758 L 99.1699 -85.8398 C 103.467 -88.9648 103.369 -94.1406 99.1699 -97.2168 L 74.3652 -115.479 C 69.043 -119.385 63.6719 -117.725 63.6719 -111.523 L 63.6719 -101.514 C 33.7402 -94.3848 11.2793 -67.334 11.2793 -35.2539 C 11.2793 2.14844 41.9434 32.8125 79.3457 32.8125 Z M 99.6094 -7.27539 C 109.473 -7.27539 117.383 -16.6504 117.383 -33.252 C 117.383 -49.8535 109.473 -59.2285 99.6094 -59.2285 C 89.7949 -59.2285 82.2754 -51.2207 82.2754 -33.252 C 82.2754 -15.332 89.7949 -7.27539 99.6094 -7.27539 Z M 60.8398 -7.27539 C 71.7285 -7.27539 78.8086 -13.1836 78.8086 -22.5098 C 78.8086 -28.3203 75.6348 -33.4473 70.1172 -34.7168 C 74.8047 -36.1816 77.6855 -40.8691 77.6855 -45.5078 C 77.6855 -53.8574 71.0449 -59.2285 60.9863 -59.2285 C 52.9297 -59.2285 47.1191 -54.4434 45.6055 -50.0488 C 45.1172 -48.7305 44.873 -47.7051 44.873 -46.582 C 44.873 -43.1641 46.8262 -40.9668 50 -40.9668 C 52.1973 -40.9668 53.9062 -41.9434 55.2734 -44.1406 C 56.8359 -46.7773 58.3984 -48.0957 60.7422 -48.0957 C 63.3301 -48.0957 65.0391 -46.2402 65.0391 -43.6523 C 65.0391 -41.2598 63.623 -38.916 60.791 -38.916 L 60.1074 -38.916 C 56.543 -38.916 54.2969 -36.8652 54.2969 -33.5449 C 54.2969 -30.1758 56.4453 -28.125 60.1074 -28.125 L 60.8398 -28.125 C 63.916 -28.125 65.7227 -26.2207 65.7227 -23.2422 C 65.7227 -20.8984 63.7695 -18.8965 61.084 -18.8965 C 58.5449 -18.8965 56.3477 -20.3613 54.834 -22.8027 C 53.6133 -24.8047 51.9531 -25.9766 49.5117 -25.9766 C 46.9238 -25.9766 44.2871 -23.9258 44.2871 -20.3613 C 44.2871 -19.3848 44.3848 -18.3594 44.7266 -17.2852 C 46.3379 -11.9629 53.2227 -7.27539 60.8398 -7.27539 Z M 99.8535 -19.043 C 96.7285 -19.043 95.1172 -23.6328 95.1172 -33.252 C 95.1172 -42.9199 96.7285 -47.4609 99.8535 -47.4609 C 103.027 -47.4609 104.59 -42.9199 104.59 -33.252 C 104.59 -23.6328 102.979 -19.043 99.8535 -19.043 Z"/>
  </g>
  <g id="Heavy-L" transform="matrix(1 0 0 1 2558.39 1556)">
   <path d="M 78.2715 31.7383 C 115.088 31.7383 145.312 1.5625 145.312 -35.2539 C 145.312 -53.8574 136.328 -73.7793 122.998 -84.5703 C 118.262 -88.7207 112.891 -88.5254 109.668 -84.8633 C 106.055 -80.7617 107.324 -75.4883 111.084 -71.582 C 121.289 -62.3047 127.49 -49.8047 127.539 -35.2539 C 127.539 -8.00781 105.566 13.9648 78.2715 13.9648 C 51.0254 13.9648 29.0527 -8.00781 29.0527 -35.2539 C 29.0527 -57.4219 43.5059 -76.0254 63.5254 -82.2754 L 63.5254 -73.2422 C 63.5254 -67.6758 68.2129 -66.0156 73.0469 -69.5312 L 96.7285 -86.7188 C 100.586 -89.5508 100.537 -94.0918 96.7285 -96.9238 L 73.0957 -114.111 C 68.2617 -117.676 63.5254 -116.113 63.5254 -110.449 L 63.5254 -100.635 C 33.7402 -93.8477 11.2793 -66.9922 11.2793 -35.2539 C 11.2793 1.5625 41.5039 31.7383 78.2715 31.7383 Z M 98.7305 -7.66602 C 108.691 -7.66602 116.406 -17.1387 116.406 -33.3984 C 116.406 -49.6582 108.691 -59.2285 98.7305 -59.2285 C 88.7695 -59.2285 81.3965 -50.7324 81.3965 -33.3984 C 81.3965 -16.1133 88.7695 -7.66602 98.7305 -7.66602 Z M 59.4238 -7.66602 C 70.0195 -7.66602 77.0996 -13.5742 77.0996 -22.6562 C 77.0996 -28.5156 73.7305 -33.6426 68.1152 -34.8145 C 72.8516 -36.2305 75.8789 -40.918 75.8789 -45.7031 C 75.8789 -53.8574 69.3848 -59.2285 59.6191 -59.2285 C 51.6602 -59.2285 45.752 -54.541 44.2871 -49.7559 C 43.8477 -48.584 43.6523 -47.6562 43.6523 -46.6309 C 43.6523 -43.6035 45.459 -41.6016 48.291 -41.6016 C 50.3906 -41.6016 51.9531 -42.5293 53.125 -44.5801 C 54.5898 -47.6074 56.4941 -49.2188 59.375 -49.2188 C 62.5 -49.2188 64.6484 -47.0703 64.6484 -44.0918 C 64.6484 -41.2598 62.6953 -38.7207 59.4238 -38.7207 L 58.1543 -38.7207 C 54.9805 -38.7207 52.9785 -36.8164 52.9785 -33.8379 C 52.9785 -30.8105 54.9316 -28.9551 58.1543 -28.9551 L 59.5215 -28.9551 C 63.2324 -28.9551 65.5273 -26.709 65.5273 -23.3398 C 65.5273 -20.4102 63.0371 -18.0176 59.5703 -18.0176 C 56.543 -18.0176 54.0527 -19.7266 52.5879 -22.5586 C 51.4648 -24.5605 49.9512 -25.5859 47.7051 -25.5859 C 45.3125 -25.5859 42.9688 -23.7305 42.9688 -20.5566 C 42.9688 -19.6289 43.0664 -18.7012 43.4082 -17.7246 C 44.9219 -12.3047 51.7578 -7.66602 59.4238 -7.66602 Z M 98.9258 -18.2129 C 95.0684 -18.2129 92.8711 -23.3887 92.8711 -33.3984 C 92.8711 -43.457 95.0684 -48.6816 98.9258 -48.6816 C 102.783 -48.6816 104.932 -43.5059 104.932 -33.3984 C 104.932 -23.3887 102.783 -18.2129 98.9258 -18.2129 Z"/>
  </g>
  <g id="Bold-L" transform="matrix(1 0 0 1 2262.88 1556)">
   <path d="M 77.0996 30.5664 C 113.232 30.5664 142.92 0.878906 142.92 -35.2539 C 142.92 -54.834 133.252 -74.5117 118.75 -85.5469 C 114.844 -88.8672 110.303 -88.5742 107.764 -85.4004 C 104.932 -81.9336 106.006 -77.6367 109.229 -74.5117 C 120.801 -65.0879 128.125 -51.2207 128.174 -35.2539 C 128.174 -6.93359 105.371 15.8203 77.0996 15.8203 C 48.8281 15.8203 26.0742 -6.93359 26.0742 -35.2539 C 26.0742 -58.7891 41.7969 -78.5156 63.3789 -84.4727 L 63.3789 -75.0488 C 63.3789 -70.0684 67.3828 -68.6035 71.6309 -71.6797 L 93.9453 -87.6953 C 97.3633 -90.1855 97.3633 -94.0918 93.9453 -96.582 L 71.6797 -112.646 C 67.4316 -115.723 63.3789 -114.307 63.3789 -109.229 L 63.3789 -99.6094 C 33.7402 -93.2129 11.2793 -66.6504 11.2793 -35.2539 C 11.2793 0.878906 41.0156 30.5664 77.0996 30.5664 Z M 97.7539 -8.10547 C 107.861 -8.10547 115.283 -17.7246 115.283 -33.5938 C 115.283 -49.4629 107.861 -59.1797 97.7539 -59.1797 C 87.5977 -59.1797 80.4199 -50.1953 80.4199 -33.5938 C 80.4199 -17.041 87.6465 -8.10547 97.7539 -8.10547 Z M 57.8125 -8.10547 C 68.1641 -8.10547 75.2441 -14.0137 75.2441 -22.8516 C 75.2441 -28.7598 71.582 -33.7891 65.918 -34.9121 C 70.6543 -36.2305 73.8281 -40.918 73.8281 -45.9473 C 73.8281 -53.8574 67.4805 -59.1797 58.0566 -59.1797 C 50.2441 -59.1797 44.1895 -54.6387 42.7734 -49.4629 C 42.4316 -48.4375 42.2852 -47.6074 42.2852 -46.7285 C 42.2852 -44.043 43.8965 -42.2852 46.4355 -42.2852 C 48.3887 -42.2852 49.7559 -43.1641 50.6836 -45.1172 C 52.0508 -48.584 54.3945 -50.4395 57.8613 -50.4395 C 61.5723 -50.4395 64.1602 -47.998 64.1602 -44.6289 C 64.1602 -41.2109 61.7188 -38.4277 57.8613 -38.4277 L 55.957 -38.4277 C 53.2715 -38.4277 51.5137 -36.7676 51.5137 -34.1797 C 51.5137 -31.543 53.2227 -29.834 55.957 -29.834 L 58.0566 -29.834 C 62.4512 -29.834 65.2344 -27.2461 65.2344 -23.3887 C 65.2344 -19.8242 62.207 -17.041 57.959 -17.041 C 54.2969 -17.041 51.416 -18.9941 50 -22.3145 C 49.0234 -24.2676 47.7539 -25.1953 45.752 -25.1953 C 43.5059 -25.1953 41.5039 -23.4863 41.5039 -20.752 C 41.5039 -19.9219 41.6016 -19.0918 41.8945 -18.2129 C 43.4082 -12.6465 50.1465 -8.10547 57.8125 -8.10547 Z M 97.9004 -17.2852 C 93.2129 -17.2852 90.4297 -23.1445 90.4297 -33.5938 C 90.4297 -44.1406 93.2129 -50 97.9004 -50 C 102.539 -50 105.273 -44.1406 105.273 -33.5938 C 105.273 -23.1445 102.49 -17.2852 97.9004 -17.2852 Z"/>
  </g>
  <g id="Semibold-L" transform="matrix(1 0 0 1 1966.97 1556)">
   <path d="M 76.2695 29.7852 C 111.914 29.7852 141.309 0.390625 141.309 -35.2051 C 141.309 -55.5176 131.152 -75 115.82 -86.2305 C 112.5 -89.0137 108.545 -88.5742 106.445 -85.791 C 104.15 -82.7637 105.078 -79.1016 107.91 -76.5137 C 120.508 -66.9922 128.564 -52.1973 128.613 -35.2051 C 128.662 -6.25 105.273 17.0898 76.2695 17.0898 C 47.3145 17.0898 24.0234 -6.25 24.0234 -35.2051 C 24.0234 -59.7168 40.625 -80.1758 63.2812 -85.9375 L 63.2812 -76.3184 C 63.2812 -71.7285 66.7969 -70.3613 70.6543 -73.1445 L 92.041 -88.3789 C 95.166 -90.625 95.166 -94.0918 92.041 -96.3379 L 70.7031 -111.572 C 66.8457 -114.355 63.2812 -113.086 63.2812 -108.398 L 63.2812 -98.9258 C 33.7402 -92.8223 11.2793 -66.4062 11.2793 -35.2051 C 11.2793 0.390625 40.6738 29.7852 76.2695 29.7852 Z M 97.0703 -8.34961 C 107.275 -8.34961 114.502 -18.1152 114.502 -33.6914 C 114.502 -49.3652 107.275 -59.1309 97.0703 -59.1309 C 86.8164 -59.1309 79.7852 -49.8047 79.7852 -33.6914 C 79.7852 -17.6758 86.8652 -8.34961 97.0703 -8.34961 Z M 56.7383 -8.34961 C 66.8945 -8.34961 73.9258 -14.3066 73.9258 -22.998 C 73.9258 -28.9062 70.1172 -33.9355 64.4043 -34.9609 C 69.0918 -36.2305 72.4609 -40.9668 72.4609 -46.0938 C 72.4609 -53.8574 66.1621 -59.1309 56.9824 -59.1309 C 49.2676 -59.1309 43.1641 -54.7363 41.748 -49.2188 C 41.5039 -48.3398 41.3574 -47.5586 41.3574 -46.7773 C 41.3574 -44.3848 42.8711 -42.7246 45.166 -42.7246 C 46.9727 -42.7246 48.1934 -43.6035 49.0234 -45.5078 C 50.3418 -49.2188 52.9297 -51.2695 56.7871 -51.2695 C 60.9863 -51.2695 63.8184 -48.6816 63.8184 -44.9707 C 63.8184 -41.2109 61.0352 -38.2324 56.8359 -38.2324 L 54.4434 -38.2324 C 52.0508 -38.2324 50.4883 -36.7188 50.4883 -34.375 C 50.4883 -32.0312 52.0508 -30.4688 54.4434 -30.4688 L 57.0312 -30.4688 C 61.9141 -30.4688 65.0879 -27.5879 65.0879 -23.4375 C 65.0879 -19.4336 61.6211 -16.4062 56.8359 -16.4062 C 52.7344 -16.4062 49.6582 -18.5059 48.2422 -22.1191 C 47.3633 -24.0723 46.2402 -24.9512 44.3359 -24.9512 C 42.2852 -24.9512 40.5273 -23.3398 40.5273 -20.8496 C 40.5273 -20.1172 40.5762 -19.3848 40.8203 -18.5059 C 42.334 -12.8906 49.0234 -8.34961 56.7383 -8.34961 Z M 97.168 -16.6016 C 91.9434 -16.6016 88.7207 -22.9492 88.7207 -33.6914 C 88.7207 -44.5801 91.9434 -50.8789 97.168 -50.8789 C 102.393 -50.8789 105.518 -44.6289 105.518 -33.6914 C 105.518 -22.9492 102.344 -16.6016 97.168 -16.6016 Z"/>
  </g>
  <g id="Medium-L" transform="matrix(1 0 0 1 1670.87 1556)">
   <path d="M 75.6836 29.1992 C 110.938 29.1992 140.088 0.0488281 140.088 -35.2051 C 140.088 -56.0547 129.492 -75.3906 113.623 -86.7676 C 110.693 -89.1113 107.178 -88.5742 105.42 -86.084 C 103.564 -83.3984 104.395 -80.2246 106.934 -78.0273 C 120.264 -68.457 128.906 -52.9297 128.906 -35.2051 C 128.955 -5.71289 105.176 18.0176 75.6836 18.0176 C 46.1426 18.0176 22.4609 -5.71289 22.4609 -35.2051 C 22.4609 -60.4492 39.7461 -81.4453 63.1836 -87.0117 L 63.1836 -77.2461 C 63.1836 -72.9492 66.3574 -71.7285 69.9219 -74.2188 L 90.625 -88.8672 C 93.5059 -90.918 93.5059 -94.043 90.625 -96.1426 L 69.9707 -110.791 C 66.4062 -113.379 63.1836 -112.158 63.1836 -107.764 L 63.1836 -98.3887 C 33.7891 -92.4805 11.2793 -66.2598 11.2793 -35.2051 C 11.2793 0.0488281 40.3809 29.1992 75.6836 29.1992 Z M 96.582 -8.59375 C 106.836 -8.59375 113.916 -18.4082 113.916 -33.7891 C 113.916 -49.2188 106.836 -59.1309 96.582 -59.1309 C 86.2305 -59.1309 79.2969 -49.5117 79.2969 -33.7891 C 79.2969 -18.1641 86.2793 -8.59375 96.582 -8.59375 Z M 55.9082 -8.59375 C 65.918 -8.59375 72.9492 -14.5508 72.9492 -23.0957 C 72.9492 -29.0527 68.9941 -34.0332 63.2324 -35.0098 C 67.9199 -36.2305 71.3867 -40.9668 71.3867 -46.2402 C 71.3867 -53.8574 65.1855 -59.1309 56.1523 -59.1309 C 48.5352 -59.1309 42.334 -54.7852 40.9668 -49.0723 C 40.7715 -48.2422 40.6738 -47.5586 40.6738 -46.8262 C 40.6738 -44.6289 42.041 -43.0664 44.1895 -43.0664 C 45.8984 -43.0664 47.0703 -43.8965 47.7539 -45.8008 C 49.0234 -49.707 51.8066 -51.9531 56.0059 -51.9531 C 60.498 -51.9531 63.5742 -49.1699 63.5742 -45.2637 C 63.5742 -41.2109 60.498 -38.1348 56.0059 -38.1348 L 53.3203 -38.1348 C 51.1719 -38.1348 49.7559 -36.7188 49.7559 -34.5215 C 49.7559 -32.4219 51.1719 -30.957 53.3203 -30.957 L 56.25 -30.957 C 61.4746 -30.957 64.9414 -27.8809 64.9414 -23.4863 C 64.9414 -19.1406 61.1816 -15.8691 55.957 -15.8691 C 51.6113 -15.8691 48.291 -18.1641 46.9238 -21.9727 C 46.1426 -23.877 45.0684 -24.7559 43.3105 -24.7559 C 41.3086 -24.7559 39.7461 -23.2422 39.7461 -20.9961 C 39.7461 -20.2637 39.8438 -19.5801 40.0391 -18.7988 C 41.5039 -13.0371 48.1934 -8.59375 55.9082 -8.59375 Z M 96.6309 -16.1133 C 91.0156 -16.1133 87.4023 -22.8027 87.4023 -33.7891 C 87.4023 -44.9219 90.9668 -51.6113 96.6309 -51.6113 C 102.246 -51.6113 105.713 -44.9707 105.713 -33.7891 C 105.713 -22.8027 102.197 -16.1133 96.6309 -16.1133 Z"/>
  </g>
  <g id="Regular-L" transform="matrix(1 0 0 1 1374.97 1556)">
   <path d="M 74.8535 28.3691 C 109.668 28.3691 138.477 -0.390625 138.477 -35.2051 C 138.477 -56.7383 127.393 -75.9277 110.742 -87.4023 C 108.35 -89.209 105.42 -88.5742 104.102 -86.4258 C 102.783 -84.1797 103.467 -81.6406 105.664 -80.0293 C 119.922 -70.3125 129.297 -53.9062 129.346 -35.2051 C 129.395 -5.0293 105.078 19.2871 74.8535 19.2871 C 44.6777 19.2871 20.4102 -5.0293 20.4102 -35.2051 C 20.4102 -61.377 38.5742 -83.1055 63.0859 -88.4277 L 63.0859 -78.5156 C 63.0859 -74.5605 65.8203 -73.4863 68.9453 -75.6836 L 88.7207 -89.5508 C 91.3086 -91.3574 91.3574 -94.043 88.7207 -95.8984 L 68.9941 -109.766 C 65.8203 -112.012 63.0859 -110.938 63.0859 -106.934 L 63.0859 -97.7051 C 33.7891 -92.0898 11.2793 -66.0156 11.2793 -35.2051 C 11.2793 -0.390625 40.0879 28.3691 74.8535 28.3691 Z M 95.8984 -8.88672 C 106.299 -8.88672 113.135 -18.7988 113.135 -33.9355 C 113.135 -49.1211 106.299 -59.1309 95.8984 -59.1309 C 85.4492 -59.1309 78.6133 -49.1699 78.6133 -33.9355 C 78.6133 -18.7988 85.498 -8.88672 95.8984 -8.88672 Z M 54.7852 -8.88672 C 64.6484 -8.88672 71.6797 -14.7949 71.6797 -23.2422 C 71.6797 -29.1992 67.4805 -34.1309 61.7188 -35.0586 C 66.4062 -36.2305 70.0195 -40.918 70.0195 -46.3867 C 70.0195 -53.8574 63.8672 -59.1309 55.0781 -59.1309 C 47.5586 -59.1309 41.3086 -54.8828 39.9414 -48.877 C 39.7949 -48.1445 39.7461 -47.5098 39.7461 -46.875 C 39.7461 -44.9219 41.0156 -43.5547 42.9199 -43.5547 C 44.5312 -43.5547 45.5566 -44.3359 46.1426 -46.1426 C 47.3145 -50.3906 50.3906 -52.7832 54.9316 -52.7832 C 59.8633 -52.7832 63.2324 -49.8047 63.2324 -45.6055 C 63.2324 -41.2109 59.8145 -37.9395 54.9805 -37.9395 L 51.8555 -37.9395 C 50 -37.9395 48.7305 -36.6699 48.7305 -34.7656 C 48.7305 -32.9102 50.0488 -31.543 51.8555 -31.543 L 55.2734 -31.543 C 60.9863 -31.543 64.7949 -28.2715 64.7949 -23.5352 C 64.7949 -18.75 60.5957 -15.2344 54.834 -15.2344 C 50.0488 -15.2344 46.4844 -17.6758 45.166 -21.8262 C 44.4824 -23.6816 43.5547 -24.4629 41.9434 -24.4629 C 40.0879 -24.4629 38.7695 -23.0469 38.7695 -21.0938 C 38.7695 -20.459 38.8184 -19.873 39.0137 -19.0918 C 40.4297 -13.2812 47.0703 -8.88672 54.7852 -8.88672 Z M 95.8984 -15.4785 C 89.7461 -15.4785 85.7422 -22.6562 85.7422 -33.9355 C 85.7422 -45.3613 89.6973 -52.4902 95.8984 -52.4902 C 102.051 -52.4902 105.957 -45.4102 105.957 -33.9355 C 105.957 -22.6562 102.002 -15.4785 95.8984 -15.4785 Z"/>
  </g>
  <g id="Light-L" transform="matrix(1 0 0 1 1079.18 1556)">
   <path d="M 73.9258 27.4902 C 108.301 27.4902 136.621 -0.830078 136.621 -35.1562 C 136.621 -57.0801 125.049 -76.5137 107.715 -87.6953 C 105.908 -89.0137 103.711 -88.5254 102.734 -86.8652 C 101.758 -85.1562 102.295 -83.2031 103.955 -82.0312 C 119.434 -72.2168 129.688 -54.9316 129.736 -35.1562 C 129.736 -4.3457 104.785 20.6055 73.9258 20.6055 C 43.1152 20.6055 18.2129 -4.3457 18.2129 -35.1562 C 18.2129 -62.1582 37.2559 -84.6191 62.6465 -89.7949 L 62.6465 -78.7109 C 62.6465 -75.4883 64.8926 -74.5117 67.5781 -76.416 L 86.9629 -89.9902 C 89.1602 -91.5039 89.209 -93.75 86.9629 -95.3125 L 67.627 -108.887 C 64.8926 -110.791 62.6465 -109.814 62.6465 -106.592 L 62.6465 -96.8262 C 33.5938 -91.4551 11.2793 -65.6738 11.2793 -35.1562 C 11.2793 -0.830078 39.5996 27.4902 73.9258 27.4902 Z M 95.3613 -9.08203 C 105.664 -9.08203 112.549 -18.9941 112.549 -34.1309 C 112.549 -49.2676 105.664 -59.2773 95.3613 -59.2773 C 85.0098 -59.2773 78.1738 -49.2676 78.1738 -34.1309 C 78.1738 -18.9941 85.0586 -9.08203 95.3613 -9.08203 Z M 53.6621 -9.08203 C 63.4277 -9.08203 70.4102 -14.9414 70.4102 -23.2422 C 70.4102 -29.4434 65.8203 -34.4727 59.668 -35.2051 C 64.6973 -36.1328 68.7012 -41.0156 68.7012 -46.7285 C 68.7012 -54.0039 62.5977 -59.2773 53.8574 -59.2773 C 46.3867 -59.2773 40.2832 -55.0781 38.9648 -49.1699 C 38.8184 -48.4863 38.7695 -47.9004 38.7695 -47.3633 C 38.7695 -45.8008 39.7949 -44.6777 41.3086 -44.6777 C 42.7246 -44.6777 43.6035 -45.3613 43.9941 -46.8262 C 44.9707 -51.3672 48.6328 -54.1992 53.7598 -54.1992 C 59.375 -54.1992 63.2324 -50.8301 63.2324 -46.0938 C 63.2324 -41.2598 59.2285 -37.5 53.8574 -37.5 L 50.1465 -37.5 C 48.6328 -37.5 47.6562 -36.5234 47.6562 -34.9609 C 47.6562 -33.4473 48.6816 -32.4219 50.1465 -32.4219 L 54.1992 -32.4219 C 60.4492 -32.4219 64.8438 -28.6133 64.8438 -23.4375 C 64.8438 -18.0176 60.2051 -14.1602 53.6621 -14.1602 C 48.3887 -14.1602 44.2383 -16.9922 43.0176 -21.4844 C 42.4805 -23.0469 41.748 -23.6816 40.332 -23.6816 C 38.8184 -23.6816 37.7441 -22.5586 37.7441 -20.9473 C 37.7441 -20.4102 37.793 -19.873 37.9883 -19.0918 C 39.502 -13.3301 45.9473 -9.08203 53.6621 -9.08203 Z M 95.3613 -14.3555 C 88.4277 -14.3555 83.8379 -22.168 83.8379 -34.1309 C 83.8379 -46.1914 88.3789 -54.0039 95.3613 -54.0039 C 102.295 -54.0039 106.885 -46.1914 106.885 -34.1309 C 106.885 -22.168 102.295 -14.3555 95.3613 -14.3555 Z"/>
  </g>
  <g id="Thin-L" transform="matrix(1 0 0 1 783.693 1556)">
   <path d="M 72.7051 26.3184 C 106.494 26.3184 134.18 -1.36719 134.18 -35.1074 C 134.18 -57.5684 121.973 -77.2949 103.76 -88.0371 C 102.686 -88.7207 101.465 -88.3789 100.928 -87.4512 C 100.439 -86.4746 100.732 -85.3027 101.709 -84.668 C 118.75 -74.6582 130.176 -56.25 130.176 -35.1074 C 130.176 -3.41797 104.443 22.3145 72.7051 22.3145 C 41.0156 22.3145 15.2832 -3.41797 15.2832 -35.1074 C 15.2832 -63.1836 35.4492 -86.6211 62.1094 -91.6016 L 62.1094 -79.0039 C 62.1094 -76.7578 63.7207 -75.9277 65.7715 -77.3926 L 84.6191 -90.5273 C 86.3281 -91.748 86.3281 -93.3594 84.6191 -94.5801 L 65.8203 -107.715 C 63.7207 -109.18 62.1094 -108.35 62.1094 -106.104 L 62.1094 -95.6543 C 33.3496 -90.5762 11.2793 -65.2832 11.2793 -35.1074 C 11.2793 -1.36719 38.9648 26.3184 72.7051 26.3184 Z M 94.6777 -9.32617 C 104.883 -9.32617 111.768 -19.2871 111.768 -34.375 C 111.768 -49.4629 104.883 -59.5215 94.6777 -59.5215 C 84.4727 -59.5215 77.5391 -49.4629 77.5391 -34.375 C 77.5391 -19.2871 84.4727 -9.32617 94.6777 -9.32617 Z M 52.1484 -9.32617 C 61.8164 -9.32617 68.75 -15.1367 68.75 -23.291 C 68.75 -29.541 63.8184 -34.668 57.4219 -35.3027 L 57.4219 -35.498 C 62.8418 -36.5234 66.9922 -41.3574 66.9922 -47.2168 C 66.9922 -54.248 60.8887 -59.5215 52.1484 -59.5215 C 44.873 -59.5215 38.9648 -55.3711 37.6953 -49.6094 C 37.5 -48.9258 37.5 -48.3887 37.5 -48.0469 C 37.5 -46.9238 38.1836 -46.1914 39.2578 -46.1914 C 40.3809 -46.1914 41.0156 -46.6797 41.1621 -47.7539 C 41.9434 -52.6855 46.3867 -56.1035 52.1484 -56.1035 C 58.6914 -56.1035 63.1836 -52.1973 63.1836 -46.7773 C 63.1836 -41.3086 58.4961 -36.9629 52.4414 -36.9629 L 47.9492 -36.9629 C 46.875 -36.9629 46.1914 -36.2793 46.1914 -35.2539 C 46.1914 -34.1797 46.875 -33.5449 47.9492 -33.5449 L 52.832 -33.5449 C 59.7168 -33.5449 64.8926 -29.1016 64.8926 -23.3887 C 64.8926 -17.0898 59.668 -12.7441 52.1484 -12.7441 C 46.1914 -12.7441 41.2598 -16.1133 40.0879 -20.9961 C 39.7949 -22.168 39.3555 -22.6562 38.2324 -22.6562 C 37.1582 -22.6562 36.4258 -21.875 36.4258 -20.752 C 36.4258 -20.3125 36.4258 -19.9219 36.6699 -19.0918 C 38.2812 -13.4277 44.4336 -9.32617 52.1484 -9.32617 Z M 94.6777 -12.8418 C 86.6699 -12.8418 81.2988 -21.5332 81.2988 -34.375 C 81.2988 -47.2656 86.6699 -55.957 94.6777 -55.957 C 102.637 -55.957 108.057 -47.2656 108.057 -34.375 C 108.057 -21.5332 102.637 -12.8418 94.6777 -12.8418 Z"/>
  </g>
  <g id="Ultralight-L" transform="matrix(1 0 0 1 487.616 1556)">
   <path d="M 72.1191 25.7324 C 105.566 25.7324 132.91 -1.61133 132.91 -35.1074 C 132.91 -57.8125 120.361 -77.6855 101.758 -88.1836 C 101.025 -88.623 100.293 -88.3301 100 -87.7441 C 99.707 -87.1582 99.9023 -86.377 100.537 -86.0352 C 118.408 -75.9277 130.42 -56.8848 130.42 -35.1074 C 130.42 -2.97852 104.248 23.2422 72.1191 23.2422 C 39.9414 23.2422 13.7695 -2.97852 13.7695 -35.1074 C 13.7695 -63.7207 34.5703 -87.6465 61.8164 -92.4805 L 61.8164 -79.1504 C 61.8164 -77.3926 63.0859 -76.6113 64.8926 -77.8809 L 83.3984 -90.8203 C 84.8633 -91.8457 84.8633 -93.1641 83.3984 -94.1895 L 64.8926 -107.129 C 63.0859 -108.398 61.8164 -107.617 61.8164 -105.859 L 61.8164 -95.0195 C 33.2031 -90.1367 11.2793 -65.0391 11.2793 -35.1074 C 11.2793 -1.61133 38.623 25.7324 72.1191 25.7324 Z M 94.3359 -9.42383 C 104.443 -9.42383 111.377 -19.4336 111.377 -34.5215 C 111.377 -49.5605 104.443 -59.6191 94.3359 -59.6191 C 84.1797 -59.6191 77.2461 -49.5605 77.2461 -34.5215 C 77.2461 -19.4336 84.1797 -9.42383 94.3359 -9.42383 Z M 51.3672 -9.42383 C 60.9863 -9.42383 67.8711 -15.1855 67.8711 -23.291 C 67.8711 -29.5898 62.8418 -34.7168 56.3477 -35.3516 L 56.3477 -35.6934 C 61.8652 -36.7188 66.1133 -41.5527 66.1133 -47.4609 C 66.1133 -54.3945 60.0098 -59.6191 51.3184 -59.6191 C 44.1406 -59.6191 38.2812 -55.5176 37.0117 -49.8535 C 36.8652 -49.1211 36.8652 -48.6816 36.8652 -48.3887 C 36.8652 -47.5586 37.3535 -46.9727 38.1836 -46.9727 C 39.1602 -46.9727 39.6484 -47.3145 39.6973 -48.1934 C 40.3809 -53.3691 45.2148 -57.0312 51.3184 -57.0312 C 58.3008 -57.0312 63.1348 -52.8809 63.1348 -47.0703 C 63.1348 -41.3086 58.1543 -36.6699 51.709 -36.6699 L 46.8262 -36.6699 C 45.9961 -36.6699 45.4102 -36.1816 45.4102 -35.4004 C 45.4102 -34.5703 45.9961 -34.082 46.8262 -34.082 L 52.0996 -34.082 C 59.375 -34.082 64.9414 -29.3457 64.9414 -23.3398 C 64.9414 -16.6016 59.375 -12.0117 51.3672 -12.0117 C 45.0684 -12.0117 39.7461 -15.6738 38.623 -20.752 C 38.4277 -21.6797 38.0859 -22.168 37.1094 -22.168 C 36.2793 -22.168 35.6934 -21.5332 35.6934 -20.6543 C 35.6934 -20.3125 35.6934 -19.9219 35.9375 -19.0918 C 37.6953 -13.4766 43.6523 -9.42383 51.3672 -9.42383 Z M 94.3359 -12.0605 C 85.791 -12.0605 79.9805 -21.1914 79.9805 -34.5215 C 79.9805 -47.8516 85.791 -56.9824 94.3359 -56.9824 C 102.783 -56.9824 108.643 -47.8516 108.643 -34.5215 C 108.643 -21.1914 102.783 -12.0605 94.3359 -12.0605 Z"/>
  </g>
  <g id="Black-M" transform="matrix(1 0 0 1 2870.97 1126)">
   <path d="M 62.4023 18.4082 C 91.9922 18.4082 116.113 -5.66406 116.113 -35.2539 C 116.113 -47.9492 110.303 -64.0137 101.758 -71.7773 C 96.8262 -76.2207 91.5039 -76.4648 87.8906 -72.8516 C 83.7891 -68.7988 85.1074 -63.2324 88.7695 -58.9355 C 94.5801 -51.9531 97.8027 -44.3848 97.8027 -35.2539 C 97.8027 -15.7227 81.9824 0.146484 62.4023 0.146484 C 42.8711 0.146484 27.002 -15.7227 27.002 -35.2539 C 27.002 -50.1953 36.2305 -62.9395 49.3164 -68.1641 L 49.3164 -61.3281 C 49.3164 -56.3965 53.9551 -54.7363 58.6426 -58.2031 L 79.248 -73.5352 C 82.8613 -76.2207 82.7637 -80.7617 79.248 -83.3984 L 58.5938 -98.7305 C 54.0527 -102.148 49.3164 -100.684 49.3164 -95.6543 L 49.3164 -87.3047 C 26.0254 -81.4453 8.74023 -60.3516 8.74023 -35.2539 C 8.74023 -5.66406 32.8125 18.4082 62.4023 18.4082 Z M 78.125 -13.1836 C 85.498 -13.1836 92.041 -20.2637 92.041 -33.5449 C 92.041 -46.875 85.498 -53.9551 78.125 -53.9551 C 70.7031 -53.9551 64.6484 -48.3398 64.6484 -33.5449 C 64.6484 -18.7988 70.7031 -13.1836 78.125 -13.1836 Z M 48.4863 -13.1836 C 57.1777 -13.1836 62.6465 -17.7246 62.6465 -25.1465 C 62.6465 -29.6875 60.3027 -33.7891 56.0059 -34.8145 C 59.8145 -35.9863 61.9141 -39.6484 61.9141 -43.1152 C 61.9141 -49.8047 56.6895 -53.9551 48.4863 -53.9551 C 42.0898 -53.9551 37.8418 -50.0977 36.6211 -47.2656 C 36.1328 -46.0938 35.8887 -45.2148 35.8887 -44.1895 C 35.8887 -41.3086 37.5 -39.502 40.1367 -39.502 C 41.9434 -39.502 43.4082 -40.2344 44.5801 -41.8457 C 45.8496 -43.5547 46.875 -44.4824 48.291 -44.4824 C 49.9023 -44.4824 50.9766 -43.2129 50.9766 -41.4062 C 50.9766 -39.9414 50.1953 -38.1836 48.3398 -38.1836 C 45.166 -38.1836 43.2617 -36.4258 43.2617 -33.6914 C 43.2617 -30.7129 45.0684 -29.1016 48.3398 -29.1016 C 50.1953 -29.1016 51.2695 -27.7832 51.2695 -25.8301 C 51.2695 -24.4629 50.1953 -23.1445 48.6816 -23.1445 C 47.168 -23.1445 45.6055 -24.2188 44.4336 -25.7324 C 43.3594 -27.1484 41.9922 -28.0762 39.8926 -28.0762 C 37.8418 -28.0762 35.498 -26.4648 35.498 -23.3887 C 35.498 -22.5586 35.6445 -21.6797 35.9375 -20.752 C 37.2559 -16.8457 42.5781 -13.1836 48.4863 -13.1836 Z M 78.3691 -23.1934 C 76.4648 -23.1934 75.6348 -26.2695 75.6348 -33.5449 C 75.6348 -40.8203 76.4648 -43.8965 78.3691 -43.8965 C 80.2734 -43.8965 81.1035 -40.8203 81.1035 -33.5449 C 81.1035 -26.2695 80.2734 -23.1934 78.3691 -23.1934 Z"/>
  </g>
  <g id="Heavy-M" transform="matrix(1 0 0 1 2575.19 1126)">
   <path d="M 61.5234 17.5293 C 90.5273 17.5293 114.258 -6.20117 114.258 -35.2539 C 114.258 -48.8281 107.861 -64.5996 98.3887 -72.6562 C 94.1406 -76.4648 89.4043 -76.5137 86.377 -73.291 C 82.959 -69.6777 84.082 -64.8926 87.3535 -61.2793 C 94.2871 -54.1992 98.3398 -45.5078 98.3398 -35.2539 C 98.3398 -14.8926 81.8848 1.61133 61.5234 1.61133 C 41.1133 1.61133 24.6582 -14.8926 24.6582 -35.2539 C 24.6582 -51.3672 34.9121 -64.9902 49.2676 -70.0195 L 49.2676 -63.0371 C 49.2676 -58.4473 53.3691 -56.9824 57.5684 -60.0586 L 77.002 -74.3652 C 80.3223 -76.8066 80.2246 -80.8105 77.002 -83.2031 L 57.5684 -97.5098 C 53.418 -100.586 49.2676 -99.2676 49.2676 -94.5312 L 49.2676 -86.5723 C 26.0742 -81.0059 8.74023 -60.1074 8.74023 -35.2539 C 8.74023 -6.20117 32.4707 17.5293 61.5234 17.5293 Z M 77.2949 -13.5254 C 84.8633 -13.5254 91.0645 -20.752 91.0645 -33.6914 C 91.0645 -46.6309 84.8633 -53.9062 77.2949 -53.9062 C 69.7266 -53.9062 63.8184 -47.8027 63.8184 -33.6914 C 63.8184 -19.6289 69.7266 -13.5254 77.2949 -13.5254 Z M 47.2168 -13.5254 C 55.6641 -13.5254 61.1328 -18.1152 61.1328 -25.3418 C 61.1328 -29.834 58.6426 -33.8867 54.2969 -34.8633 C 58.0566 -35.9863 60.3027 -39.6484 60.3027 -43.2617 C 60.3027 -49.7559 55.1758 -53.9062 47.2656 -53.9062 C 41.0156 -53.9062 36.5723 -50.1465 35.4492 -46.875 C 35.0098 -45.8496 34.8145 -45.0195 34.8145 -44.1406 C 34.8145 -41.5039 36.3281 -39.8438 38.7207 -39.8438 C 40.4297 -39.8438 41.748 -40.5762 42.7734 -42.1875 C 43.9941 -44.2383 45.2637 -45.3125 47.1191 -45.3125 C 49.1211 -45.3125 50.5371 -43.8477 50.5371 -41.7969 C 50.5371 -39.8926 49.3652 -38.0371 47.168 -38.0371 L 46.6309 -38.0371 C 43.8477 -38.0371 42.0898 -36.4258 42.0898 -33.9355 C 42.0898 -31.2988 43.75 -29.7363 46.6309 -29.7363 L 47.168 -29.7363 C 49.5605 -29.7363 51.0254 -28.2227 51.0254 -25.9277 C 51.0254 -24.0723 49.4629 -22.5098 47.3633 -22.5098 C 45.4102 -22.5098 43.6523 -23.6816 42.4805 -25.5859 C 41.5527 -27.0508 40.2832 -27.9297 38.3789 -27.9297 C 36.4258 -27.9297 34.375 -26.3672 34.375 -23.6328 C 34.375 -22.8516 34.4727 -22.0703 34.7168 -21.2402 C 35.9863 -17.1387 41.3086 -13.5254 47.2168 -13.5254 Z M 77.4902 -22.6074 C 75.0488 -22.6074 73.7305 -26.1719 73.7305 -33.6914 C 73.7305 -41.2598 75 -44.8242 77.4902 -44.8242 C 79.9805 -44.8242 81.2012 -41.2598 81.2012 -33.6914 C 81.2012 -26.1719 79.9316 -22.6074 77.4902 -22.6074 Z"/>
  </g>
  <g id="Bold-M" transform="matrix(1 0 0 1 2279.5 1126)">
   <path d="M 60.498 16.5039 C 88.8672 16.5039 112.207 -6.83594 112.207 -35.2539 C 112.207 -49.8047 105.176 -65.2344 94.6289 -73.6328 C 91.1133 -76.709 87.0605 -76.5625 84.668 -73.7793 C 81.9824 -70.7031 82.959 -66.748 85.791 -63.8672 C 93.8965 -56.6406 98.9258 -46.7773 98.9258 -35.2539 C 98.9746 -13.9648 81.7871 3.22266 60.498 3.22266 C 39.1602 3.22266 22.0703 -13.9648 22.0703 -35.2539 C 22.0703 -52.6367 33.4473 -67.2363 49.2188 -72.0215 L 49.2188 -64.9902 C 49.2188 -60.791 52.7344 -59.5215 56.3965 -62.1582 L 74.5117 -75.293 C 77.4414 -77.4414 77.3926 -80.8594 74.5117 -82.959 L 56.4453 -96.1426 C 52.7832 -98.7793 49.2188 -97.6074 49.2188 -93.3105 L 49.2188 -85.7422 C 26.1719 -80.5664 8.74023 -59.8145 8.74023 -35.2539 C 8.74023 -6.83594 32.0801 16.5039 60.498 16.5039 Z M 76.3672 -13.916 C 84.1309 -13.916 90.0391 -21.3379 90.0391 -33.8379 C 90.0391 -46.3867 84.1309 -53.8086 76.3672 -53.8086 C 68.6035 -53.8086 62.9395 -47.168 62.9395 -33.8379 C 62.9395 -20.6055 68.6035 -13.916 76.3672 -13.916 Z M 45.8008 -13.916 C 54.0039 -13.916 59.4727 -18.5059 59.4727 -25.5371 C 59.4727 -30.0781 56.7871 -34.0332 52.4414 -34.9121 C 56.1035 -35.9863 58.4473 -39.6484 58.4473 -43.4082 C 58.4473 -49.6582 53.4668 -53.8086 45.9473 -53.8086 C 39.7949 -53.8086 35.2051 -50.1953 34.082 -46.4355 C 33.7402 -45.5566 33.5938 -44.873 33.5938 -44.0918 C 33.5938 -41.7969 35.0098 -40.2344 37.1582 -40.2344 C 38.7695 -40.2344 39.8926 -40.9668 40.7715 -42.5781 C 41.8945 -44.9707 43.457 -46.2402 45.752 -46.2402 C 48.291 -46.2402 50 -44.5801 50 -42.1875 C 50 -39.8926 48.4375 -37.8906 45.8008 -37.8906 L 44.7266 -37.8906 C 42.334 -37.8906 40.8203 -36.4258 40.8203 -34.2285 C 40.8203 -31.9336 42.2852 -30.5176 44.7266 -30.5176 L 45.8984 -30.5176 C 48.877 -30.5176 50.7324 -28.7109 50.7324 -26.0254 C 50.7324 -23.6328 48.6816 -21.7285 45.8984 -21.7285 C 43.457 -21.7285 41.4551 -23.0957 40.332 -25.3906 C 39.502 -26.9043 38.3789 -27.7344 36.6699 -27.7344 C 34.8145 -27.7344 33.0566 -26.2695 33.0566 -23.877 C 33.0566 -23.1934 33.1543 -22.5098 33.3984 -21.7285 C 34.5703 -17.5293 39.8438 -13.916 45.8008 -13.916 Z M 76.5137 -21.875 C 73.3887 -21.875 71.582 -26.0254 71.582 -33.8379 C 71.582 -41.6992 73.3887 -45.8496 76.5137 -45.8496 C 79.6387 -45.8496 81.3477 -41.748 81.3477 -33.8379 C 81.3477 -26.0254 79.5898 -21.875 76.5137 -21.875 Z"/>
  </g>
  <g id="Semibold-M" transform="matrix(1 0 0 1 1983.5 1126)">
   <path d="M 59.7656 15.7715 C 87.7441 15.7715 110.791 -7.27539 110.791 -35.2539 C 110.791 -50.4883 103.32 -65.6738 92.041 -74.3164 C 89.0137 -76.9043 85.4492 -76.5625 83.4961 -74.0723 C 81.3477 -71.3867 82.2266 -68.0664 84.7168 -65.6738 C 93.6523 -58.3984 99.3164 -47.6074 99.3652 -35.2539 C 99.3652 -13.3301 81.6895 4.3457 59.7656 4.3457 C 37.8418 4.3457 20.2637 -13.3301 20.2637 -35.2539 C 20.2637 -53.5156 32.4219 -68.7988 49.1699 -73.3887 L 49.1699 -66.3086 C 49.1699 -62.4023 52.2949 -61.2305 55.6152 -63.623 L 72.7539 -75.9277 C 75.4395 -77.8809 75.4395 -80.9082 72.7539 -82.8125 L 55.6152 -95.166 C 52.2949 -97.5586 49.1699 -96.4844 49.1699 -92.4805 L 49.1699 -85.1562 C 26.2207 -80.2246 8.74023 -59.6191 8.74023 -35.2539 C 8.74023 -7.27539 31.7871 15.7715 59.7656 15.7715 Z M 75.7324 -14.209 C 83.5938 -14.209 89.3066 -21.7285 89.3066 -33.9355 C 89.3066 -46.1914 83.5938 -53.7598 75.7324 -53.7598 C 67.8223 -53.7598 62.3047 -46.7285 62.3047 -33.9355 C 62.3047 -21.2402 67.8223 -14.209 75.7324 -14.209 Z M 44.8242 -14.209 C 52.832 -14.209 58.3008 -18.7988 58.3008 -25.6836 C 58.3008 -30.2246 55.5176 -34.082 51.1719 -34.9609 C 54.7363 -35.9863 57.2266 -39.5996 57.2266 -43.5059 C 57.2266 -49.6094 52.2949 -53.7598 45.0195 -53.7598 C 38.9648 -53.7598 34.2285 -50.2441 33.1543 -46.1426 C 32.9102 -45.3613 32.7637 -44.7266 32.7637 -44.043 C 32.7637 -41.9434 34.082 -40.5273 36.0352 -40.5273 C 37.5977 -40.5273 38.623 -41.2598 39.4043 -42.8223 C 40.4785 -45.5078 42.1875 -46.875 44.873 -46.875 C 47.7051 -46.875 49.6582 -45.0684 49.6582 -42.4805 C 49.6582 -39.8926 47.8027 -37.7441 44.873 -37.7441 L 43.4082 -37.7441 C 41.3086 -37.7441 39.9414 -36.4258 39.9414 -34.4238 C 39.9414 -32.373 41.3086 -31.0059 43.4082 -31.0059 L 45.0195 -31.0059 C 48.3887 -31.0059 50.5371 -29.0527 50.5371 -26.0742 C 50.5371 -23.3398 48.1445 -21.2402 44.9219 -21.2402 C 42.0898 -21.2402 39.9414 -22.7051 38.8672 -25.2441 C 38.0859 -26.8066 37.0605 -27.5879 35.498 -27.5879 C 33.7402 -27.5879 32.1777 -26.2207 32.1777 -24.0723 C 32.1777 -23.4375 32.2266 -22.8027 32.4219 -22.1191 C 33.5938 -17.7734 38.8672 -14.209 44.8242 -14.209 Z M 75.8301 -21.4355 C 72.2656 -21.4355 70.1172 -25.9277 70.1172 -33.9355 C 70.1172 -42.041 72.2168 -46.5332 75.8301 -46.5332 C 79.3945 -46.5332 81.4453 -42.0898 81.4453 -33.9355 C 81.4453 -25.9277 79.3457 -21.4355 75.8301 -21.4355 Z"/>
  </g>
  <g id="Medium-M" transform="matrix(1 0 0 1 1687.3 1126)">
   <path d="M 59.2285 15.2832 C 86.9141 15.2832 109.766 -7.56836 109.766 -35.2539 C 109.766 -51.0254 101.904 -65.9668 90.0879 -74.8535 C 87.4512 -77.002 84.2285 -76.6113 82.6172 -74.3164 C 80.8594 -71.9238 81.6406 -69.043 83.8867 -67.041 C 93.5059 -59.668 99.6094 -48.291 99.6582 -35.2539 C 99.707 -12.8418 81.6406 5.17578 59.2285 5.17578 C 36.8164 5.17578 18.8965 -12.8418 18.8965 -35.2539 C 18.8965 -54.1992 31.6895 -69.9707 49.1699 -74.4141 L 49.1699 -67.334 C 49.1699 -63.5742 51.9531 -62.5488 54.9805 -64.7461 L 71.4844 -76.416 C 73.9258 -78.2227 73.9746 -80.957 71.4844 -82.7148 L 55.0293 -94.4336 C 51.9531 -96.6309 49.1699 -95.6543 49.1699 -91.8457 L 49.1699 -84.7168 C 26.2207 -79.9805 8.74023 -59.4727 8.74023 -35.2539 C 8.74023 -7.56836 31.5918 15.2832 59.2285 15.2832 Z M 75.2441 -14.4043 C 83.2031 -14.4043 88.7207 -22.0215 88.7207 -33.9844 C 88.7207 -46.0938 83.2031 -53.7109 75.2441 -53.7109 C 67.2363 -53.7109 61.8164 -46.3867 61.8164 -33.9844 C 61.8164 -21.7285 67.2852 -14.4043 75.2441 -14.4043 Z M 44.0918 -14.4043 C 51.9531 -14.4043 57.4219 -19.043 57.4219 -25.7812 C 57.4219 -30.3223 54.4922 -34.1309 50.1953 -34.9609 C 53.7109 -35.9863 56.25 -39.5996 56.25 -43.5547 C 56.25 -49.6094 51.416 -53.7109 44.3359 -53.7109 C 38.3301 -53.7109 33.4961 -50.293 32.4219 -45.8984 C 32.2266 -45.2148 32.1777 -44.6289 32.1777 -43.9941 C 32.1777 -42.0898 33.3496 -40.7227 35.2051 -40.7227 C 36.6699 -40.7227 37.6465 -41.4551 38.3301 -43.0176 C 39.4043 -45.8984 41.2598 -47.3633 44.1895 -47.3633 C 47.2656 -47.3633 49.3652 -45.459 49.3652 -42.6758 C 49.3652 -39.8438 47.3145 -37.6953 44.1406 -37.6953 L 42.4316 -37.6953 C 40.5273 -37.6953 39.2578 -36.4258 39.2578 -34.5703 C 39.2578 -32.666 40.5273 -31.3965 42.4316 -31.3965 L 44.3359 -31.3965 C 48.0469 -31.3965 50.3418 -29.2969 50.3418 -26.123 C 50.3418 -23.1445 47.7539 -20.8496 44.1406 -20.8496 C 41.0645 -20.8496 38.8184 -22.4121 37.7441 -25.1465 C 37.0117 -26.7578 36.084 -27.4902 34.5703 -27.4902 C 32.9102 -27.4902 31.4941 -26.1719 31.4941 -24.2188 C 31.4941 -23.584 31.543 -22.998 31.7383 -22.3633 C 32.8613 -17.9199 38.0859 -14.4043 44.0918 -14.4043 Z M 75.293 -21.0449 C 71.3867 -21.0449 68.9941 -25.8301 68.9941 -33.9844 C 68.9941 -42.2852 71.3867 -47.0703 75.293 -47.0703 C 79.1992 -47.0703 81.543 -42.334 81.543 -33.9844 C 81.543 -25.8301 79.1504 -21.0449 75.293 -21.0449 Z"/>
  </g>
  <g id="Regular-M" transform="matrix(1 0 0 1 1391.3 1126)">
   <path d="M 58.5449 14.5508 C 85.791 14.5508 108.35 -8.00781 108.35 -35.2539 C 108.35 -51.6602 100.049 -66.4062 87.5 -75.5371 C 85.3516 -77.1973 82.666 -76.6602 81.4453 -74.6582 C 80.2246 -72.6074 80.8594 -70.3125 82.8613 -68.7988 C 93.2617 -61.377 100 -49.1211 100.049 -35.2539 C 100.098 -12.207 81.5918 6.25 58.5449 6.25 C 35.498 6.25 17.0898 -12.207 17.0898 -35.2539 C 17.0898 -55.0293 30.6641 -71.4844 49.1211 -75.6836 L 49.1211 -68.6523 C 49.1211 -65.1855 51.5137 -64.2578 54.1992 -66.1621 L 69.7754 -77.0996 C 71.9727 -78.6133 72.0215 -80.957 69.7754 -82.5684 L 54.248 -93.5059 C 51.5137 -95.459 49.1211 -94.5312 49.1211 -91.0156 L 49.1211 -84.1309 C 26.2695 -79.6875 8.74023 -59.2773 8.74023 -35.2539 C 8.74023 -8.00781 31.3477 14.5508 58.5449 14.5508 Z M 74.6094 -14.6973 C 82.7148 -14.6973 88.0371 -22.3633 88.0371 -34.082 C 88.0371 -45.8984 82.7148 -53.6621 74.6094 -53.6621 C 66.4551 -53.6621 61.1816 -45.9473 61.1816 -34.082 C 61.1816 -22.3633 66.5039 -14.6973 74.6094 -14.6973 Z M 43.1152 -14.6973 C 50.7812 -14.6973 56.25 -19.3359 56.25 -25.9277 C 56.25 -30.4688 53.2227 -34.2285 48.9258 -35.0098 C 52.3926 -35.9863 55.0293 -39.5996 55.0293 -43.7012 C 55.0293 -49.5605 50.2441 -53.6621 43.4082 -53.6621 C 37.5 -53.6621 32.5684 -50.3418 31.543 -45.6055 C 31.3965 -45.0195 31.3477 -44.5312 31.3477 -43.9941 C 31.3477 -42.2363 32.4707 -41.0156 34.1309 -41.0156 C 35.5469 -41.0156 36.4258 -41.748 36.9629 -43.3105 C 37.9395 -46.3867 40.0391 -47.998 43.2617 -47.998 C 46.6797 -47.998 49.0234 -45.9473 49.0234 -42.9688 C 49.0234 -39.8438 46.6797 -37.5488 43.2129 -37.5488 L 41.1133 -37.5488 C 39.502 -37.5488 38.4277 -36.4258 38.4277 -34.7168 C 38.4277 -33.1055 39.5508 -31.8848 41.1133 -31.8848 L 43.4082 -31.8848 C 47.5586 -31.8848 50.1465 -29.5898 50.1465 -26.1719 C 50.1465 -22.8516 47.2168 -20.3125 43.1641 -20.3125 C 39.7461 -20.3125 37.3047 -22.0215 36.2305 -25.0488 C 35.6445 -26.6602 34.7656 -27.3438 33.4473 -27.3438 C 31.7871 -27.3438 30.6152 -26.0742 30.6152 -24.3652 C 30.6152 -23.8281 30.6641 -23.291 30.8105 -22.7539 C 31.8848 -18.1641 37.1094 -14.6973 43.1152 -14.6973 Z M 74.6094 -20.6055 C 70.3125 -20.6055 67.5293 -25.7324 67.5293 -34.082 C 67.5293 -42.5781 70.2637 -47.7539 74.6094 -47.7539 C 78.9551 -47.7539 81.6406 -42.627 81.6406 -34.082 C 81.6406 -25.7324 78.9062 -20.6055 74.6094 -20.6055 Z"/>
  </g>
  <g id="Light-M" transform="matrix(1 0 0 1 1095.42 1126)">
   <path d="M 57.7148 13.7695 C 84.5215 13.7695 106.689 -8.39844 106.689 -35.2051 C 106.689 -52.002 97.9492 -66.9434 84.8145 -75.7324 C 83.1543 -77.002 81.1523 -76.5625 80.2246 -75.0488 C 79.2969 -73.4863 79.7852 -71.7285 81.2988 -70.6055 C 92.7734 -63.0371 100.342 -50.0488 100.391 -35.2051 C 100.391 -11.5723 81.3477 7.4707 57.7148 7.4707 C 34.082 7.4707 15.0879 -11.5723 15.0879 -35.2051 C 15.0879 -55.7617 29.4434 -72.8027 48.7305 -76.9043 L 48.7305 -68.8477 C 48.7305 -66.0156 50.6836 -65.1855 52.9785 -66.7969 L 68.1641 -77.4414 C 70.0684 -78.8086 70.1172 -80.7129 68.1641 -82.0801 L 53.0273 -92.7246 C 50.6836 -94.3359 48.7305 -93.5547 48.7305 -90.6738 L 48.7305 -83.3496 C 26.123 -79.1016 8.74023 -58.9844 8.74023 -35.2051 C 8.74023 -8.39844 30.9082 13.7695 57.7148 13.7695 Z M 74.1699 -14.8926 C 82.1777 -14.8926 87.5 -22.5586 87.5 -34.2773 C 87.5 -46.0449 82.1777 -53.8086 74.1699 -53.8086 C 66.0645 -53.8086 60.791 -46.0449 60.791 -34.2773 C 60.791 -22.5586 66.1133 -14.8926 74.1699 -14.8926 Z M 42.0898 -14.8926 C 49.707 -14.8926 55.127 -19.4336 55.127 -25.9277 C 55.127 -30.6152 51.7578 -34.4727 47.168 -35.1562 C 50.9277 -35.9863 53.8574 -39.6973 53.8574 -43.9941 C 53.8574 -49.707 49.0723 -53.8086 42.2852 -53.8086 C 36.4746 -53.8086 31.6895 -50.5371 30.6641 -45.8984 C 30.5176 -45.3613 30.4688 -44.873 30.4688 -44.4336 C 30.4688 -43.0176 31.3477 -42.041 32.7148 -42.041 C 33.9355 -42.041 34.668 -42.627 35.0586 -43.8965 C 35.8887 -47.3145 38.4766 -49.3164 42.1875 -49.3164 C 46.2402 -49.3164 49.0234 -46.875 49.0234 -43.4082 C 49.0234 -39.8926 46.1426 -37.207 42.2363 -37.207 L 39.6484 -37.207 C 38.2812 -37.207 37.4023 -36.2793 37.4023 -34.9121 C 37.4023 -33.5938 38.3301 -32.666 39.6484 -32.666 L 42.4805 -32.666 C 47.0703 -32.666 50.1953 -29.9316 50.1953 -26.123 C 50.1953 -22.2168 46.8262 -19.3848 42.1387 -19.3848 C 38.2324 -19.3848 35.3027 -21.3867 34.2773 -24.707 C 33.8379 -26.0742 33.1543 -26.6602 31.9824 -26.6602 C 30.6641 -26.6602 29.6875 -25.6348 29.6875 -24.2188 C 29.6875 -23.7793 29.7363 -23.3398 29.8828 -22.7539 C 31.0547 -18.2617 36.084 -14.8926 42.0898 -14.8926 Z M 74.1699 -19.5801 C 69.0918 -19.5801 65.8203 -25.293 65.8203 -34.2773 C 65.8203 -43.3594 69.0918 -49.1211 74.1699 -49.1211 C 79.1992 -49.1211 82.4219 -43.3594 82.4219 -34.2773 C 82.4219 -25.293 79.1504 -19.5801 74.1699 -19.5801 Z"/>
  </g>
  <g id="Thin-M" transform="matrix(1 0 0 1 799.806 1126)">
   <path d="M 56.6406 12.7441 C 82.9102 12.7441 104.492 -8.83789 104.492 -35.1562 C 104.492 -52.4414 95.166 -67.627 81.25 -76.0742 C 80.2734 -76.7578 79.1016 -76.4648 78.6133 -75.5859 C 78.125 -74.6582 78.3691 -73.584 79.2969 -72.998 C 92.1875 -65.2344 100.781 -51.2207 100.781 -35.1562 C 100.781 -10.791 81.0059 8.98438 56.6406 8.98438 C 32.2266 8.98438 12.4512 -10.791 12.4512 -35.1562 C 12.4512 -56.6895 27.8809 -74.6094 48.2422 -78.5156 L 48.2422 -69.0918 C 48.2422 -67.1387 49.6094 -66.4551 51.3672 -67.6758 L 66.0645 -77.9785 C 67.5293 -79.0039 67.5293 -80.3711 66.0645 -81.3965 L 51.3672 -91.6504 C 49.6094 -92.9199 48.2422 -92.2363 48.2422 -90.2344 L 48.2422 -82.2754 C 25.8789 -78.3203 8.74023 -58.5938 8.74023 -35.1562 C 8.74023 -8.83789 30.3223 12.7441 56.6406 12.7441 Z M 73.5352 -15.0879 C 81.4453 -15.0879 86.7676 -22.8027 86.7676 -34.5215 C 86.7676 -46.1914 81.4453 -54.0039 73.5352 -54.0039 C 65.5762 -54.0039 60.2051 -46.2402 60.2051 -34.5215 C 60.2051 -22.8027 65.5762 -15.0879 73.5352 -15.0879 Z M 40.7227 -15.0879 C 48.2422 -15.0879 53.6133 -19.6289 53.6133 -25.9766 C 53.6133 -30.8105 49.9023 -34.7656 44.9707 -35.3027 L 44.9707 -35.3516 C 49.1211 -36.1328 52.2949 -39.8926 52.2949 -44.4336 C 52.2949 -49.9512 47.5586 -54.0039 40.7715 -54.0039 C 35.1074 -54.0039 30.4688 -50.7812 29.4922 -46.2891 C 29.3457 -45.752 29.3457 -45.3125 29.3457 -45.0195 C 29.3457 -44.043 29.9316 -43.4082 30.8594 -43.4082 C 31.7871 -43.4082 32.3242 -43.7988 32.5195 -44.7266 C 33.1543 -48.4863 36.4258 -50.9766 40.7715 -50.9766 C 45.6055 -50.9766 48.9746 -48.0957 48.9746 -44.043 C 48.9746 -39.8926 45.5078 -36.6699 40.9668 -36.6699 L 37.6465 -36.6699 C 36.7188 -36.6699 36.084 -36.084 36.084 -35.2051 C 36.084 -34.2773 36.7188 -33.6426 37.6465 -33.6426 L 41.2598 -33.6426 C 46.4355 -33.6426 50.293 -30.3711 50.293 -26.0742 C 50.293 -21.3867 46.3379 -18.1152 40.7227 -18.1152 C 36.2793 -18.1152 32.6172 -20.6055 31.6895 -24.3164 C 31.4453 -25.293 31.0059 -25.7324 30.0781 -25.7324 C 29.1504 -25.7324 28.5156 -25 28.5156 -24.0723 C 28.5156 -23.6816 28.5156 -23.3398 28.7109 -22.7539 C 29.9316 -18.3105 34.7656 -15.0879 40.7227 -15.0879 Z M 73.5352 -18.2129 C 67.5781 -18.2129 63.5254 -24.7559 63.5254 -34.5215 C 63.5254 -44.3359 67.5293 -50.8789 73.5352 -50.8789 C 79.4922 -50.8789 83.4473 -44.3359 83.4473 -34.5215 C 83.4473 -24.7559 79.4434 -18.2129 73.5352 -18.2129 Z"/>
  </g>
  <g id="Ultralight-M" transform="matrix(1 0 0 1 503.656 1126)">
   <path d="M 56.0547 12.207 C 82.0801 12.207 103.369 -9.08203 103.369 -35.1562 C 103.369 -52.6855 93.75 -68.0176 79.4434 -76.2207 C 78.8086 -76.6113 78.0762 -76.3672 77.7832 -75.8789 C 77.4902 -75.2441 77.6855 -74.5605 78.2715 -74.1699 C 91.8457 -66.4062 100.977 -51.8066 100.977 -35.1562 C 100.977 -10.3516 80.8594 9.81445 56.0547 9.81445 C 31.2988 9.81445 11.1328 -10.3516 11.1328 -35.1562 C 11.1328 -57.1289 27.0508 -75.5371 47.998 -79.3457 L 47.998 -69.2383 C 47.998 -67.7246 49.0723 -67.0898 50.5371 -68.1641 L 64.9902 -78.2227 C 66.2109 -79.1016 66.2109 -80.1758 64.9902 -81.0547 L 50.5371 -91.1133 C 49.0723 -92.1875 47.998 -91.5527 47.998 -90.0391 L 47.998 -81.7383 C 25.7812 -77.8809 8.74023 -58.3984 8.74023 -35.1562 C 8.74023 -9.08203 30.0293 12.207 56.0547 12.207 Z M 73.2422 -15.1855 C 81.0547 -15.1855 86.4258 -22.9492 86.4258 -34.668 C 86.4258 -46.2891 81.0547 -54.1016 73.2422 -54.1016 C 65.332 -54.1016 59.9609 -46.2891 59.9609 -34.668 C 59.9609 -22.9492 65.332 -15.1855 73.2422 -15.1855 Z M 40.0391 -15.1855 C 47.5098 -15.1855 52.8809 -19.6777 52.8809 -25.9766 C 52.8809 -30.8594 48.9746 -34.8145 43.9941 -35.3027 L 43.9941 -35.498 C 48.2422 -36.3281 51.5137 -40.0879 51.5137 -44.6289 C 51.5137 -50.0488 46.7773 -54.1016 40.0391 -54.1016 C 34.4238 -54.1016 29.8828 -50.9277 28.9062 -46.4844 C 28.7598 -45.9473 28.7598 -45.5566 28.7598 -45.3125 C 28.7598 -44.5801 29.1992 -44.0918 29.9316 -44.0918 C 30.7129 -44.0918 31.1523 -44.4336 31.2012 -45.166 C 31.7383 -49.0723 35.4004 -51.8555 40.0391 -51.8555 C 45.3125 -51.8555 48.9258 -48.7305 48.9258 -44.3359 C 48.9258 -39.9414 45.166 -36.4258 40.2832 -36.4258 L 36.6211 -36.4258 C 35.8887 -36.4258 35.4004 -35.9863 35.4004 -35.3516 C 35.4004 -34.6191 35.8887 -34.1797 36.6211 -34.1797 L 40.5762 -34.1797 C 46.0938 -34.1797 50.293 -30.6152 50.293 -26.0254 C 50.293 -20.9473 46.0938 -17.4316 40.0391 -17.4316 C 35.2539 -17.4316 31.25 -20.2148 30.3711 -24.0723 C 30.2246 -24.9023 29.8828 -25.2441 29.1016 -25.2441 C 28.3691 -25.2441 27.8809 -24.707 27.8809 -23.9746 C 27.8809 -23.6816 27.8809 -23.3398 28.0762 -22.7539 C 29.3945 -18.3594 34.0332 -15.1855 40.0391 -15.1855 Z M 73.2422 -17.4805 C 66.748 -17.4805 62.3535 -24.4629 62.3535 -34.668 C 62.3535 -44.8242 66.748 -51.8066 73.2422 -51.8066 C 79.6387 -51.8066 84.0332 -44.8242 84.0332 -34.668 C 84.0332 -24.4629 79.6387 -17.4805 73.2422 -17.4805 Z"/>
  </g>
  <g id="Black-S" transform="matrix(1 0 0 1 2884.57 696)">
   <path d="M 48.8281 6.73828 C 71.9727 6.73828 90.8203 -12.1094 90.8203 -35.2539 C 90.8203 -45.2637 86.2305 -57.8125 79.4922 -63.916 C 75.6836 -67.3828 71.5332 -67.5293 68.75 -64.7461 C 65.5762 -61.5723 66.6016 -57.2754 69.4336 -53.9551 C 74.0723 -48.4863 76.6602 -42.4805 76.6602 -35.2539 C 76.6602 -19.873 64.209 -7.42188 48.8281 -7.42188 C 33.4473 -7.42188 20.9961 -19.873 20.9961 -35.2539 C 20.9961 -47.0703 28.2715 -57.0801 38.623 -61.1816 L 38.623 -55.8105 C 38.623 -51.9531 42.2363 -50.6836 45.8496 -53.3691 L 61.9141 -65.2832 C 64.7461 -67.3828 64.6484 -70.8984 61.9141 -72.9492 L 45.8496 -84.9121 C 42.2852 -87.5488 38.623 -86.4258 38.623 -82.4707 L 38.623 -75.9766 C 20.3613 -71.4355 6.83594 -54.8828 6.83594 -35.2539 C 6.83594 -12.1094 25.6836 6.73828 48.8281 6.73828 Z M 61.1328 -17.9688 C 66.9434 -17.9688 72.0215 -23.5352 72.0215 -33.9355 C 72.0215 -44.3359 66.9434 -49.9023 61.1328 -49.9023 C 55.3223 -49.9023 50.5859 -45.459 50.5859 -33.9355 C 50.5859 -22.4121 55.3223 -17.9688 61.1328 -17.9688 Z M 37.8906 -17.9688 C 44.6777 -17.9688 48.9746 -21.5332 48.9746 -27.3438 C 48.9746 -30.9082 47.1191 -34.1309 43.75 -34.9121 C 46.7285 -35.8398 48.3887 -38.6719 48.3887 -41.4062 C 48.3887 -46.6309 44.2871 -49.9023 37.8906 -49.9023 C 32.9102 -49.9023 29.541 -46.875 28.6133 -44.6289 C 28.2227 -43.7012 28.0273 -43.0176 28.0273 -42.2363 C 28.0273 -39.9902 29.2969 -38.5742 31.3477 -38.5742 C 32.7637 -38.5742 33.8867 -39.1602 34.8145 -40.4297 C 35.791 -41.7969 36.6211 -42.5293 37.7441 -42.5293 C 39.0137 -42.5293 39.8926 -41.5039 39.8926 -40.0879 C 39.8926 -38.916 39.2578 -37.5488 37.793 -37.5488 L 37.7441 -37.5488 C 35.3027 -37.5488 33.7891 -36.1816 33.7891 -34.0332 C 33.7891 -31.7383 35.2051 -30.4688 37.7441 -30.4688 L 37.793 -30.4688 C 39.2578 -30.4688 40.1367 -29.4434 40.1367 -27.8809 C 40.1367 -26.7578 39.2578 -25.7324 38.0371 -25.7324 C 36.8164 -25.7324 35.5957 -26.5625 34.668 -27.7832 C 33.8379 -28.9062 32.7637 -29.6387 31.1523 -29.6387 C 29.541 -29.6387 27.7344 -28.3691 27.7344 -25.9766 C 27.7344 -25.3418 27.832 -24.6582 28.0762 -23.9258 C 29.1016 -20.8496 33.252 -17.9688 37.8906 -17.9688 Z M 61.3281 -25.7812 C 59.8145 -25.7812 59.1309 -28.2227 59.1309 -33.9355 C 59.1309 -39.6484 59.8145 -42.0898 61.3281 -42.0898 C 62.8418 -42.0898 63.5254 -39.6484 63.5254 -33.9355 C 63.5254 -28.2227 62.8418 -25.7812 61.3281 -25.7812 Z"/>
  </g>
  <g id="Heavy-S" transform="matrix(1 0 0 1 2588.47 696)">
   <path d="M 48.2422 6.15234 C 70.9961 6.15234 89.5996 -12.5 89.5996 -35.2539 C 89.5996 -45.8984 84.6191 -58.2031 77.1973 -64.5508 C 73.8281 -67.5781 70.1172 -67.5781 67.7246 -65.0391 C 65.0391 -62.1582 65.9668 -58.3984 68.5547 -55.5176 C 73.877 -50 77.002 -43.2617 77.0508 -35.2539 C 77.0508 -19.2871 64.1602 -6.44531 48.2422 -6.44531 C 32.2754 -6.44531 19.4336 -19.2871 19.4336 -35.2539 C 19.4336 -47.8516 27.3926 -58.4961 38.623 -62.4512 L 38.623 -57.1289 C 38.623 -53.4668 41.8945 -52.2949 45.166 -54.7363 L 60.4004 -65.8691 C 62.9883 -67.8223 62.9395 -70.9473 60.4004 -72.8516 L 45.2148 -84.0332 C 41.9434 -86.4746 38.623 -85.4004 38.623 -81.6895 L 38.623 -75.5371 C 20.459 -71.1426 6.83594 -54.7363 6.83594 -35.2539 C 6.83594 -12.5 25.4395 6.15234 48.2422 6.15234 Z M 60.5469 -18.2129 C 66.5039 -18.2129 71.3379 -23.877 71.3379 -34.0332 C 71.3379 -44.1406 66.5039 -49.8047 60.5469 -49.8047 C 54.5898 -49.8047 50 -45.0195 50 -34.0332 C 50 -23.0469 54.5898 -18.2129 60.5469 -18.2129 Z M 37.0117 -18.2129 C 43.6523 -18.2129 47.9492 -21.8262 47.9492 -27.4902 C 47.9492 -31.0059 45.9961 -34.1797 42.627 -34.9121 C 45.5566 -35.8398 47.2656 -38.6719 47.2656 -41.4551 C 47.2656 -46.582 43.2617 -49.8047 37.1094 -49.8047 C 32.1777 -49.8047 28.7109 -46.875 27.7832 -44.2871 C 27.4414 -43.5059 27.2949 -42.8711 27.2949 -42.1387 C 27.2949 -40.0879 28.5156 -38.7207 30.4199 -38.7207 C 31.7871 -38.7207 32.8125 -39.3555 33.6426 -40.625 C 34.6191 -42.1875 35.5469 -43.0176 36.9629 -43.0176 C 38.4766 -43.0176 39.5508 -41.8945 39.5508 -40.332 C 39.5508 -38.916 38.6719 -37.5 36.9629 -37.5 L 36.6211 -37.5 C 34.4238 -37.5 33.0078 -36.1816 33.0078 -34.1797 C 33.0078 -32.1289 34.3262 -30.9082 36.6211 -30.9082 L 37.0117 -30.9082 C 38.8184 -30.9082 39.9414 -29.7363 39.9414 -27.9297 C 39.9414 -26.5625 38.7695 -25.3418 37.1582 -25.3418 C 35.6445 -25.3418 34.3262 -26.2207 33.3984 -27.6855 C 32.666 -28.9062 31.6406 -29.5898 30.127 -29.5898 C 28.5645 -29.5898 26.9531 -28.3691 26.9531 -26.1719 C 26.9531 -25.5859 27.0508 -24.9512 27.2461 -24.2676 C 28.2227 -21.0938 32.373 -18.2129 37.0117 -18.2129 Z M 60.6934 -25.4395 C 58.8379 -25.4395 57.8613 -28.1738 57.8613 -34.0332 C 57.8613 -39.8926 58.8379 -42.627 60.6934 -42.627 C 62.5977 -42.627 63.5254 -39.8926 63.5254 -34.0332 C 63.5254 -28.1738 62.5977 -25.4395 60.6934 -25.4395 Z"/>
  </g>
  <g id="Bold-S" transform="matrix(1 0 0 1 2292.44 696)">
   <path d="M 47.5586 5.46875 C 69.873 5.46875 88.2324 -12.9395 88.2324 -35.2539 C 88.2324 -46.6309 82.8125 -58.5938 74.6582 -65.2832 C 71.8262 -67.7734 68.5059 -67.627 66.6016 -65.332 C 64.4531 -62.8418 65.2344 -59.668 67.5293 -57.3242 C 73.6816 -51.709 77.4414 -44.0918 77.4414 -35.2539 C 77.4414 -18.7012 64.1113 -5.37109 47.5586 -5.37109 C 30.957 -5.37109 17.6758 -18.7012 17.6758 -35.2539 C 17.6758 -48.7305 26.4648 -60.0586 38.623 -63.8184 L 38.623 -58.5449 C 38.623 -55.127 41.5039 -54.1016 44.4336 -56.25 L 58.6426 -66.5527 C 61.0352 -68.2617 60.9863 -71.0449 58.6426 -72.7539 L 44.4824 -83.1055 C 41.5039 -85.2539 38.623 -84.2773 38.623 -80.7617 L 38.623 -74.9512 C 20.5078 -70.8496 6.83594 -54.541 6.83594 -35.2539 C 6.83594 -12.9395 25.1953 5.46875 47.5586 5.46875 Z M 59.9121 -18.5059 C 66.0156 -18.5059 70.6055 -24.3164 70.6055 -34.082 C 70.6055 -43.9453 66.0156 -49.7559 59.9121 -49.7559 C 53.7598 -49.7559 49.3652 -44.5312 49.3652 -34.082 C 49.3652 -23.7305 53.8086 -18.5059 59.9121 -18.5059 Z M 36.084 -18.5059 C 42.4805 -18.5059 46.7773 -22.1191 46.7773 -27.6367 C 46.7773 -31.1523 44.7754 -34.2285 41.4551 -34.9609 C 44.2383 -35.8398 46.0449 -38.623 46.0449 -41.5527 C 46.0449 -46.4844 42.0898 -49.7559 36.2305 -49.7559 C 31.3965 -49.7559 27.7344 -46.9238 26.8555 -43.8965 C 26.6113 -43.2129 26.5137 -42.6758 26.5137 -42.041 C 26.5137 -40.1855 27.6367 -38.916 29.3945 -38.916 C 30.6641 -38.916 31.6406 -39.502 32.3242 -40.8203 C 33.252 -42.6758 34.375 -43.6035 36.084 -43.6035 C 37.8906 -43.6035 39.1602 -42.334 39.1602 -40.5762 C 39.1602 -38.8672 38.0371 -37.4023 36.0352 -37.4023 L 35.3516 -37.4023 C 33.3984 -37.4023 32.1777 -36.2305 32.1777 -34.375 C 32.1777 -32.5195 33.3984 -31.3477 35.3516 -31.3477 L 36.1328 -31.3477 C 38.3789 -31.3477 39.6973 -30.0781 39.6973 -28.0273 C 39.6973 -26.3184 38.1836 -24.8535 36.1816 -24.8535 C 34.3262 -24.8535 32.9102 -25.8789 31.9824 -27.5879 C 31.2988 -28.8574 30.3711 -29.4922 29.0039 -29.4922 C 27.4902 -29.4922 26.0742 -28.3203 26.0742 -26.3672 C 26.0742 -25.8301 26.1719 -25.293 26.3184 -24.707 C 27.2461 -21.3379 31.3965 -18.5059 36.084 -18.5059 Z M 60.0098 -25 C 57.7148 -25 56.4453 -28.125 56.4453 -34.082 C 56.4453 -40.1367 57.7148 -43.2617 60.0098 -43.2617 C 62.3047 -43.2617 63.5254 -40.1855 63.5254 -34.082 C 63.5254 -28.125 62.2559 -25 60.0098 -25 Z"/>
  </g>
  <g id="Semibold-S" transform="matrix(1 0 0 1 1996.2 696)">
   <path d="M 47.0703 4.98047 C 69.0918 4.98047 87.3047 -13.2324 87.3047 -35.2539 C 87.3047 -47.1191 81.5918 -58.8867 72.9004 -65.8203 C 70.4102 -67.9199 67.4316 -67.6758 65.7715 -65.5762 C 64.0137 -63.2812 64.7461 -60.498 66.8457 -58.5449 C 73.5352 -52.8809 77.6855 -44.6777 77.7344 -35.2539 C 77.7344 -18.2617 64.0625 -4.58984 47.0703 -4.58984 C 30.0781 -4.58984 16.4551 -18.2617 16.4551 -35.2539 C 16.4551 -49.3652 25.7812 -61.1328 38.6719 -64.7461 L 38.6719 -59.5703 C 38.6719 -56.25 41.2109 -55.3223 43.9453 -57.3242 L 57.4707 -67.041 C 59.668 -68.6035 59.668 -71.0938 57.4707 -72.7051 L 43.9453 -82.4219 C 41.2109 -84.4238 38.6719 -83.5449 38.6719 -80.1758 L 38.6719 -74.6094 C 20.5566 -70.6543 6.83594 -54.3945 6.83594 -35.2539 C 6.83594 -13.2324 25.0488 4.98047 47.0703 4.98047 Z M 59.4727 -18.7012 C 65.6738 -18.7012 70.1172 -24.6094 70.1172 -34.1309 C 70.1172 -43.7988 65.6738 -49.707 59.4727 -49.707 C 53.2227 -49.707 48.9258 -44.1895 48.9258 -34.1309 C 48.9258 -24.2188 53.2715 -18.7012 59.4727 -18.7012 Z M 35.4004 -18.7012 C 41.6992 -18.7012 45.9961 -22.3633 45.9961 -27.7344 C 45.9961 -31.25 43.8965 -34.2285 40.5762 -34.9609 C 43.3105 -35.791 45.166 -38.623 45.166 -41.6016 C 45.166 -46.4355 41.3086 -49.707 35.5957 -49.707 C 30.8594 -49.707 27.0996 -46.9238 26.2207 -43.6523 C 26.0254 -43.0664 25.9277 -42.5781 25.9277 -41.9922 C 25.9277 -40.2344 27.002 -39.0625 28.6621 -39.0625 C 29.9316 -39.0625 30.8105 -39.6484 31.4453 -41.0156 C 32.3242 -42.9688 33.5449 -43.9453 35.4492 -43.9453 C 37.5 -43.9453 38.8672 -42.627 38.8672 -40.7715 C 38.8672 -38.8672 37.5977 -37.3535 35.4492 -37.3535 L 34.4727 -37.3535 C 32.7148 -37.3535 31.5918 -36.2305 31.5918 -34.5215 C 31.5918 -32.8125 32.7148 -31.6895 34.4727 -31.6895 L 35.5469 -31.6895 C 38.0371 -31.6895 39.5508 -30.2734 39.5508 -28.0762 C 39.5508 -26.123 37.8418 -24.5605 35.498 -24.5605 C 33.4473 -24.5605 31.9336 -25.5859 31.0547 -27.5391 C 30.3711 -28.8574 29.541 -29.4434 28.2227 -29.4434 C 26.7578 -29.4434 25.4883 -28.3203 25.4883 -26.5137 C 25.4883 -26.0254 25.5371 -25.4883 25.6836 -24.9512 C 26.5625 -21.5332 30.7617 -18.7012 35.4004 -18.7012 Z M 59.5215 -24.7559 C 56.9824 -24.7559 55.4688 -28.0762 55.4688 -34.1309 C 55.4688 -40.332 56.9336 -43.6523 59.5215 -43.6523 C 62.1094 -43.6523 63.5254 -40.3809 63.5254 -34.1309 C 63.5254 -28.0762 62.0605 -24.7559 59.5215 -24.7559 Z"/>
  </g>
  <g id="Medium-S" transform="matrix(1 0 0 1 1699.83 696)">
   <path d="M 46.7285 4.63867 C 68.5547 4.63867 86.6211 -13.4277 86.6211 -35.2539 C 86.6211 -47.4609 80.6152 -59.1309 71.582 -66.2109 C 69.3359 -68.0176 66.5527 -67.6758 65.1855 -65.7227 C 63.7207 -63.623 64.3555 -61.1816 66.3086 -59.4727 C 73.3887 -53.7598 77.8809 -45.1172 77.9297 -35.2539 C 77.9785 -17.9199 64.0625 -4.05273 46.7285 -4.05273 C 29.3945 -4.05273 15.5273 -17.9199 15.5273 -35.2539 C 15.5273 -49.8047 25.293 -61.9141 38.6719 -65.4297 L 38.6719 -60.3027 C 38.6719 -57.1289 41.0156 -56.2988 43.5547 -58.1055 L 56.5918 -67.3828 C 58.6426 -68.8477 58.6914 -71.1426 56.5918 -72.6562 L 43.5547 -81.9336 C 41.0156 -83.7891 38.6719 -82.959 38.6719 -79.6875 L 38.6719 -74.3164 C 20.6055 -70.5078 6.83594 -54.2969 6.83594 -35.2539 C 6.83594 -13.4277 24.9023 4.63867 46.7285 4.63867 Z M 59.1309 -18.8477 C 65.3809 -18.8477 69.7266 -24.8047 69.7266 -34.1797 C 69.7266 -43.6523 65.3809 -49.6582 59.1309 -49.6582 C 52.7832 -49.6582 48.584 -43.8965 48.584 -34.1797 C 48.584 -24.6094 52.832 -18.8477 59.1309 -18.8477 Z M 34.9121 -18.8477 C 41.1133 -18.8477 45.4102 -22.5098 45.4102 -27.832 C 45.4102 -31.3477 43.2617 -34.2773 39.9902 -34.9609 C 42.627 -35.791 44.5312 -38.623 44.5312 -41.6504 C 44.5312 -46.4355 40.6738 -49.6582 35.1562 -49.6582 C 30.4199 -49.6582 26.5625 -46.9238 25.7324 -43.457 C 25.5859 -42.9199 25.5371 -42.4805 25.5371 -41.9434 C 25.5371 -40.2832 26.5625 -39.1602 28.125 -39.1602 C 29.3457 -39.1602 30.1758 -39.7461 30.7617 -41.1133 C 31.6406 -43.2129 32.9102 -44.2383 35.0098 -44.2383 C 37.207 -44.2383 38.6719 -42.8711 38.6719 -40.918 C 38.6719 -38.8184 37.2559 -37.3047 34.9609 -37.3047 L 33.7891 -37.3047 C 32.1777 -37.3047 31.1523 -36.2305 31.1523 -34.6191 C 31.1523 -33.0566 32.2266 -31.9336 33.7891 -31.9336 L 35.0586 -31.9336 C 37.793 -31.9336 39.4043 -30.4688 39.4043 -28.125 C 39.4043 -25.9766 37.5488 -24.3164 34.9609 -24.3164 C 32.7637 -24.3164 31.1523 -25.3906 30.2734 -27.4414 C 29.6875 -28.8086 28.8574 -29.4434 27.6367 -29.4434 C 26.1719 -29.4434 25 -28.3203 25 -26.6602 C 25 -26.123 25.0488 -25.6836 25.1953 -25.1465 C 26.0254 -21.6797 30.2246 -18.8477 34.9121 -18.8477 Z M 59.1309 -24.5117 C 56.3965 -24.5117 54.6875 -28.0273 54.6875 -34.1797 C 54.6875 -40.4785 56.3477 -43.9941 59.1309 -43.9941 C 61.9629 -43.9941 63.5254 -40.4785 63.5254 -34.1797 C 63.5254 -28.0273 61.9141 -24.5117 59.1309 -24.5117 Z"/>
  </g>
  <g id="Regular-S" transform="matrix(1 0 0 1 1403.58 696)">
   <path d="M 46.2402 4.15039 C 67.7734 4.15039 85.6934 -13.7207 85.6934 -35.2539 C 85.6934 -47.9492 79.3945 -59.4238 69.8242 -66.6992 C 67.9199 -68.1641 65.4785 -67.7246 64.4043 -65.918 C 63.2812 -64.1113 63.8672 -62.0117 65.625 -60.6934 C 73.291 -54.8828 78.1738 -45.7031 78.2227 -35.2539 C 78.2715 -17.4805 64.0137 -3.27148 46.2402 -3.27148 C 28.5156 -3.27148 14.3555 -17.4805 14.3555 -35.2539 C 14.3555 -50.3906 24.6094 -62.9883 38.6719 -66.3086 L 38.6719 -61.3281 C 38.6719 -58.3008 40.7227 -57.5195 43.0176 -59.1309 L 55.4199 -67.8223 C 57.3242 -69.1406 57.373 -71.1914 55.4199 -72.5586 L 43.0664 -81.25 C 40.7227 -82.959 38.6719 -82.1777 38.6719 -79.1016 L 38.6719 -73.9258 C 20.6543 -70.3125 6.83594 -54.1992 6.83594 -35.2539 C 6.83594 -13.7207 24.7559 4.15039 46.2402 4.15039 Z M 58.6914 -19.0918 C 65.0391 -19.0918 69.1895 -25.0977 69.1895 -34.2773 C 69.1895 -43.5059 65.0391 -49.5605 58.6914 -49.5605 C 52.2461 -49.5605 48.1445 -43.5547 48.1445 -34.2773 C 48.1445 -25.0977 52.2949 -19.0918 58.6914 -19.0918 Z M 34.2773 -19.0918 C 40.332 -19.0918 44.5801 -22.7051 44.5801 -27.9297 C 44.5801 -31.3965 42.3828 -34.3262 39.1602 -35.0098 C 41.6992 -35.791 43.6523 -38.5742 43.6523 -41.6992 C 43.6523 -46.3867 39.8926 -49.5605 34.5215 -49.5605 C 29.8828 -49.5605 25.9277 -46.9727 25.0977 -43.2129 C 25 -42.7734 24.9512 -42.334 24.9512 -41.8457 C 24.9512 -40.332 25.9766 -39.2578 27.4414 -39.2578 C 28.6133 -39.2578 29.3457 -39.8926 29.8828 -41.2598 C 30.7129 -43.5547 32.0801 -44.6289 34.4238 -44.6289 C 36.8164 -44.6289 38.4277 -43.1641 38.4277 -41.0645 C 38.4277 -38.8184 36.7676 -37.2559 34.3262 -37.2559 L 32.9102 -37.2559 C 31.4941 -37.2559 30.5664 -36.2793 30.5664 -34.7656 C 30.5664 -33.3496 31.543 -32.2266 32.9102 -32.2266 L 34.4727 -32.2266 C 37.4512 -32.2266 39.2578 -30.6641 39.2578 -28.1738 C 39.2578 -25.8301 37.1582 -24.0234 34.3262 -24.0234 C 31.8359 -24.0234 30.2246 -25.1465 29.3457 -27.3926 C 28.7598 -28.8086 28.0273 -29.3945 26.8555 -29.3945 C 25.4395 -29.3945 24.4141 -28.3203 24.4141 -26.8066 C 24.4141 -26.3184 24.4629 -25.8789 24.5605 -25.4395 C 25.3418 -21.8262 29.5898 -19.0918 34.2773 -19.0918 Z M 58.6914 -24.2676 C 55.6152 -24.2676 53.7598 -28.0273 53.7598 -34.2773 C 53.7598 -40.625 55.5664 -44.3848 58.6914 -44.3848 C 61.7676 -44.3848 63.5742 -40.6738 63.5742 -34.2773 C 63.5742 -28.0273 61.7188 -24.2676 58.6914 -24.2676 Z"/>
  </g>
  <g id="Light-S" transform="matrix(1 0 0 1 1107.6 696)">
   <path d="M 45.5078 3.4668 C 66.6992 3.4668 84.2285 -14.0625 84.2285 -35.2051 C 84.2285 -48.2422 77.5391 -59.8633 67.4805 -66.8945 C 65.9668 -68.0176 64.1602 -67.627 63.3301 -66.2598 C 62.5 -64.8926 62.8906 -63.2812 64.3066 -62.2559 C 72.8516 -56.3965 78.4668 -46.4844 78.5156 -35.2051 C 78.5156 -16.9434 63.8184 -2.24609 45.5078 -2.24609 C 27.2461 -2.24609 12.5977 -16.9434 12.5977 -35.2051 C 12.5977 -51.0254 23.5352 -64.1602 38.3301 -67.4316 L 38.3301 -61.4746 C 38.3301 -59.0332 40.0391 -58.3496 41.9434 -59.7168 L 54.0039 -68.1641 C 55.6152 -69.2871 55.6641 -70.9473 54.0039 -72.1191 L 41.9922 -80.5664 C 40.0391 -81.9824 38.3301 -81.2988 38.3301 -78.8086 L 38.3301 -73.2422 C 20.5078 -69.8242 6.83594 -53.9551 6.83594 -35.2051 C 6.83594 -14.0625 24.3652 3.4668 45.5078 3.4668 Z M 58.252 -19.2383 C 64.5508 -19.2383 68.75 -25.2441 68.75 -34.4238 C 68.75 -43.6523 64.5508 -49.707 58.252 -49.707 C 51.9043 -49.707 47.7539 -43.6523 47.7539 -34.4238 C 47.7539 -25.2441 51.9531 -19.2383 58.252 -19.2383 Z M 33.3496 -19.2383 C 39.3555 -19.2383 43.6035 -22.8027 43.6035 -27.9297 C 43.6035 -31.543 41.1133 -34.5215 37.5977 -35.1074 C 40.4297 -35.8398 42.627 -38.6719 42.627 -41.9922 C 42.627 -46.5332 38.8672 -49.707 33.5449 -49.707 C 28.9551 -49.707 25.1465 -47.1191 24.3164 -43.457 C 24.2188 -43.0176 24.2188 -42.627 24.2188 -42.2852 C 24.2188 -41.0645 25 -40.1855 26.1719 -40.1855 C 27.1973 -40.1855 27.832 -40.6738 28.1738 -41.7969 C 28.9062 -44.3359 30.7129 -45.752 33.4473 -45.752 C 36.377 -45.752 38.3789 -43.9941 38.3789 -41.5039 C 38.3789 -38.8672 36.3281 -36.9141 33.4473 -36.9141 L 31.5918 -36.9141 C 30.4688 -36.9141 29.6875 -36.1328 29.6875 -34.9121 C 29.6875 -33.7891 30.4688 -32.9102 31.5918 -32.9102 L 33.6426 -32.9102 C 37.0605 -32.9102 39.3066 -30.957 39.3066 -28.125 C 39.3066 -25.293 36.8164 -23.1934 33.3984 -23.1934 C 30.5176 -23.1934 28.418 -24.6094 27.5879 -27.0996 C 27.1973 -28.2715 26.5625 -28.7598 25.5859 -28.7598 C 24.4629 -28.7598 23.6328 -27.8809 23.6328 -26.6602 C 23.6328 -26.2695 23.6328 -25.8789 23.7793 -25.4395 C 24.6094 -21.875 28.6621 -19.2383 33.3496 -19.2383 Z M 58.252 -23.3398 C 54.5898 -23.3398 52.1973 -27.6367 52.1973 -34.4238 C 52.1973 -41.3086 54.541 -45.6055 58.252 -45.6055 C 61.9629 -45.6055 64.2578 -41.3574 64.2578 -34.4238 C 64.2578 -27.6367 61.9141 -23.3398 58.252 -23.3398 Z"/>
  </g>
  <g id="Thin-S" transform="matrix(1 0 0 1 811.867 696)">
   <path d="M 44.5801 2.53906 C 65.2832 2.53906 82.2754 -14.4531 82.2754 -35.2051 C 82.2754 -48.6328 75.0977 -60.498 64.3555 -67.1387 C 63.4277 -67.8223 62.3535 -67.5293 61.9141 -66.748 C 61.4258 -65.918 61.6699 -64.9414 62.5 -64.3555 C 72.3145 -58.3496 78.8574 -47.5098 78.8574 -35.2051 C 78.8574 -16.2109 63.5254 -0.878906 44.5801 -0.878906 C 25.5859 -0.878906 10.2539 -16.2109 10.2539 -35.2051 C 10.2539 -51.8555 22.1191 -65.7227 37.8906 -68.8477 L 37.8906 -61.7188 C 37.8906 -60.0098 39.0625 -59.4727 40.5273 -60.498 L 52.1484 -68.6035 C 53.3691 -69.4824 53.3691 -70.6543 52.1484 -71.5332 L 40.5762 -79.6387 C 39.0625 -80.7129 37.8906 -80.127 37.8906 -78.418 L 37.8906 -72.3145 C 20.3125 -69.1406 6.83594 -53.6133 6.83594 -35.2051 C 6.83594 -14.4531 23.877 2.53906 44.5801 2.53906 Z M 57.7148 -19.3848 C 63.916 -19.3848 68.1152 -25.4395 68.1152 -34.6191 C 68.1152 -43.7988 63.916 -49.9023 57.7148 -49.9023 C 51.4648 -49.9023 47.2656 -43.7988 47.2656 -34.6191 C 47.2656 -25.4395 51.4648 -19.3848 57.7148 -19.3848 Z M 32.1777 -19.3848 C 38.0859 -19.3848 42.2852 -22.9492 42.2852 -27.9785 C 42.2852 -31.7383 39.4043 -34.8633 35.5957 -35.2539 L 35.5957 -35.3027 C 38.7695 -35.8887 41.2598 -38.8184 41.2598 -42.334 C 41.2598 -46.6797 37.5488 -49.9023 32.2266 -49.9023 C 27.7832 -49.9023 24.1211 -47.3633 23.291 -43.7988 C 23.1934 -43.3594 23.1934 -43.0664 23.1934 -42.7734 C 23.1934 -41.9434 23.7305 -41.3574 24.5117 -41.3574 C 25.293 -41.3574 25.7812 -41.6992 25.9277 -42.5293 C 26.4648 -45.3613 28.9062 -47.2656 32.1777 -47.2656 C 35.8398 -47.2656 38.3789 -45.0684 38.3789 -41.9922 C 38.3789 -38.8672 35.791 -36.4746 32.3242 -36.4746 L 29.8828 -36.4746 C 29.0527 -36.4746 28.5156 -35.9375 28.5156 -35.1562 C 28.5156 -34.3262 29.0527 -33.7891 29.8828 -33.7891 L 32.5195 -33.7891 C 36.4746 -33.7891 39.3555 -31.3477 39.3555 -28.0762 C 39.3555 -24.5605 36.4258 -22.0703 32.1777 -22.0703 C 28.8086 -22.0703 26.0742 -23.9258 25.3418 -26.7578 C 25.0488 -27.5879 24.707 -27.9785 23.9258 -27.9785 C 23.0957 -27.9785 22.5586 -27.3438 22.5586 -26.5137 C 22.5586 -26.2207 22.5586 -25.9277 22.7051 -25.4395 C 23.6816 -21.9727 27.4902 -19.3848 32.1777 -19.3848 Z M 57.7148 -22.168 C 53.2227 -22.168 50.1953 -27.1484 50.1953 -34.6191 C 50.1953 -42.1875 53.2227 -47.168 57.7148 -47.168 C 62.207 -47.168 65.1855 -42.1875 65.1855 -34.6191 C 65.1855 -27.1484 62.1582 -22.168 57.7148 -22.168 Z"/>
  </g>
  <g id="Ultralight-S" transform="matrix(1 0 0 1 515.644 696)">
   <path d="M 44.043 2.05078 C 64.502 2.05078 81.2988 -14.6973 81.2988 -35.1562 C 81.2988 -48.8281 73.8281 -60.8398 62.7441 -67.2852 C 62.1094 -67.7246 61.4258 -67.4805 61.1328 -66.9922 C 60.8887 -66.4551 61.0352 -65.7715 61.5723 -65.4297 C 72.0215 -59.3262 79.0527 -48.0469 79.0527 -35.1562 C 79.0527 -15.8691 63.3789 -0.146484 44.043 -0.146484 C 24.7559 -0.146484 9.08203 -15.8691 9.08203 -35.1562 C 9.08203 -52.2949 21.3867 -66.5527 37.6465 -69.5801 L 37.6465 -61.8164 C 37.6465 -60.5469 38.5742 -60.0098 39.7949 -60.8887 L 51.1719 -68.8477 C 52.1973 -69.5801 52.1973 -70.5078 51.1719 -71.1914 L 39.7949 -79.1504 C 38.5742 -80.0293 37.6465 -79.541 37.6465 -78.2227 L 37.6465 -71.8262 C 20.2148 -68.75 6.83594 -53.4668 6.83594 -35.1562 C 6.83594 -14.6973 23.584 2.05078 44.043 2.05078 Z M 57.4219 -19.5312 C 63.623 -19.5312 67.7734 -25.5371 67.7734 -34.7168 C 67.7734 -43.8965 63.623 -50 57.4219 -50 C 51.2207 -50 47.0215 -43.8965 47.0215 -34.7168 C 47.0215 -25.5371 51.2207 -19.5312 57.4219 -19.5312 Z M 31.543 -19.5312 C 37.4023 -19.5312 41.6016 -23.0469 41.6016 -27.9785 C 41.6016 -31.7871 38.623 -34.9121 34.7168 -35.3027 L 34.7168 -35.4004 C 38.0371 -36.0352 40.5273 -38.9648 40.5273 -42.5293 C 40.5273 -46.8262 36.8164 -50 31.543 -50 C 27.1484 -50 23.584 -47.4609 22.7539 -43.9941 C 22.6562 -43.5547 22.6562 -43.2617 22.6562 -43.0664 C 22.6562 -42.4316 23.0469 -41.9922 23.6816 -41.9922 C 24.3652 -41.9922 24.707 -42.2363 24.7559 -42.8711 C 25.2441 -45.8984 27.9785 -47.998 31.543 -47.998 C 35.5469 -47.998 38.3301 -45.6055 38.3301 -42.2852 C 38.3301 -38.916 35.4492 -36.2305 31.7383 -36.2305 L 28.9551 -36.2305 C 28.3203 -36.2305 27.9297 -35.8398 27.9297 -35.2539 C 27.9297 -34.668 28.3203 -34.2773 28.9551 -34.2773 L 31.9824 -34.2773 C 36.1816 -34.2773 39.4043 -31.543 39.4043 -28.0273 C 39.4043 -24.1699 36.1816 -21.4844 31.543 -21.4844 C 27.8809 -21.4844 24.8535 -23.584 24.1699 -26.5625 C 23.9746 -27.2461 23.7305 -27.5391 23.0469 -27.5391 C 22.4121 -27.5391 22.0215 -27.0508 22.0215 -26.416 C 22.0215 -26.1719 22.0215 -25.9277 22.168 -25.4395 C 23.1445 -22.0215 26.8555 -19.5312 31.543 -19.5312 Z M 57.4219 -21.5332 C 52.4902 -21.5332 49.1699 -26.8555 49.1699 -34.7168 C 49.1699 -42.627 52.4902 -47.9492 57.4219 -47.9492 C 62.3047 -47.9492 65.6738 -42.627 65.6738 -34.7168 C 65.6738 -26.8555 62.3047 -21.5332 57.4219 -21.5332 Z"/>
  </g>
 </g>
</svg>
