<?xml version="1.0" encoding="UTF-8"?>
<!--Generator: Apple Native CoreSVG 123-->
<!DOCTYPE svg
PUBLIC "-//W3C//DTD SVG 1.1//EN"
       "http://www.w3.org/Graphics/SVG/1.1/DTD/svg11.dtd">
<svg version="1.1" xmlns="http://www.w3.org/2000/svg" xmlns:xlink="http://www.w3.org/1999/xlink" width="3300" height="2200">
 <!--glyph: "uni10046C.medium", point size: 100.000000, font version: "Version 15.0d7e11", template writer version: "5"-->
 <g id="Notes">
  <rect height="2200" id="artboard" style="fill:white;opacity:1" width="3300" x="0" y="0"/>
  <line id="" style="fill:none;stroke:black;opacity:1;stroke-width:0.5;" x1="263" x2="3036" y1="292" y2="292"/>
  <text style="stroke:none;fill:black;font-family:-apple-system,&quot;SF Pro Display&quot;,&quot;SF Pro Text&quot;,Helvetica,sans-serif;font-weight:bold;" transform="matrix(1 0 0 1 263 322)">Weight/Scale Variations</text>
  <text style="stroke:none;fill:black;font-family:-apple-system,&quot;SF Pro Display&quot;,&quot;SF Pro Text&quot;,Helvetica,sans-serif;text-anchor:middle;" transform="matrix(1 0 0 1 559.711 322)">Ultralight</text>
  <text style="stroke:none;fill:black;font-family:-apple-system,&quot;SF Pro Display&quot;,&quot;SF Pro Text&quot;,Helvetica,sans-serif;text-anchor:middle;" transform="matrix(1 0 0 1 856.422 322)">Thin</text>
  <text style="stroke:none;fill:black;font-family:-apple-system,&quot;SF Pro Display&quot;,&quot;SF Pro Text&quot;,Helvetica,sans-serif;text-anchor:middle;" transform="matrix(1 0 0 1 1153.13 322)">Light</text>
  <text style="stroke:none;fill:black;font-family:-apple-system,&quot;SF Pro Display&quot;,&quot;SF Pro Text&quot;,Helvetica,sans-serif;text-anchor:middle;" transform="matrix(1 0 0 1 1449.84 322)">Regular</text>
  <text style="stroke:none;fill:black;font-family:-apple-system,&quot;SF Pro Display&quot;,&quot;SF Pro Text&quot;,Helvetica,sans-serif;text-anchor:middle;" transform="matrix(1 0 0 1 1746.56 322)">Medium</text>
  <text style="stroke:none;fill:black;font-family:-apple-system,&quot;SF Pro Display&quot;,&quot;SF Pro Text&quot;,Helvetica,sans-serif;text-anchor:middle;" transform="matrix(1 0 0 1 2043.27 322)">Semibold</text>
  <text style="stroke:none;fill:black;font-family:-apple-system,&quot;SF Pro Display&quot;,&quot;SF Pro Text&quot;,Helvetica,sans-serif;text-anchor:middle;" transform="matrix(1 0 0 1 2339.98 322)">Bold</text>
  <text style="stroke:none;fill:black;font-family:-apple-system,&quot;SF Pro Display&quot;,&quot;SF Pro Text&quot;,Helvetica,sans-serif;text-anchor:middle;" transform="matrix(1 0 0 1 2636.69 322)">Heavy</text>
  <text style="stroke:none;fill:black;font-family:-apple-system,&quot;SF Pro Display&quot;,&quot;SF Pro Text&quot;,Helvetica,sans-serif;text-anchor:middle;" transform="matrix(1 0 0 1 2933.4 322)">Black</text>
  <line id="" style="fill:none;stroke:black;opacity:1;stroke-width:0.5;" x1="263" x2="3036" y1="1903" y2="1903"/>
  <g id="" transform="matrix(1 0 0 1 263 1933)">
   <path d="M 9.24805 0.830078 C 13.5547 0.830078 17.1387 -2.74414 17.1387 -7.05078 C 17.1387 -11.3574 13.5449 -14.9316 9.23828 -14.9316 C 4.94141 -14.9316 1.36719 -11.3574 1.36719 -7.05078 C 1.36719 -2.74414 4.95117 0.830078 9.24805 0.830078 Z M 9.24805 -0.654297 C 5.70312 -0.654297 2.87109 -3.49609 2.87109 -7.05078 C 2.87109 -10.6055 5.69336 -13.4473 9.23828 -13.4473 C 12.793 -13.4473 15.6348 -10.6055 15.6445 -7.05078 C 15.6543 -3.49609 12.8027 -0.654297 9.24805 -0.654297 Z M 9.22852 -3.42773 C 9.69727 -3.42773 9.9707 -3.74023 9.9707 -4.25781 L 9.9707 -6.31836 L 12.1973 -6.31836 C 12.6953 -6.31836 13.0371 -6.57227 13.0371 -7.04102 C 13.0371 -7.51953 12.7148 -7.7832 12.1973 -7.7832 L 9.9707 -7.7832 L 9.9707 -10.0098 C 9.9707 -10.5273 9.69727 -10.8496 9.22852 -10.8496 C 8.75977 -10.8496 8.50586 -10.5078 8.50586 -10.0098 L 8.50586 -7.7832 L 6.29883 -7.7832 C 5.78125 -7.7832 5.44922 -7.51953 5.44922 -7.04102 C 5.44922 -6.57227 5.80078 -6.31836 6.29883 -6.31836 L 8.50586 -6.31836 L 8.50586 -4.25781 C 8.50586 -3.75977 8.75977 -3.42773 9.22852 -3.42773 Z"/>
  </g>
  <g id="" transform="matrix(1 0 0 1 281.506 1933)">
   <path d="M 11.709 2.91016 C 17.1582 2.91016 21.6699 -1.60156 21.6699 -7.05078 C 21.6699 -12.4902 17.1484 -17.0117 11.6992 -17.0117 C 6.25977 -17.0117 1.74805 -12.4902 1.74805 -7.05078 C 1.74805 -1.60156 6.26953 2.91016 11.709 2.91016 Z M 11.709 1.25 C 7.09961 1.25 3.41797 -2.44141 3.41797 -7.05078 C 3.41797 -11.6504 7.08984 -15.3516 11.6992 -15.3516 C 16.3086 -15.3516 20 -11.6504 20.0098 -7.05078 C 20.0195 -2.44141 16.3184 1.25 11.709 1.25 Z M 11.6895 -2.41211 C 12.207 -2.41211 12.5195 -2.77344 12.5195 -3.33984 L 12.5195 -6.23047 L 15.5762 -6.23047 C 16.123 -6.23047 16.5039 -6.51367 16.5039 -7.03125 C 16.5039 -7.55859 16.1426 -7.86133 15.5762 -7.86133 L 12.5195 -7.86133 L 12.5195 -10.9277 C 12.5195 -11.5039 12.207 -11.8555 11.6895 -11.8555 C 11.1719 -11.8555 10.8789 -11.4844 10.8789 -10.9277 L 10.8789 -7.86133 L 7.83203 -7.86133 C 7.26562 -7.86133 6.89453 -7.55859 6.89453 -7.03125 C 6.89453 -6.51367 7.28516 -6.23047 7.83203 -6.23047 L 10.8789 -6.23047 L 10.8789 -3.33984 C 10.8789 -2.79297 11.1719 -2.41211 11.6895 -2.41211 Z"/>
  </g>
  <g id="" transform="matrix(1 0 0 1 304.924 1933)">
   <path d="M 14.9707 5.67383 C 21.9336 5.67383 27.6953 -0.078125 27.6953 -7.04102 C 27.6953 -14.0039 21.9238 -19.7559 14.9609 -19.7559 C 8.00781 -19.7559 2.25586 -14.0039 2.25586 -7.04102 C 2.25586 -0.078125 8.01758 5.67383 14.9707 5.67383 Z M 14.9707 3.85742 C 8.93555 3.85742 4.08203 -1.00586 4.08203 -7.04102 C 4.08203 -13.0762 8.92578 -17.9395 14.9609 -17.9395 C 21.0059 -17.9395 25.8594 -13.0762 25.8691 -7.04102 C 25.8789 -1.00586 21.0156 3.85742 14.9707 3.85742 Z M 14.9512 -1.06445 C 15.5176 -1.06445 15.8691 -1.45508 15.8691 -2.06055 L 15.8691 -6.13281 L 20.1074 -6.13281 C 20.6934 -6.13281 21.1133 -6.46484 21.1133 -7.02148 C 21.1133 -7.59766 20.7227 -7.93945 20.1074 -7.93945 L 15.8691 -7.93945 L 15.8691 -12.1875 C 15.8691 -12.8027 15.5176 -13.1934 14.9512 -13.1934 C 14.3848 -13.1934 14.0625 -12.7832 14.0625 -12.1875 L 14.0625 -7.93945 L 9.83398 -7.93945 C 9.21875 -7.93945 8.80859 -7.59766 8.80859 -7.02148 C 8.80859 -6.46484 9.23828 -6.13281 9.83398 -6.13281 L 14.0625 -6.13281 L 14.0625 -2.06055 C 14.0625 -1.47461 14.3848 -1.06445 14.9512 -1.06445 Z"/>
  </g>
  <text style="stroke:none;fill:black;font-family:-apple-system,&quot;SF Pro Display&quot;,&quot;SF Pro Text&quot;,Helvetica,sans-serif;font-weight:bold;" transform="matrix(1 0 0 1 263 1953)">Design Variations</text>
  <text style="stroke:none;fill:black;font-family:-apple-system,&quot;SF Pro Display&quot;,&quot;SF Pro Text&quot;,Helvetica,sans-serif;" transform="matrix(1 0 0 1 263 1971)">Symbols are supported in up to nine weights and three scales.</text>
  <text style="stroke:none;fill:black;font-family:-apple-system,&quot;SF Pro Display&quot;,&quot;SF Pro Text&quot;,Helvetica,sans-serif;" transform="matrix(1 0 0 1 263 1989)">For optimal layout with text and other symbols, vertically align</text>
  <text style="stroke:none;fill:black;font-family:-apple-system,&quot;SF Pro Display&quot;,&quot;SF Pro Text&quot;,Helvetica,sans-serif;" transform="matrix(1 0 0 1 263 2007)">symbols with the adjacent text.</text>
  <rect height="14" id="" style="fill:#00AEEF;stroke:none;opacity:0.4;" width="3" x="776" y="1919"/>
  <g id="" transform="matrix(1 0 0 1 779 1933)">
   <path d="M 10.5273 0 L 12.373 0 L 7.17773 -14.0918 L 5.43945 -14.0918 L 0.244141 0 L 2.08984 0 L 3.50586 -4.0332 L 9.11133 -4.0332 Z M 6.2793 -11.9531 L 6.33789 -11.9531 L 8.59375 -5.52734 L 4.02344 -5.52734 Z"/>
  </g>
  <rect height="14" id="" style="fill:#00AEEF;stroke:none;opacity:0.4;" width="3" x="791.617" y="1919"/>
  <text style="stroke:none;fill:black;font-family:-apple-system,&quot;SF Pro Display&quot;,&quot;SF Pro Text&quot;,Helvetica,sans-serif;font-weight:bold;" transform="matrix(1 0 0 1 776 1953)">Margins</text>
  <text style="stroke:none;fill:black;font-family:-apple-system,&quot;SF Pro Display&quot;,&quot;SF Pro Text&quot;,Helvetica,sans-serif;" transform="matrix(1 0 0 1 776 1971)">Leading and trailing margins on the left and right side of each symbol</text>
  <text style="stroke:none;fill:black;font-family:-apple-system,&quot;SF Pro Display&quot;,&quot;SF Pro Text&quot;,Helvetica,sans-serif;" transform="matrix(1 0 0 1 776 1989)">can be adjusted by modifying the width of the blue rectangles.</text>
  <text style="stroke:none;fill:black;font-family:-apple-system,&quot;SF Pro Display&quot;,&quot;SF Pro Text&quot;,Helvetica,sans-serif;" transform="matrix(1 0 0 1 776 2007)">Modifications are automatically applied proportionally to all</text>
  <text style="stroke:none;fill:black;font-family:-apple-system,&quot;SF Pro Display&quot;,&quot;SF Pro Text&quot;,Helvetica,sans-serif;" transform="matrix(1 0 0 1 776 2025)">scales and weights.</text>
  <g id="" transform="matrix(1 0 0 1 1289 1933)">
   <path d="M 2.83203 3.11523 L 4.375 4.6582 C 5.22461 5.48828 6.19141 5.41992 7.06055 4.46289 L 17.2754 -6.66016 C 17.7051 -6.36719 18.0957 -6.37695 18.5645 -6.47461 L 19.6094 -6.68945 L 20.3027 -5.99609 L 20.2539 -5.47852 C 20.1855 -4.95117 20.3516 -4.53125 20.8496 -4.0332 L 21.6602 -3.22266 C 22.168 -2.71484 22.8223 -2.68555 23.3008 -3.16406 L 26.5527 -6.41602 C 27.0312 -6.89453 27.0117 -7.54883 26.5039 -8.05664 L 25.6836 -8.87695 C 25.1855 -9.375 24.7754 -9.55078 24.2383 -9.47266 L 23.7109 -9.41406 L 23.0566 -10.0781 L 23.3398 -11.2207 C 23.4863 -11.7871 23.3398 -12.2559 22.7148 -12.8613 L 20.3027 -15.2539 C 16.7578 -18.7793 12.2266 -18.6719 9.11133 -15.5371 C 8.69141 -15.1074 8.64258 -14.5215 8.91602 -14.0918 C 9.15039 -13.7207 9.62891 -13.4961 10.2734 -13.6621 C 11.7871 -14.043 13.3008 -13.9258 14.7852 -12.9199 L 14.1602 -11.3379 C 13.9258 -10.752 13.9453 -10.2734 14.1797 -9.83398 L 3.01758 0.439453 C 2.08008 1.30859 1.97266 2.25586 2.83203 3.11523 Z M 10.6738 -15.1465 C 13.3398 -17.1387 16.6504 -16.8262 19.0527 -14.4141 L 21.6797 -11.8066 C 21.9141 -11.5723 21.9434 -11.3867 21.8848 -11.0938 L 21.5039 -9.53125 L 23.0762 -7.95898 L 24.043 -8.04688 C 24.3262 -8.07617 24.4141 -8.05664 24.6387 -7.83203 L 25.2637 -7.20703 L 22.5098 -4.46289 L 21.8848 -5.07812 C 21.6602 -5.30273 21.6406 -5.40039 21.6699 -5.68359 L 21.7578 -6.64062 L 20.1953 -8.20312 L 18.5742 -7.89062 C 18.291 -7.83203 18.1445 -7.83203 17.9102 -8.07617 L 15.7324 -10.2539 C 15.5078 -10.4883 15.4785 -10.625 15.6055 -10.9473 L 16.5527 -13.2227 C 14.9512 -14.7559 12.8418 -15.6055 10.8008 -14.9512 C 10.7129 -14.9219 10.6445 -14.9414 10.6152 -14.9805 C 10.5859 -15.0293 10.5859 -15.0781 10.6738 -15.1465 Z M 4.10156 2.41211 C 3.61328 1.91406 3.78906 1.61133 4.12109 1.30859 L 15.0781 -8.80859 L 16.3086 -7.57812 L 6.15234 3.34961 C 5.84961 3.68164 5.46875 3.7793 5.06836 3.37891 Z"/>
  </g>
  <text style="stroke:none;fill:black;font-family:-apple-system,&quot;SF Pro Display&quot;,&quot;SF Pro Text&quot;,Helvetica,sans-serif;font-weight:bold;" transform="matrix(1 0 0 1 1289 1953)">Exporting</text>
  <text style="stroke:none;fill:black;font-family:-apple-system,&quot;SF Pro Display&quot;,&quot;SF Pro Text&quot;,Helvetica,sans-serif;" transform="matrix(1 0 0 1 1289 1971)">Symbols should be outlined when exporting to ensure the</text>
  <text style="stroke:none;fill:black;font-family:-apple-system,&quot;SF Pro Display&quot;,&quot;SF Pro Text&quot;,Helvetica,sans-serif;" transform="matrix(1 0 0 1 1289 1989)">design is preserved when submitting to Xcode.</text>
  <text id="template-version" style="stroke:none;fill:black;font-family:-apple-system,&quot;SF Pro Display&quot;,&quot;SF Pro Text&quot;,Helvetica,sans-serif;text-anchor:end;" transform="matrix(1 0 0 1 3036 1933)">Template v.1.0</text>
  <text style="stroke:none;fill:black;font-family:-apple-system,&quot;SF Pro Display&quot;,&quot;SF Pro Text&quot;,Helvetica,sans-serif;text-anchor:end;" transform="matrix(1 0 0 1 3036 1951)">Generated from music.note.list</text>
  <text style="stroke:none;fill:black;font-family:-apple-system,&quot;SF Pro Display&quot;,&quot;SF Pro Text&quot;,Helvetica,sans-serif;text-anchor:end;" transform="matrix(1 0 0 1 3036 1969)">Typeset at 100 points</text>
  <text style="stroke:none;fill:black;font-family:-apple-system,&quot;SF Pro Display&quot;,&quot;SF Pro Text&quot;,Helvetica,sans-serif;" transform="matrix(1 0 0 1 263 726)">Small</text>
  <text style="stroke:none;fill:black;font-family:-apple-system,&quot;SF Pro Display&quot;,&quot;SF Pro Text&quot;,Helvetica,sans-serif;" transform="matrix(1 0 0 1 263 1156)">Medium</text>
  <text style="stroke:none;fill:black;font-family:-apple-system,&quot;SF Pro Display&quot;,&quot;SF Pro Text&quot;,Helvetica,sans-serif;" transform="matrix(1 0 0 1 263 1586)">Large</text>
 </g>
 <g id="Guides">
  <g id="H-reference" style="fill:#27AAE1;stroke:none;" transform="matrix(1 0 0 1 339 696)">
   <path d="M 54.9316 0 L 57.666 0 L 30.5664 -70.459 L 28.0762 -70.459 L 0.976562 0 L 3.66211 0 L 12.9395 -24.4629 L 45.7031 -24.4629 Z M 29.1992 -67.0898 L 29.4434 -67.0898 L 44.8242 -26.709 L 13.8184 -26.709 Z"/>
  </g>
  <line id="Baseline-S" style="fill:none;stroke:#27AAE1;opacity:1;stroke-width:0.577;" x1="263" x2="3036" y1="696" y2="696"/>
  <line id="Capline-S" style="fill:none;stroke:#27AAE1;opacity:1;stroke-width:0.577;" x1="263" x2="3036" y1="625.541" y2="625.541"/>
  <g id="H-reference" style="fill:#27AAE1;stroke:none;" transform="matrix(1 0 0 1 339 1126)">
   <path d="M 54.9316 0 L 57.666 0 L 30.5664 -70.459 L 28.0762 -70.459 L 0.976562 0 L 3.66211 0 L 12.9395 -24.4629 L 45.7031 -24.4629 Z M 29.1992 -67.0898 L 29.4434 -67.0898 L 44.8242 -26.709 L 13.8184 -26.709 Z"/>
  </g>
  <line id="Baseline-M" style="fill:none;stroke:#27AAE1;opacity:1;stroke-width:0.577;" x1="263" x2="3036" y1="1126" y2="1126"/>
  <line id="Capline-M" style="fill:none;stroke:#27AAE1;opacity:1;stroke-width:0.577;" x1="263" x2="3036" y1="1055.54" y2="1055.54"/>
  <g id="H-reference" style="fill:#27AAE1;stroke:none;" transform="matrix(1 0 0 1 339 1556)">
   <path d="M 54.9316 0 L 57.666 0 L 30.5664 -70.459 L 28.0762 -70.459 L 0.976562 0 L 3.66211 0 L 12.9395 -24.4629 L 45.7031 -24.4629 Z M 29.1992 -67.0898 L 29.4434 -67.0898 L 44.8242 -26.709 L 13.8184 -26.709 Z"/>
  </g>
  <line id="Baseline-L" style="fill:none;stroke:#27AAE1;opacity:1;stroke-width:0.577;" x1="263" x2="3036" y1="1556" y2="1556"/>
  <line id="Capline-L" style="fill:none;stroke:#27AAE1;opacity:1;stroke-width:0.577;" x1="263" x2="3036" y1="1485.54" y2="1485.54"/>
  <rect height="119.336" id="left-margin" style="fill:#00AEEF;stroke:none;opacity:0.4;" width="12.4512" x="1386.88" y="1030.79"/>
  <rect height="119.336" id="right-margin" style="fill:#00AEEF;stroke:none;opacity:0.4;" width="12.4512" x="1500.36" y="1030.79"/>
 </g>
 <g id="Symbols">
  <g id="Black-L" transform="matrix(1 0 0 1 2851.05 1556)">
   <path d="M 86.4258 30.9082 C 96.875 30.9082 111.67 23.291 111.67 4.54102 L 111.67 -53.6133 C 111.67 -56.2012 111.865 -56.3965 114.209 -56.9336 L 144.092 -63.4277 C 146.875 -64.0625 148.633 -66.2598 148.633 -69.1406 L 148.633 -92.5781 C 148.633 -96.9238 145.068 -99.9023 140.771 -98.9746 L 107.812 -91.7969 C 102.881 -90.7227 100.244 -88.0371 100.244 -83.7402 L 100.391 -14.6973 C 100.391 -12.2559 99.3164 -10.7422 97.168 -10.3027 L 86.8164 -8.1543 C 73.0469 -5.32227 66.5039 1.95312 66.5039 12.5 C 66.5039 24.4141 75.5859 30.9082 86.4258 30.9082 Z M 21.7285 -66.2598 L 75.7812 -66.2598 C 78.9551 -66.2598 81.4941 -68.8965 81.4941 -71.9238 C 81.4941 -75.0488 78.9551 -77.5879 75.7812 -77.5879 L 21.7285 -77.5879 C 18.6035 -77.5879 16.0645 -75.0488 16.0645 -71.9238 C 16.0645 -68.8965 18.6035 -66.2598 21.7285 -66.2598 Z M 21.7285 -43.6523 L 75.7812 -43.6523 C 78.9551 -43.6523 81.4941 -46.2891 81.4941 -49.3164 C 81.4941 -52.4902 78.9551 -54.9805 75.7812 -54.9805 L 21.7285 -54.9805 C 18.6035 -54.9805 16.0645 -52.4902 16.0645 -49.3164 C 16.0645 -46.2891 18.6035 -43.6523 21.7285 -43.6523 Z M 21.7285 -21.0938 L 75.7812 -21.0938 C 78.9551 -21.0938 81.4941 -23.6328 81.4941 -26.709 C 81.4941 -29.834 78.9551 -32.373 75.7812 -32.373 L 21.7285 -32.373 C 18.6035 -32.373 16.0645 -29.834 16.0645 -26.709 C 16.0645 -23.6328 18.6035 -21.0938 21.7285 -21.0938 Z"/>
  </g>
  <g id="Heavy-L" transform="matrix(1 0 0 1 2554.61 1556)">
   <path d="M 86.2793 30.5176 C 96.4844 30.5176 111.084 23.0957 111.084 4.44336 L 111.084 -53.4668 C 111.084 -56.2012 111.328 -56.4941 113.818 -57.0312 L 143.701 -63.5742 C 146.387 -64.1602 148.096 -66.2598 148.096 -68.9941 L 148.096 -92.3828 C 148.096 -96.5332 144.678 -99.3652 140.576 -98.5352 L 107.52 -91.3086 C 102.734 -90.2344 100.195 -87.6953 100.195 -83.5449 L 100.391 -14.4043 C 100.391 -11.8164 99.2676 -10.2051 96.9727 -9.76562 L 86.7188 -7.66602 C 73.1934 -4.83398 66.7969 2.24609 66.7969 12.5977 C 66.7969 23.9746 75.5371 30.5176 86.2793 30.5176 Z M 21.2891 -66.1133 L 76.0742 -66.1133 C 78.9551 -66.1133 81.2988 -68.5059 81.2988 -71.2891 C 81.2988 -74.1699 78.9551 -76.4648 76.0742 -76.4648 L 21.2891 -76.4648 C 18.4082 -76.4648 16.0645 -74.1699 16.0645 -71.2891 C 16.0645 -68.5059 18.4082 -66.1133 21.2891 -66.1133 Z M 21.2891 -43.6035 L 76.0742 -43.6035 C 78.9551 -43.6035 81.2988 -45.9961 81.2988 -48.8281 C 81.2988 -51.709 78.9551 -54.0039 76.0742 -54.0039 L 21.2891 -54.0039 C 18.4082 -54.0039 16.0645 -51.709 16.0645 -48.8281 C 16.0645 -45.9961 18.3594 -43.6035 21.2891 -43.6035 Z M 21.2891 -21.1426 L 76.0742 -21.1426 C 78.9551 -21.1426 81.2988 -23.4863 81.2988 -26.3184 C 81.2988 -29.1992 78.9551 -31.4941 76.0742 -31.4941 L 21.2891 -31.4941 C 18.4082 -31.4941 16.0645 -29.1992 16.0645 -26.3184 C 16.0645 -23.4863 18.3594 -21.1426 21.2891 -21.1426 Z"/>
  </g>
  <g id="Bold-L" transform="matrix(1 0 0 1 2258.22 1556)">
   <path d="M 86.1328 30.127 C 95.9961 30.127 110.4 22.8516 110.4 4.29688 L 110.4 -53.2715 C 110.4 -56.2012 110.742 -56.5918 113.33 -57.1777 L 143.311 -63.7207 C 145.801 -64.2578 147.461 -66.2598 147.461 -68.7988 L 147.461 -92.1875 C 147.461 -96.1426 144.189 -98.7793 140.332 -97.998 L 107.178 -90.7715 C 102.588 -89.7461 100.146 -87.3047 100.146 -83.3496 L 100.391 -14.0625 C 100.391 -11.377 99.1699 -9.66797 96.7773 -9.17969 L 86.6211 -7.08008 C 73.3398 -4.29688 67.1387 2.58789 67.1387 12.6465 C 67.1387 23.4863 75.4395 30.127 86.1328 30.127 Z M 20.752 -65.918 L 76.3672 -65.918 C 78.9551 -65.918 81.0547 -68.0176 81.0547 -70.5566 C 81.0547 -73.1445 78.9551 -75.2441 76.3672 -75.2441 L 20.752 -75.2441 C 18.1641 -75.2441 16.0645 -73.1445 16.0645 -70.5566 C 16.0645 -68.0176 18.1641 -65.918 20.752 -65.918 Z M 20.752 -43.5547 L 76.3672 -43.5547 C 79.0039 -43.5547 81.0547 -45.7031 81.0547 -48.2422 C 81.0547 -50.8301 78.9551 -52.8809 76.3672 -52.8809 L 20.752 -52.8809 C 18.1641 -52.8809 16.0645 -50.8301 16.0645 -48.2422 C 16.0645 -45.7031 18.1152 -43.5547 20.752 -43.5547 Z M 20.752 -21.1914 L 76.3672 -21.1914 C 79.0039 -21.1914 81.0547 -23.291 81.0547 -25.8789 C 81.0547 -28.4668 78.9551 -30.5664 76.3672 -30.5664 L 20.752 -30.5664 C 18.1641 -30.5664 16.0645 -28.4668 16.0645 -25.8789 C 16.0645 -23.291 18.1152 -21.1914 20.752 -21.1914 Z"/>
  </g>
  <g id="Semibold-L" transform="matrix(1 0 0 1 1961.72 1556)">
   <path d="M 86.0352 29.834 C 95.6543 29.834 109.912 22.7051 109.912 4.19922 L 109.912 -53.1738 C 109.912 -56.2012 110.352 -56.6895 113.037 -57.2754 L 143.018 -63.8184 C 145.459 -64.3555 147.021 -66.2598 147.021 -68.7012 L 147.021 -92.041 C 147.021 -95.8496 143.896 -98.3887 140.186 -97.6074 L 106.934 -90.3809 C 102.49 -89.4043 100.098 -87.0117 100.098 -83.1543 L 100.391 -13.8672 C 100.391 -11.084 99.1211 -9.27734 96.6797 -8.78906 L 86.5723 -6.68945 C 73.4863 -3.95508 67.3828 2.7832 67.3828 12.6953 C 67.3828 23.0957 75.3906 29.834 86.0352 29.834 Z M 20.4102 -65.7715 L 76.5625 -65.7715 C 78.9551 -65.7715 80.9082 -67.7246 80.9082 -70.0684 C 80.9082 -72.4609 78.9551 -74.4141 76.5625 -74.4141 L 20.4102 -74.4141 C 18.0176 -74.4141 16.0645 -72.4609 16.0645 -70.0684 C 16.0645 -67.7246 18.0176 -65.7715 20.4102 -65.7715 Z M 20.4102 -43.5059 L 76.5625 -43.5059 C 79.0039 -43.5059 80.9082 -45.459 80.9082 -47.8516 C 80.9082 -50.2441 78.9551 -52.1484 76.5625 -52.1484 L 20.4102 -52.1484 C 18.0176 -52.1484 16.0645 -50.2441 16.0645 -47.8516 C 16.0645 -45.459 17.9688 -43.5059 20.4102 -43.5059 Z M 20.4102 -21.2402 L 76.5625 -21.2402 C 79.0039 -21.2402 80.9082 -23.1934 80.9082 -25.5371 C 80.9082 -27.9297 78.9551 -29.8828 76.5625 -29.8828 L 20.4102 -29.8828 C 18.0176 -29.8828 16.0645 -27.9297 16.0645 -25.5371 C 16.0645 -23.1934 17.9688 -21.2402 20.4102 -21.2402 Z"/>
  </g>
  <g id="Medium-L" transform="matrix(1 0 0 1 1665.18 1556)">
   <path d="M 85.9375 29.5898 C 95.4102 29.5898 109.521 22.6074 109.521 4.15039 L 109.521 -53.0762 C 109.521 -56.2012 110.01 -56.7383 112.793 -57.3242 L 142.822 -63.916 C 145.166 -64.4043 146.68 -66.2598 146.68 -68.6035 L 146.68 -91.9434 C 146.68 -95.6543 143.652 -98.0957 140.088 -97.3145 L 106.787 -90.0879 C 102.393 -89.1113 100.049 -86.8164 100.049 -83.0566 L 100.391 -13.6719 C 100.391 -10.8398 99.0723 -8.98438 96.582 -8.44727 L 86.5234 -6.34766 C 73.584 -3.66211 67.5293 2.97852 67.5293 12.7441 C 67.5293 22.8516 75.3418 29.5898 85.9375 29.5898 Z M 20.1172 -65.6738 L 76.709 -65.6738 C 78.9551 -65.6738 80.7617 -67.4805 80.7617 -69.6777 C 80.7617 -71.9238 78.9551 -73.7305 76.709 -73.7305 L 20.1172 -73.7305 C 17.8711 -73.7305 16.0645 -71.9238 16.0645 -69.6777 C 16.0645 -67.4805 17.8711 -65.6738 20.1172 -65.6738 Z M 20.1172 -43.457 L 76.709 -43.457 C 79.0039 -43.457 80.7617 -45.3125 80.7617 -47.5586 C 80.7617 -49.8047 78.9551 -51.5625 76.709 -51.5625 L 20.1172 -51.5625 C 17.8711 -51.5625 16.0645 -49.8047 16.0645 -47.5586 C 16.0645 -45.3125 17.8223 -43.457 20.1172 -43.457 Z M 20.1172 -21.2891 L 76.709 -21.2891 C 79.0039 -21.2891 80.7617 -23.0957 80.7617 -25.3418 C 80.7617 -27.5391 78.9551 -29.3945 76.709 -29.3945 L 20.1172 -29.3945 C 17.8711 -29.3945 16.0645 -27.5391 16.0645 -25.3418 C 16.0645 -23.0957 17.8223 -21.2891 20.1172 -21.2891 Z"/>
  </g>
  <g id="Regular-L" transform="matrix(1 0 0 1 1368.69 1556)">
   <path d="M 85.791 29.3457 C 95.1172 29.3457 109.082 22.4121 109.082 4.05273 L 109.082 -52.9785 C 109.082 -56.2012 109.619 -56.7871 112.5 -57.4219 L 142.529 -64.0137 C 144.775 -64.502 146.24 -66.2598 146.24 -68.5059 L 146.24 -91.7969 C 146.24 -95.3613 143.359 -97.7051 139.893 -96.9727 L 106.543 -89.6973 C 102.295 -88.7695 100 -86.5723 100 -82.9102 L 100.439 -13.4766 C 100.439 -10.498 99.0234 -8.59375 96.4355 -8.05664 L 86.4258 -5.95703 C 73.6816 -3.27148 67.7734 3.17383 67.7734 12.793 C 67.7734 22.5098 75.293 29.3457 85.791 29.3457 Z M 19.7754 -65.5273 L 76.9043 -65.5273 C 78.9551 -65.5273 80.6152 -67.1875 80.6152 -69.2383 C 80.6152 -71.2402 78.9551 -72.9004 76.9043 -72.9004 L 19.7754 -72.9004 C 17.7246 -72.9004 16.0645 -71.2402 16.0645 -69.2383 C 16.0645 -67.1875 17.7246 -65.5273 19.7754 -65.5273 Z M 19.7754 -43.457 L 76.9043 -43.457 C 79.0039 -43.457 80.6152 -45.1172 80.6152 -47.168 C 80.6152 -49.1699 78.9551 -50.7812 76.9043 -50.7812 L 19.7754 -50.7812 C 17.7246 -50.7812 16.0645 -49.1699 16.0645 -47.168 C 16.0645 -45.1172 17.6758 -43.457 19.7754 -43.457 Z M 19.7754 -21.3379 L 76.9043 -21.3379 C 79.0039 -21.3379 80.6152 -22.9492 80.6152 -25.0488 C 80.6152 -27.0508 78.9551 -28.7109 76.9043 -28.7109 L 19.7754 -28.7109 C 17.7246 -28.7109 16.0645 -27.0508 16.0645 -25.0488 C 16.0645 -22.9492 17.6758 -21.3379 19.7754 -21.3379 Z"/>
  </g>
  <g id="Light-L" transform="matrix(1 0 0 1 1072.1 1556)">
   <path d="M 85.6934 28.5645 C 94.873 28.5645 108.643 21.7773 108.643 3.61328 L 108.643 -52.6367 C 108.643 -55.9082 109.229 -56.543 112.207 -57.1777 L 142.285 -63.7695 C 144.531 -64.2578 145.996 -66.0156 145.996 -68.3105 L 145.996 -91.0645 C 145.996 -94.5801 143.115 -96.9238 139.648 -96.1914 L 106.348 -89.0137 C 102.197 -88.0859 100 -85.9375 100 -82.373 L 100.439 -13.8184 C 100.439 -10.791 98.9746 -8.78906 96.2891 -8.30078 L 86.3281 -6.20117 C 73.7793 -3.56445 67.9199 2.83203 67.9199 12.3047 C 67.9199 21.875 75.293 28.5645 85.6934 28.5645 Z M 19.043 -65.625 L 77.1973 -65.625 C 78.8574 -65.625 80.1758 -66.9434 80.1758 -68.5547 C 80.1758 -70.166 78.8574 -71.4355 77.1973 -71.4355 L 19.043 -71.4355 C 17.3828 -71.4355 16.0645 -70.166 16.0645 -68.5547 C 16.0645 -66.9434 17.3828 -65.625 19.043 -65.625 Z M 19.043 -43.9941 L 77.1973 -43.9941 C 78.9062 -43.9941 80.1758 -45.3125 80.1758 -46.9238 C 80.1758 -48.5352 78.8574 -49.8047 77.1973 -49.8047 L 19.043 -49.8047 C 17.3828 -49.8047 16.0645 -48.5352 16.0645 -46.9238 C 16.0645 -45.3125 17.334 -43.9941 19.043 -43.9941 Z M 19.043 -22.3633 L 77.1973 -22.3633 C 78.9062 -22.3633 80.1758 -23.6328 80.1758 -25.2441 C 80.1758 -26.8555 78.8574 -28.1738 77.1973 -28.1738 L 19.043 -28.1738 C 17.3828 -28.1738 16.0645 -26.8555 16.0645 -25.2441 C 16.0645 -23.6328 17.334 -22.3633 19.043 -22.3633 Z"/>
  </g>
  <g id="Thin-L" transform="matrix(1 0 0 1 775.563 1556)">
   <path d="M 85.498 27.5391 C 94.6289 27.5391 108.105 20.9473 108.105 3.02734 L 108.105 -52.1484 C 108.105 -55.4688 108.74 -56.2012 111.865 -56.8848 L 141.943 -63.4766 C 144.189 -63.9648 145.654 -65.7227 145.654 -68.0176 L 145.654 -90.0391 C 145.654 -93.6035 142.822 -95.9473 139.355 -95.2148 L 106.104 -88.0371 C 102.051 -87.1582 100 -85.1074 100 -81.6895 L 100.439 -14.3066 C 100.439 -11.1816 98.9258 -9.13086 96.1426 -8.59375 L 86.2305 -6.49414 C 73.877 -3.90625 68.1152 2.34375 68.1152 11.6211 C 68.1152 20.9961 75.3418 27.5391 85.498 27.5391 Z M 18.0176 -65.7715 L 77.6367 -65.7715 C 78.7598 -65.7715 79.5898 -66.6504 79.5898 -67.6758 C 79.5898 -68.7012 78.7598 -69.5312 77.6367 -69.5312 L 18.0176 -69.5312 C 16.8945 -69.5312 16.0645 -68.7012 16.0645 -67.6758 C 16.0645 -66.6504 16.8945 -65.7715 18.0176 -65.7715 Z M 18.0176 -44.7266 L 77.6367 -44.7266 C 78.7598 -44.7266 79.5898 -45.5566 79.5898 -46.6309 C 79.5898 -47.6562 78.7598 -48.4863 77.6367 -48.4863 L 18.0176 -48.4863 C 16.8945 -48.4863 16.0645 -47.6562 16.0645 -46.6309 C 16.0645 -45.5566 16.8945 -44.7266 18.0176 -44.7266 Z M 18.0176 -23.6816 L 77.6367 -23.6816 C 78.7598 -23.6816 79.5898 -24.5117 79.5898 -25.5371 C 79.5898 -26.5625 78.7598 -27.4414 77.6367 -27.4414 L 18.0176 -27.4414 C 16.8945 -27.4414 16.0645 -26.5625 16.0645 -25.5371 C 16.0645 -24.5117 16.8945 -23.6816 18.0176 -23.6816 Z"/>
  </g>
  <g id="Ultralight-L" transform="matrix(1 0 0 1 478.949 1556)">
   <path d="M 85.4004 27.0508 C 94.4824 27.0508 107.861 20.5078 107.861 2.68555 L 107.861 -51.8555 C 107.861 -55.2734 108.496 -56.0059 111.67 -56.7383 L 141.748 -63.3301 C 143.994 -63.8184 145.459 -65.5762 145.459 -67.8711 L 145.459 -89.5508 C 145.459 -93.0664 142.627 -95.4102 139.209 -94.6777 L 106.006 -87.5488 C 102.002 -86.6699 100 -84.668 100 -81.3477 L 100.439 -14.5508 C 100.439 -11.377 98.877 -9.27734 96.0449 -8.74023 L 86.1816 -6.64062 C 73.9258 -4.05273 68.2129 2.09961 68.2129 11.2793 C 68.2129 20.5566 75.3418 27.0508 85.4004 27.0508 Z M 17.5293 -65.8691 L 77.832 -65.8691 C 78.6621 -65.8691 79.2969 -66.4551 79.2969 -67.2363 C 79.2969 -67.9688 78.6621 -68.5547 77.832 -68.5547 L 17.5293 -68.5547 C 16.6504 -68.5547 16.0645 -67.9688 16.0645 -67.2363 C 16.0645 -66.4551 16.6504 -65.8691 17.5293 -65.8691 Z M 17.5293 -45.1172 L 77.832 -45.1172 C 78.6621 -45.1172 79.2969 -45.7031 79.2969 -46.4355 C 79.2969 -47.2168 78.6621 -47.8027 77.832 -47.8027 L 17.5293 -47.8027 C 16.6504 -47.8027 16.0645 -47.2168 16.0645 -46.4355 C 16.0645 -45.7031 16.6992 -45.1172 17.5293 -45.1172 Z M 17.5293 -24.3164 L 77.832 -24.3164 C 78.6621 -24.3164 79.2969 -24.9512 79.2969 -25.6836 C 79.2969 -26.416 78.6621 -27.0508 77.832 -27.0508 L 17.5293 -27.0508 C 16.6504 -27.0508 16.0645 -26.416 16.0645 -25.6836 C 16.0645 -24.9512 16.6992 -24.3164 17.5293 -24.3164 Z"/>
  </g>
  <g id="Black-M" transform="matrix(1 0 0 1 2869.26 1126)">
   <path d="M 67.1387 16.1133 C 75.5371 16.1133 87.1582 10.0586 87.1582 -4.49219 L 87.1582 -49.4629 C 87.1582 -51.3184 87.207 -51.3672 88.916 -51.7578 L 112.012 -56.7871 C 114.355 -57.3242 115.82 -59.1797 115.82 -61.5723 L 115.82 -79.4922 C 115.82 -83.1543 112.842 -85.6445 109.229 -84.9121 L 83.8379 -79.3457 C 79.8828 -78.4668 77.7832 -76.2695 77.7832 -72.8516 L 77.7832 -19.9219 C 77.7832 -18.1152 77.002 -17.0898 75.4883 -16.748 L 67.3828 -15.0879 C 56.4453 -12.8418 51.1719 -7.03125 51.1719 1.41602 C 51.1719 11.2305 58.6914 16.1133 67.1387 16.1133 Z M 17.0898 -59.5703 L 58.5449 -59.5703 C 61.1328 -59.5703 63.1836 -61.7188 63.1836 -64.1602 C 63.1836 -66.748 61.1328 -68.7988 58.5449 -68.7988 L 17.0898 -68.7988 C 14.502 -68.7988 12.4512 -66.748 12.4512 -64.1602 C 12.4512 -61.7188 14.502 -59.5703 17.0898 -59.5703 Z M 17.0898 -42.1387 L 58.5449 -42.1387 C 61.1328 -42.1387 63.1836 -44.2871 63.1836 -46.7285 C 63.1836 -49.2676 61.1328 -51.3672 58.5449 -51.3672 L 17.0898 -51.3672 C 14.502 -51.3672 12.4512 -49.2676 12.4512 -46.7285 C 12.4512 -44.2871 14.502 -42.1387 17.0898 -42.1387 Z M 17.0898 -24.707 L 58.5449 -24.707 C 61.1328 -24.707 63.1836 -26.8555 63.1836 -29.248 C 63.1836 -31.8359 61.1328 -33.8867 58.5449 -33.8867 L 17.0898 -33.8867 C 14.502 -33.8867 12.4512 -31.8359 12.4512 -29.248 C 12.4512 -26.8555 14.502 -24.707 17.0898 -24.707 Z"/>
  </g>
  <g id="Heavy-M" transform="matrix(1 0 0 1 2572.82 1126)">
   <path d="M 66.9922 15.918 C 75.1465 15.918 86.6211 10.0098 86.6211 -4.49219 L 86.6211 -49.4141 C 86.6211 -51.416 86.7188 -51.5625 88.5254 -51.9531 L 111.67 -56.9824 C 113.867 -57.4707 115.283 -59.2285 115.283 -61.4746 L 115.283 -79.4922 C 115.283 -82.9102 112.451 -85.2539 109.082 -84.5703 L 83.5449 -79.0039 C 79.7852 -78.1738 77.7344 -76.0742 77.7344 -72.7539 L 77.7832 -19.4824 C 77.7832 -17.5781 76.9531 -16.4551 75.293 -16.1133 L 67.2852 -14.4531 C 56.5918 -12.2559 51.4648 -6.5918 51.4648 1.61133 C 51.4648 10.9375 58.5938 15.918 66.9922 15.918 Z M 16.748 -59.375 L 58.7402 -59.375 C 61.1328 -59.375 63.0859 -61.3281 63.0859 -63.623 C 63.0859 -66.0156 61.1328 -67.9688 58.7402 -67.9688 L 16.748 -67.9688 C 14.3555 -67.9688 12.4512 -66.0156 12.4512 -63.623 C 12.4512 -61.3281 14.3555 -59.375 16.748 -59.375 Z M 16.748 -41.9434 L 58.7402 -41.9434 C 61.1816 -41.9434 63.0859 -43.8965 63.0859 -46.2402 C 63.0859 -48.584 61.1328 -50.5371 58.7402 -50.5371 L 16.748 -50.5371 C 14.3555 -50.5371 12.4512 -48.584 12.4512 -46.2402 C 12.4512 -43.8965 14.3555 -41.9434 16.748 -41.9434 Z M 16.748 -24.5117 L 58.7402 -24.5117 C 61.1816 -24.5117 63.0859 -26.4648 63.0859 -28.7598 C 63.0859 -31.1523 61.1328 -33.1055 58.7402 -33.1055 L 16.748 -33.1055 C 14.3555 -33.1055 12.4512 -31.1523 12.4512 -28.7598 C 12.4512 -26.4648 14.3555 -24.5117 16.748 -24.5117 Z"/>
  </g>
  <g id="Bold-M" transform="matrix(1 0 0 1 2276.43 1126)">
   <path d="M 66.8457 15.6738 C 74.707 15.6738 85.9863 9.91211 85.9863 -4.49219 L 85.9863 -49.3164 C 85.9863 -51.5137 86.1816 -51.7578 88.1348 -52.1484 L 111.328 -57.2266 C 113.33 -57.666 114.648 -59.2773 114.648 -61.377 L 114.648 -79.4922 C 114.648 -82.7148 112.061 -84.8633 108.887 -84.1797 L 83.252 -78.6133 C 79.5898 -77.7832 77.6367 -75.8301 77.6367 -72.6562 L 77.7832 -19.043 C 77.7832 -16.9922 76.9043 -15.7715 75.1465 -15.3809 L 67.1875 -13.7695 C 56.7383 -11.5723 51.8066 -6.10352 51.8066 1.85547 C 51.8066 10.5469 58.4961 15.6738 66.8457 15.6738 Z M 16.4062 -59.1309 L 58.9844 -59.1309 C 61.1816 -59.1309 62.9395 -60.9375 62.9395 -63.0371 C 62.9395 -65.2344 61.1816 -66.9922 58.9844 -66.9922 L 16.4062 -66.9922 C 14.209 -66.9922 12.4512 -65.2344 12.4512 -63.0371 C 12.4512 -60.9375 14.209 -59.1309 16.4062 -59.1309 Z M 16.4062 -41.6992 L 58.9844 -41.6992 C 61.2305 -41.6992 62.9395 -43.5059 62.9395 -45.6543 C 62.9395 -47.8516 61.1816 -49.6094 58.9844 -49.6094 L 16.4062 -49.6094 C 14.209 -49.6094 12.4512 -47.8516 12.4512 -45.6543 C 12.4512 -43.5059 14.209 -41.6992 16.4062 -41.6992 Z M 16.4062 -24.3164 L 58.9844 -24.3164 C 61.2305 -24.3164 62.9395 -26.0742 62.9395 -28.2227 C 62.9395 -30.4199 61.1816 -32.1777 58.9844 -32.1777 L 16.4062 -32.1777 C 14.209 -32.1777 12.4512 -30.4199 12.4512 -28.2227 C 12.4512 -26.0742 14.209 -24.3164 16.4062 -24.3164 Z"/>
  </g>
  <g id="Semibold-M" transform="matrix(1 0 0 1 1979.94 1126)">
   <path d="M 66.748 15.5273 C 74.3652 15.5273 85.5469 9.91211 85.5469 -4.54102 L 85.5469 -49.2676 C 85.5469 -51.5625 85.8398 -51.8555 87.8418 -52.2949 L 111.035 -57.373 C 112.988 -57.8125 114.209 -59.3262 114.209 -61.2793 L 114.209 -79.4922 C 114.209 -82.5195 111.768 -84.5703 108.789 -83.9355 L 83.0566 -78.3203 C 79.4922 -77.5391 77.5879 -75.6836 77.5879 -72.6074 L 77.832 -18.7012 C 77.832 -16.6016 76.8555 -15.2832 75 -14.8926 L 67.1387 -13.2812 C 56.8848 -11.1328 52.0508 -5.81055 52.0508 2.00195 C 52.0508 10.3027 58.4473 15.5273 66.748 15.5273 Z M 16.1621 -58.9355 L 59.1309 -58.9355 C 61.2305 -58.9355 62.8906 -60.6445 62.8906 -62.6465 C 62.8906 -64.6973 61.2305 -66.3574 59.1309 -66.3574 L 16.1621 -66.3574 C 14.1113 -66.3574 12.4512 -64.6973 12.4512 -62.6465 C 12.4512 -60.6445 14.1113 -58.9355 16.1621 -58.9355 Z M 16.1621 -41.5527 L 59.1309 -41.5527 C 61.2305 -41.5527 62.8906 -43.2617 62.8906 -45.2637 C 62.8906 -47.3145 61.2305 -48.9746 59.1309 -48.9746 L 16.1621 -48.9746 C 14.1113 -48.9746 12.4512 -47.3145 12.4512 -45.2637 C 12.4512 -43.2617 14.1113 -41.5527 16.1621 -41.5527 Z M 16.1621 -24.1699 L 59.1309 -24.1699 C 61.2305 -24.1699 62.8906 -25.8301 62.8906 -27.832 C 62.8906 -29.8828 61.2305 -31.5918 59.1309 -31.5918 L 16.1621 -31.5918 C 14.1113 -31.5918 12.4512 -29.8828 12.4512 -27.832 C 12.4512 -25.8301 14.1113 -24.1699 16.1621 -24.1699 Z"/>
  </g>
  <g id="Medium-M" transform="matrix(1 0 0 1 1683.37 1126)">
   <path d="M 66.6992 15.3809 C 74.1211 15.3809 85.2051 9.86328 85.2051 -4.54102 L 85.2051 -49.2676 C 85.2051 -51.6113 85.5469 -51.9531 87.6465 -52.3926 L 110.84 -57.5195 C 112.695 -57.9102 113.916 -59.375 113.916 -61.2305 L 113.916 -79.4922 C 113.916 -82.4219 111.523 -84.375 108.691 -83.7402 L 82.9102 -78.125 C 79.4434 -77.3926 77.5879 -75.5371 77.5879 -72.5098 L 77.832 -18.457 C 77.832 -16.3086 76.8555 -14.8926 74.9023 -14.5508 L 67.0898 -12.8906 C 56.9336 -10.791 52.1973 -5.56641 52.1973 2.09961 C 52.1973 10.1562 58.3984 15.3809 66.6992 15.3809 Z M 16.0156 -58.8379 L 59.2773 -58.8379 C 61.2305 -58.8379 62.793 -60.4004 62.793 -62.3535 C 62.793 -64.3066 61.2305 -65.8691 59.2773 -65.8691 L 16.0156 -65.8691 C 14.0625 -65.8691 12.4512 -64.3066 12.4512 -62.3535 C 12.4512 -60.4004 14.0625 -58.8379 16.0156 -58.8379 Z M 16.0156 -41.4551 L 59.2773 -41.4551 C 61.2793 -41.4551 62.793 -43.0176 62.793 -45.0195 C 62.793 -46.9238 61.2305 -48.4863 59.2773 -48.4863 L 16.0156 -48.4863 C 14.0625 -48.4863 12.4512 -46.9238 12.4512 -45.0195 C 12.4512 -43.0176 14.0137 -41.4551 16.0156 -41.4551 Z M 16.0156 -24.0234 L 59.2773 -24.0234 C 61.2793 -24.0234 62.793 -25.5859 62.793 -27.5879 C 62.793 -29.4922 61.2305 -31.1035 59.2773 -31.1035 L 16.0156 -31.1035 C 14.0625 -31.1035 12.4512 -29.4922 12.4512 -27.5879 C 12.4512 -25.5859 14.0137 -24.0234 16.0156 -24.0234 Z"/>
  </g>
  <g id="Regular-M" transform="matrix(1 0 0 1 1386.88 1126)">
   <path d="M 66.6016 15.2344 C 73.8281 15.2344 84.7656 9.81445 84.7656 -4.54102 L 84.7656 -49.2188 C 84.7656 -51.6602 85.1562 -52.0996 87.3535 -52.5391 L 110.596 -57.666 C 112.354 -58.0566 113.477 -59.4238 113.477 -61.1328 L 113.477 -79.541 C 113.477 -82.2754 111.23 -84.082 108.545 -83.4961 L 82.666 -77.8809 C 79.2969 -77.1484 77.5391 -75.3906 77.5391 -72.4609 L 77.832 -18.1641 C 77.832 -15.918 76.8066 -14.4531 74.8047 -14.0625 L 67.041 -12.4023 C 57.0801 -10.3516 52.4414 -5.22461 52.4414 2.24609 C 52.4414 9.86328 58.3496 15.2344 66.6016 15.2344 Z M 15.7715 -58.6426 L 59.4238 -58.6426 C 61.2305 -58.6426 62.7441 -60.1562 62.7441 -61.9629 C 62.7441 -63.7695 61.2305 -65.2344 59.4238 -65.2344 L 15.7715 -65.2344 C 13.916 -65.2344 12.4512 -63.7695 12.4512 -61.9629 C 12.4512 -60.1562 13.916 -58.6426 15.7715 -58.6426 Z M 15.7715 -41.2598 L 59.4238 -41.2598 C 61.2793 -41.2598 62.7441 -42.7734 62.7441 -44.6289 C 62.7441 -46.4355 61.2305 -47.8516 59.4238 -47.8516 L 15.7715 -47.8516 C 13.916 -47.8516 12.4512 -46.4355 12.4512 -44.6289 C 12.4512 -42.7734 13.8672 -41.2598 15.7715 -41.2598 Z M 15.7715 -23.877 L 59.4238 -23.877 C 61.2793 -23.877 62.7441 -25.3418 62.7441 -27.1973 C 62.7441 -29.0039 61.2305 -30.4688 59.4238 -30.4688 L 15.7715 -30.4688 C 13.916 -30.4688 12.4512 -29.0039 12.4512 -27.1973 C 12.4512 -25.3418 13.8672 -23.877 15.7715 -23.877 Z"/>
  </g>
  <g id="Light-M" transform="matrix(1 0 0 1 1090.29 1126)">
   <path d="M 66.4551 14.5508 C 73.6328 14.5508 84.375 9.22852 84.375 -4.93164 L 84.375 -48.877 C 84.375 -51.3672 84.8145 -51.8555 87.1094 -52.3438 L 110.4 -57.4707 C 112.109 -57.8125 113.232 -59.2285 113.232 -60.9375 L 113.232 -78.8574 C 113.232 -81.5918 111.035 -83.3984 108.35 -82.8125 L 82.5195 -77.1973 C 79.248 -76.5137 77.5391 -74.8047 77.5391 -72.0215 L 77.832 -18.457 C 77.832 -16.1621 76.7578 -14.6484 74.707 -14.2578 L 66.9434 -12.6465 C 57.1289 -10.5469 52.5879 -5.56641 52.5879 1.80664 C 52.5879 9.32617 58.3496 14.5508 66.4551 14.5508 Z M 15.0879 -58.7402 L 59.7168 -58.7402 C 61.1816 -58.7402 62.3535 -59.9121 62.3535 -61.3281 C 62.3535 -62.793 61.1816 -63.9648 59.7168 -63.9648 L 15.0879 -63.9648 C 13.623 -63.9648 12.4512 -62.793 12.4512 -61.3281 C 12.4512 -59.9121 13.623 -58.7402 15.0879 -58.7402 Z M 15.0879 -41.7969 L 59.7168 -41.7969 C 61.1816 -41.7969 62.3535 -42.9688 62.3535 -44.3848 C 62.3535 -45.8496 61.1816 -46.9727 59.7168 -46.9727 L 15.0879 -46.9727 C 13.623 -46.9727 12.4512 -45.8496 12.4512 -44.3848 C 12.4512 -42.9688 13.5742 -41.7969 15.0879 -41.7969 Z M 15.0879 -24.8047 L 59.7168 -24.8047 C 61.1816 -24.8047 62.3535 -25.9277 62.3535 -27.3926 C 62.3535 -28.8086 61.1816 -29.9805 59.7168 -29.9805 L 15.0879 -29.9805 C 13.623 -29.9805 12.4512 -28.8086 12.4512 -27.3926 C 12.4512 -25.9277 13.5742 -24.8047 15.0879 -24.8047 Z"/>
  </g>
  <g id="Thin-M" transform="matrix(1 0 0 1 793.727 1126)">
   <path d="M 66.3086 13.6719 C 73.3887 13.6719 83.9355 8.49609 83.9355 -5.46875 L 83.9355 -48.4375 C 83.9355 -51.0254 84.375 -51.5625 86.7676 -52.0996 L 110.059 -57.1777 C 111.816 -57.5684 112.939 -58.9355 112.939 -60.6934 L 112.939 -77.9297 C 112.939 -80.6641 110.742 -82.4707 108.057 -81.9336 L 82.2754 -76.3672 C 79.1504 -75.6836 77.5391 -74.0723 77.5391 -71.3867 L 77.832 -18.8965 C 77.832 -16.5039 76.6602 -14.9414 74.5117 -14.502 L 66.8457 -12.8906 C 57.2266 -10.8887 52.7344 -6.00586 52.7344 1.2207 C 52.7344 8.54492 58.3496 13.6719 66.3086 13.6719 Z M 14.1602 -58.8867 L 60.0586 -58.8867 C 61.0352 -58.8867 61.8164 -59.6191 61.8164 -60.5469 C 61.8164 -61.4746 61.0352 -62.2559 60.0586 -62.2559 L 14.1602 -62.2559 C 13.2324 -62.2559 12.4512 -61.4746 12.4512 -60.5469 C 12.4512 -59.6191 13.2324 -58.8867 14.1602 -58.8867 Z M 14.1602 -42.4316 L 60.0586 -42.4316 C 61.084 -42.4316 61.8164 -43.1641 61.8164 -44.1406 C 61.8164 -45.0195 61.0352 -45.8008 60.0586 -45.8008 L 14.1602 -45.8008 C 13.2324 -45.8008 12.4512 -45.0195 12.4512 -44.1406 C 12.4512 -43.1641 13.1836 -42.4316 14.1602 -42.4316 Z M 14.1602 -25.9766 L 60.0586 -25.9766 C 61.084 -25.9766 61.8164 -26.709 61.8164 -27.6367 C 61.8164 -28.5645 61.0352 -29.3457 60.0586 -29.3457 L 14.1602 -29.3457 C 13.2324 -29.3457 12.4512 -28.5645 12.4512 -27.6367 C 12.4512 -26.709 13.1836 -25.9766 14.1602 -25.9766 Z"/>
  </g>
  <g id="Ultralight-M" transform="matrix(1 0 0 1 497.089 1126)">
   <path d="M 66.2109 13.1836 C 73.291 13.1836 83.6914 8.10547 83.6914 -5.76172 L 83.6914 -48.1934 C 83.6914 -50.8301 84.1797 -51.3672 86.6211 -51.9531 L 109.912 -57.0801 C 111.67 -57.4219 112.793 -58.7891 112.793 -60.5469 L 112.793 -77.4902 C 112.793 -80.2246 110.596 -82.0312 107.91 -81.4453 L 82.1777 -75.9277 C 79.0527 -75.2441 77.5391 -73.6816 77.5391 -71.0938 L 77.832 -19.1406 C 77.832 -16.6992 76.6602 -15.0879 74.4629 -14.6484 L 66.7969 -13.0371 C 57.2754 -11.0352 52.832 -6.25 52.832 0.927734 C 52.832 8.1543 58.3984 13.1836 66.2109 13.1836 Z M 13.7207 -58.9355 L 60.2539 -58.9355 C 60.9863 -58.9355 61.5234 -59.4727 61.5234 -60.1562 C 61.5234 -60.8398 60.9863 -61.377 60.2539 -61.377 L 13.7207 -61.377 C 12.9883 -61.377 12.4512 -60.8398 12.4512 -60.1562 C 12.4512 -59.4727 12.9883 -58.9355 13.7207 -58.9355 Z M 13.7207 -42.7734 L 60.2539 -42.7734 C 60.9863 -42.7734 61.5234 -43.3105 61.5234 -43.9941 C 61.5234 -44.6289 60.9863 -45.166 60.2539 -45.166 L 13.7207 -45.166 C 12.9883 -45.166 12.4512 -44.6289 12.4512 -43.9941 C 12.4512 -43.3105 12.9883 -42.7734 13.7207 -42.7734 Z M 13.7207 -26.5625 L 60.2539 -26.5625 C 60.9863 -26.5625 61.5234 -27.1484 61.5234 -27.7832 C 61.5234 -28.4668 60.9863 -29.0039 60.2539 -29.0039 L 13.7207 -29.0039 C 12.9883 -29.0039 12.4512 -28.4668 12.4512 -27.7832 C 12.4512 -27.1484 12.9883 -26.5625 13.7207 -26.5625 Z"/>
  </g>
  <g id="Black-S" transform="matrix(1 0 0 1 2883.16 696)">
   <path d="M 52.5879 4.98047 C 59.1797 4.98047 68.2617 0.244141 68.2617 -11.1328 L 68.2617 -46.3867 C 68.2617 -47.8516 68.3105 -47.9004 69.6289 -48.1934 L 87.7441 -52.1484 C 89.5508 -52.5391 90.7227 -54.0039 90.7227 -55.8594 L 90.7227 -69.9219 C 90.7227 -72.7539 88.3789 -74.707 85.5957 -74.1211 L 65.6738 -69.7754 C 62.5977 -69.0918 60.9375 -67.3828 60.9375 -64.6973 L 60.9375 -23.1934 C 60.9375 -21.7773 60.3516 -20.9473 59.1309 -20.7031 L 52.7832 -19.3848 C 44.2383 -17.627 40.1367 -13.0859 40.1367 -6.49414 C 40.1367 1.17188 45.9961 4.98047 52.5879 4.98047 Z M 13.3789 -54.2969 L 45.8984 -54.2969 C 47.9004 -54.2969 49.5117 -55.957 49.5117 -57.8613 C 49.5117 -59.8633 47.9004 -61.4746 45.8984 -61.4746 L 13.3789 -61.4746 C 11.377 -61.4746 9.76562 -59.8633 9.76562 -57.8613 C 9.76562 -55.957 11.377 -54.2969 13.3789 -54.2969 Z M 13.3789 -40.625 L 45.8984 -40.625 C 47.9004 -40.625 49.5117 -42.2852 49.5117 -44.1895 C 49.5117 -46.1914 47.9004 -47.8027 45.8984 -47.8027 L 13.3789 -47.8027 C 11.377 -47.8027 9.76562 -46.1914 9.76562 -44.1895 C 9.76562 -42.2852 11.377 -40.625 13.3789 -40.625 Z M 13.3789 -26.9531 L 45.8984 -26.9531 C 47.9004 -26.9531 49.5117 -28.6133 49.5117 -30.5176 C 49.5117 -32.5195 47.9004 -34.1309 45.8984 -34.1309 L 13.3789 -34.1309 C 11.377 -34.1309 9.76562 -32.5195 9.76562 -30.5176 C 9.76562 -28.6133 11.377 -26.9531 13.3789 -26.9531 Z"/>
  </g>
  <g id="Heavy-S" transform="matrix(1 0 0 1 2586.64 696)">
   <path d="M 52.4902 4.88281 C 58.8867 4.88281 67.8711 0.292969 67.8711 -11.084 L 67.8711 -46.3867 C 67.8711 -47.9492 67.9688 -48.0469 69.3848 -48.3398 L 87.5 -52.3438 C 89.209 -52.6855 90.332 -54.0527 90.332 -55.8105 L 90.332 -70.0195 C 90.332 -72.6562 88.1348 -74.5117 85.498 -73.9258 L 65.4785 -69.5801 C 62.5 -68.8965 60.8887 -67.2852 60.8887 -64.6973 L 60.9375 -22.8516 C 60.9375 -21.3379 60.3027 -20.459 59.0332 -20.2148 L 52.7344 -18.8965 C 44.3359 -17.1387 40.332 -12.7441 40.332 -6.29883 C 40.332 0.976562 45.9473 4.88281 52.4902 4.88281 Z M 13.2324 -54.1016 L 46.0449 -54.1016 C 47.9492 -54.1016 49.4629 -55.7129 49.4629 -57.5195 C 49.4629 -59.4238 47.9492 -60.9863 46.0449 -60.9863 L 13.2324 -60.9863 C 11.3281 -60.9863 9.76562 -59.4238 9.76562 -57.5195 C 9.76562 -55.7129 11.3281 -54.1016 13.2324 -54.1016 Z M 13.2324 -40.4297 L 46.0449 -40.4297 C 47.9492 -40.4297 49.4629 -41.9922 49.4629 -43.8477 C 49.4629 -45.752 47.9492 -47.2656 46.0449 -47.2656 L 13.2324 -47.2656 C 11.3281 -47.2656 9.76562 -45.752 9.76562 -43.8477 C 9.76562 -41.9922 11.2793 -40.4297 13.2324 -40.4297 Z M 13.2324 -26.709 L 46.0449 -26.709 C 47.9492 -26.709 49.4629 -28.2715 49.4629 -30.127 C 49.4629 -32.0312 47.9492 -33.5938 46.0449 -33.5938 L 13.2324 -33.5938 C 11.3281 -33.5938 9.76562 -32.0312 9.76562 -30.127 C 9.76562 -28.2715 11.2793 -26.709 13.2324 -26.709 Z"/>
  </g>
  <g id="Bold-S" transform="matrix(1 0 0 1 2290.15 696)">
   <path d="M 52.3926 4.78516 C 58.5449 4.78516 67.4316 0.292969 67.4316 -11.084 L 67.4316 -46.3379 C 67.4316 -48.0469 67.5781 -48.2422 69.0918 -48.5352 L 87.2559 -52.5391 C 88.8672 -52.8809 89.8926 -54.1504 89.8926 -55.7617 L 89.8926 -70.0684 C 89.8926 -72.5586 87.8418 -74.2676 85.4004 -73.7305 L 65.2832 -69.3359 C 62.4023 -68.75 60.8398 -67.1875 60.8398 -64.6484 L 60.9863 -22.4609 C 60.9863 -20.8496 60.2539 -19.873 58.8867 -19.6289 L 52.6855 -18.3105 C 44.4824 -16.6016 40.5762 -12.3535 40.5762 -6.05469 C 40.5762 0.78125 45.8496 4.78516 52.3926 4.78516 Z M 13.0371 -53.9062 L 46.1426 -53.9062 C 47.9492 -53.9062 49.4141 -55.4199 49.4141 -57.1777 C 49.4141 -58.9355 47.9492 -60.4004 46.1426 -60.4004 L 13.0371 -60.4004 C 11.2305 -60.4004 9.76562 -58.9355 9.76562 -57.1777 C 9.76562 -55.4199 11.2305 -53.9062 13.0371 -53.9062 Z M 13.0371 -40.1855 L 46.1426 -40.1855 C 47.998 -40.1855 49.4141 -41.6504 49.4141 -43.457 C 49.4141 -45.2637 47.9492 -46.6797 46.1426 -46.6797 L 13.0371 -46.6797 C 11.2305 -46.6797 9.76562 -45.2637 9.76562 -43.457 C 9.76562 -41.6504 11.2305 -40.1855 13.0371 -40.1855 Z M 13.0371 -26.416 L 46.1426 -26.416 C 47.998 -26.416 49.4141 -27.8809 49.4141 -29.6875 C 49.4141 -31.4941 47.9492 -32.959 46.1426 -32.959 L 13.0371 -32.959 C 11.2305 -32.959 9.76562 -31.4941 9.76562 -29.6875 C 9.76562 -27.8809 11.2305 -26.416 13.0371 -26.416 Z"/>
  </g>
  <g id="Semibold-S" transform="matrix(1 0 0 1 1993.61 696)">
   <path d="M 52.3438 4.73633 C 58.3496 4.73633 67.1387 0.292969 67.1387 -11.0352 L 67.1387 -46.3379 C 67.1387 -48.1445 67.334 -48.3398 68.8965 -48.6816 L 87.1094 -52.6367 C 88.5742 -52.9785 89.5508 -54.1992 89.5508 -55.7129 L 89.5508 -70.166 C 89.5508 -72.5098 87.6465 -74.1211 85.3027 -73.6328 L 65.1367 -69.1895 C 62.3047 -68.6035 60.791 -67.0898 60.791 -64.6484 L 60.9863 -22.168 C 60.9863 -20.5566 60.2539 -19.4824 58.8379 -19.2383 L 52.6367 -17.9199 C 44.5312 -16.2598 40.7715 -12.0605 40.7715 -5.9082 C 40.7715 0.634766 45.8008 4.73633 52.3438 4.73633 Z M 12.8906 -53.7598 L 46.2402 -53.7598 C 47.998 -53.7598 49.4141 -55.2246 49.4141 -56.8848 C 49.4141 -58.6426 47.998 -60.0586 46.2402 -60.0586 L 12.8906 -60.0586 C 11.1816 -60.0586 9.76562 -58.6426 9.76562 -56.8848 C 9.76562 -55.2246 11.1816 -53.7598 12.8906 -53.7598 Z M 12.8906 -39.9902 L 46.2402 -39.9902 C 48.0469 -39.9902 49.4141 -41.4551 49.4141 -43.1641 C 49.4141 -44.873 47.998 -46.2891 46.2402 -46.2891 L 12.8906 -46.2891 C 11.1816 -46.2891 9.76562 -44.873 9.76562 -43.1641 C 9.76562 -41.4551 11.1328 -39.9902 12.8906 -39.9902 Z M 12.8906 -26.2695 L 46.2402 -26.2695 C 48.0469 -26.2695 49.4141 -27.6367 49.4141 -29.3945 C 49.4141 -31.1035 47.998 -32.5195 46.2402 -32.5195 L 12.8906 -32.5195 C 11.1816 -32.5195 9.76562 -31.1035 9.76562 -29.3945 C 9.76562 -27.6367 11.1328 -26.2695 12.8906 -26.2695 Z"/>
  </g>
  <g id="Medium-S" transform="matrix(1 0 0 1 1697 696)">
   <path d="M 52.2949 4.6875 C 58.1543 4.6875 66.8945 0.341797 66.8945 -11.0352 L 66.8945 -46.3379 C 66.8945 -48.1934 67.1387 -48.4375 68.75 -48.7793 L 86.9629 -52.7832 C 88.3789 -53.0762 89.3555 -54.1992 89.3555 -55.6641 L 89.3555 -70.2148 C 89.3555 -72.4609 87.4512 -73.9746 85.2539 -73.5352 L 64.9902 -69.0918 C 62.2559 -68.5059 60.791 -67.041 60.791 -64.6484 L 60.9863 -21.9727 C 60.9863 -20.3125 60.2051 -19.1895 58.7402 -18.9453 L 52.6367 -17.627 C 44.6289 -15.9668 40.8691 -11.8652 40.8691 -5.81055 C 40.8691 0.537109 45.752 4.6875 52.2949 4.6875 Z M 12.793 -53.6621 L 46.3379 -53.6621 C 47.998 -53.6621 49.3652 -55.0293 49.3652 -56.6895 C 49.3652 -58.3984 47.998 -59.7656 46.3379 -59.7656 L 12.793 -59.7656 C 11.1328 -59.7656 9.76562 -58.3984 9.76562 -56.6895 C 9.76562 -55.0293 11.1328 -53.6621 12.793 -53.6621 Z M 12.793 -39.8926 L 46.3379 -39.8926 C 48.0469 -39.8926 49.3652 -41.2598 49.3652 -42.9688 C 49.3652 -44.6289 47.998 -45.9473 46.3379 -45.9473 L 12.793 -45.9473 C 11.1328 -45.9473 9.76562 -44.6289 9.76562 -42.9688 C 9.76562 -41.2598 11.084 -39.8926 12.793 -39.8926 Z M 12.793 -26.123 L 46.3379 -26.123 C 48.0469 -26.123 49.3652 -27.4414 49.3652 -29.1504 C 49.3652 -30.8105 47.998 -32.1777 46.3379 -32.1777 L 12.793 -32.1777 C 11.1328 -32.1777 9.76562 -30.8105 9.76562 -29.1504 C 9.76562 -27.4414 11.084 -26.123 12.793 -26.123 Z"/>
  </g>
  <g id="Regular-S" transform="matrix(1 0 0 1 1400.45 696)">
   <path d="M 52.2461 4.63867 C 57.9102 4.63867 66.6016 0.341797 66.6016 -10.9863 L 66.6016 -46.3379 C 66.6016 -48.2422 66.8945 -48.5352 68.5547 -48.877 L 86.7676 -52.8809 C 88.1348 -53.1738 89.0137 -54.248 89.0137 -55.6152 L 89.0137 -70.2637 C 89.0137 -72.4121 87.2559 -73.8281 85.1562 -73.3887 L 64.8438 -68.9453 C 62.207 -68.3594 60.7422 -66.9434 60.7422 -64.6484 L 60.9863 -21.6797 C 60.9863 -19.9707 60.2051 -18.8477 58.6914 -18.5547 L 52.5879 -17.2852 C 44.6777 -15.625 41.0156 -11.5723 41.0156 -5.61523 C 41.0156 0.390625 45.7031 4.63867 52.2461 4.63867 Z M 12.6953 -53.5156 L 46.4355 -53.5156 C 48.0469 -53.5156 49.3652 -54.834 49.3652 -56.4453 C 49.3652 -58.0566 48.0469 -59.375 46.4355 -59.375 L 12.6953 -59.375 C 11.084 -59.375 9.76562 -58.0566 9.76562 -56.4453 C 9.76562 -54.834 11.084 -53.5156 12.6953 -53.5156 Z M 12.6953 -39.7461 L 46.4355 -39.7461 C 48.0957 -39.7461 49.3652 -41.0645 49.3652 -42.6758 C 49.3652 -44.2871 48.0469 -45.5566 46.4355 -45.5566 L 12.6953 -45.5566 C 11.084 -45.5566 9.76562 -44.2871 9.76562 -42.6758 C 9.76562 -41.0645 11.0352 -39.7461 12.6953 -39.7461 Z M 12.6953 -25.9277 L 46.4355 -25.9277 C 48.0957 -25.9277 49.3652 -27.1973 49.3652 -28.8574 C 49.3652 -30.4199 48.0469 -31.7383 46.4355 -31.7383 L 12.6953 -31.7383 C 11.084 -31.7383 9.76562 -30.4199 9.76562 -28.8574 C 9.76562 -27.1973 11.0352 -25.9277 12.6953 -25.9277 Z"/>
  </g>
  <g id="Light-S" transform="matrix(1 0 0 1 1103.84 696)">
   <path d="M 52.1484 4.05273 C 57.7637 4.05273 66.2598 -0.146484 66.2598 -11.3281 L 66.2598 -46.0449 C 66.2598 -47.998 66.6016 -48.3398 68.3594 -48.7305 L 86.5723 -52.7344 C 87.9395 -53.0273 88.8184 -54.1016 88.8184 -55.4688 L 88.8184 -69.6777 C 88.8184 -71.8262 87.0605 -73.2422 84.9609 -72.8027 L 64.6973 -68.3594 C 62.1094 -67.8223 60.7422 -66.4551 60.7422 -64.209 L 60.9863 -21.9727 C 60.9863 -20.2148 60.1562 -19.043 58.5938 -18.7012 L 52.4902 -17.4316 C 44.7266 -15.8203 41.1621 -11.8652 41.1621 -6.05469 C 41.1621 -0.0976562 45.7031 4.05273 52.1484 4.05273 Z M 12.1094 -53.6133 L 46.6797 -53.6133 C 47.9492 -53.6133 49.0234 -54.6387 49.0234 -55.9082 C 49.0234 -57.1777 47.9492 -58.2031 46.6797 -58.2031 L 12.1094 -58.2031 C 10.791 -58.2031 9.76562 -57.1777 9.76562 -55.9082 C 9.76562 -54.6387 10.791 -53.6133 12.1094 -53.6133 Z M 12.1094 -40.1855 L 46.6797 -40.1855 C 47.998 -40.1855 49.0234 -41.2109 49.0234 -42.4805 C 49.0234 -43.75 47.9492 -44.7754 46.6797 -44.7754 L 12.1094 -44.7754 C 10.791 -44.7754 9.76562 -43.75 9.76562 -42.4805 C 9.76562 -41.2109 10.791 -40.1855 12.1094 -40.1855 Z M 12.1094 -26.709 L 46.6797 -26.709 C 47.998 -26.709 49.0234 -27.7344 49.0234 -29.0039 C 49.0234 -30.2734 47.9492 -31.2988 46.6797 -31.2988 L 12.1094 -31.2988 C 10.791 -31.2988 9.76562 -30.2734 9.76562 -29.0039 C 9.76562 -27.7344 10.791 -26.709 12.1094 -26.709 Z"/>
  </g>
  <g id="Thin-S" transform="matrix(1 0 0 1 807.252 696)">
   <path d="M 52.002 3.22266 C 57.5684 3.22266 65.8691 -0.830078 65.8691 -11.8164 L 65.8691 -45.6543 C 65.8691 -47.6562 66.2109 -48.0957 68.0664 -48.4863 L 86.3281 -52.4902 C 87.6953 -52.7832 88.5742 -53.8574 88.5742 -55.2246 L 88.5742 -68.8477 C 88.5742 -70.9961 86.8164 -72.4121 84.7168 -71.9727 L 64.5508 -67.627 C 62.0117 -67.0898 60.7422 -65.8203 60.7422 -63.6719 L 60.9863 -22.3633 C 60.9863 -20.5078 60.1074 -19.2871 58.4473 -18.9453 L 52.3926 -17.6758 C 44.8242 -16.0645 41.3086 -12.2559 41.3086 -6.54297 C 41.3086 -0.78125 45.752 3.22266 52.002 3.22266 Z M 11.2793 -53.7109 L 47.0215 -53.7109 C 47.8516 -53.7109 48.5352 -54.3945 48.5352 -55.2246 C 48.5352 -56.0547 47.8516 -56.7383 47.0215 -56.7383 L 11.2793 -56.7383 C 10.4492 -56.7383 9.76562 -56.0547 9.76562 -55.2246 C 9.76562 -54.3945 10.4492 -53.7109 11.2793 -53.7109 Z M 11.2793 -40.7227 L 47.0215 -40.7227 C 47.9004 -40.7227 48.5352 -41.4062 48.5352 -42.2363 C 48.5352 -43.0664 47.8516 -43.75 47.0215 -43.75 L 11.2793 -43.75 C 10.4492 -43.75 9.76562 -43.0664 9.76562 -42.2363 C 9.76562 -41.4062 10.4492 -40.7227 11.2793 -40.7227 Z M 11.2793 -27.7344 L 47.0215 -27.7344 C 47.9004 -27.7344 48.5352 -28.418 48.5352 -29.248 C 48.5352 -30.0781 47.8516 -30.7617 47.0215 -30.7617 L 11.2793 -30.7617 C 10.4492 -30.7617 9.76562 -30.0781 9.76562 -29.248 C 9.76562 -28.418 10.4492 -27.7344 11.2793 -27.7344 Z"/>
  </g>
  <g id="Ultralight-S" transform="matrix(1 0 0 1 510.614 696)">
   <path d="M 51.9043 2.83203 C 57.4707 2.83203 65.625 -1.17188 65.625 -12.0605 L 65.625 -45.459 C 65.625 -47.5098 66.0156 -47.9492 67.9199 -48.3887 L 86.1816 -52.3926 C 87.5488 -52.6855 88.4277 -53.7598 88.4277 -55.127 L 88.4277 -68.457 C 88.4277 -70.6055 86.7188 -72.0215 84.6191 -71.582 L 64.4043 -67.2363 C 61.9629 -66.6992 60.7422 -65.4785 60.7422 -63.3789 L 60.9863 -22.5586 C 60.9863 -20.6543 60.0586 -19.3848 58.3496 -19.043 L 52.3438 -17.7734 C 44.873 -16.2109 41.4062 -12.4512 41.4062 -6.83594 C 41.4062 -1.12305 45.752 2.83203 51.9043 2.83203 Z M 10.8887 -53.8086 L 47.168 -53.8086 C 47.8027 -53.8086 48.291 -54.2969 48.291 -54.8828 C 48.291 -55.4688 47.8027 -55.957 47.168 -55.957 L 10.8887 -55.957 C 10.2539 -55.957 9.76562 -55.4688 9.76562 -54.8828 C 9.76562 -54.2969 10.2539 -53.8086 10.8887 -53.8086 Z M 10.8887 -41.0645 L 47.168 -41.0645 C 47.8027 -41.0645 48.291 -41.5039 48.291 -42.1387 C 48.291 -42.7246 47.8027 -43.2129 47.168 -43.2129 L 10.8887 -43.2129 C 10.2539 -43.2129 9.76562 -42.7246 9.76562 -42.1387 C 9.76562 -41.5039 10.2539 -41.0645 10.8887 -41.0645 Z M 10.8887 -28.2715 L 47.168 -28.2715 C 47.8027 -28.2715 48.291 -28.7598 48.291 -29.3457 C 48.291 -29.9805 47.8027 -30.4199 47.168 -30.4199 L 10.8887 -30.4199 C 10.2539 -30.4199 9.76562 -29.9805 9.76562 -29.3457 C 9.76562 -28.7598 10.2539 -28.2715 10.8887 -28.2715 Z"/>
  </g>
 </g>
</svg>
