<?xml version="1.0" encoding="UTF-8"?>
<!--Generator: Apple Native CoreSVG 123-->
<!DOCTYPE svg
PUBLIC "-//W3C//DTD SVG 1.1//EN"
       "http://www.w3.org/Graphics/SVG/1.1/DTD/svg11.dtd">
<svg version="1.1" xmlns="http://www.w3.org/2000/svg" xmlns:xlink="http://www.w3.org/1999/xlink" width="3300" height="2200">
 <!--glyph: "uni100382.medium", point size: 100.000000, font version: "Version 15.0d7e11", template writer version: "5"-->
 <g id="Notes">
  <rect height="2200" id="artboard" style="fill:white;opacity:1" width="3300" x="0" y="0"/>
  <line id="" style="fill:none;stroke:black;opacity:1;stroke-width:0.5;" x1="263" x2="3036" y1="292" y2="292"/>
  <text style="stroke:none;fill:black;font-family:-apple-system,&quot;SF Pro Display&quot;,&quot;SF Pro Text&quot;,Helvetica,sans-serif;font-weight:bold;" transform="matrix(1 0 0 1 263 322)">Weight/Scale Variations</text>
  <text style="stroke:none;fill:black;font-family:-apple-system,&quot;SF Pro Display&quot;,&quot;SF Pro Text&quot;,Helvetica,sans-serif;text-anchor:middle;" transform="matrix(1 0 0 1 559.711 322)">Ultralight</text>
  <text style="stroke:none;fill:black;font-family:-apple-system,&quot;SF Pro Display&quot;,&quot;SF Pro Text&quot;,Helvetica,sans-serif;text-anchor:middle;" transform="matrix(1 0 0 1 856.422 322)">Thin</text>
  <text style="stroke:none;fill:black;font-family:-apple-system,&quot;SF Pro Display&quot;,&quot;SF Pro Text&quot;,Helvetica,sans-serif;text-anchor:middle;" transform="matrix(1 0 0 1 1153.13 322)">Light</text>
  <text style="stroke:none;fill:black;font-family:-apple-system,&quot;SF Pro Display&quot;,&quot;SF Pro Text&quot;,Helvetica,sans-serif;text-anchor:middle;" transform="matrix(1 0 0 1 1449.84 322)">Regular</text>
  <text style="stroke:none;fill:black;font-family:-apple-system,&quot;SF Pro Display&quot;,&quot;SF Pro Text&quot;,Helvetica,sans-serif;text-anchor:middle;" transform="matrix(1 0 0 1 1746.56 322)">Medium</text>
  <text style="stroke:none;fill:black;font-family:-apple-system,&quot;SF Pro Display&quot;,&quot;SF Pro Text&quot;,Helvetica,sans-serif;text-anchor:middle;" transform="matrix(1 0 0 1 2043.27 322)">Semibold</text>
  <text style="stroke:none;fill:black;font-family:-apple-system,&quot;SF Pro Display&quot;,&quot;SF Pro Text&quot;,Helvetica,sans-serif;text-anchor:middle;" transform="matrix(1 0 0 1 2339.98 322)">Bold</text>
  <text style="stroke:none;fill:black;font-family:-apple-system,&quot;SF Pro Display&quot;,&quot;SF Pro Text&quot;,Helvetica,sans-serif;text-anchor:middle;" transform="matrix(1 0 0 1 2636.69 322)">Heavy</text>
  <text style="stroke:none;fill:black;font-family:-apple-system,&quot;SF Pro Display&quot;,&quot;SF Pro Text&quot;,Helvetica,sans-serif;text-anchor:middle;" transform="matrix(1 0 0 1 2933.4 322)">Black</text>
  <line id="" style="fill:none;stroke:black;opacity:1;stroke-width:0.5;" x1="263" x2="3036" y1="1903" y2="1903"/>
  <g id="" transform="matrix(1 0 0 1 263 1933)">
   <path d="M 9.24805 0.830078 C 13.5547 0.830078 17.1387 -2.74414 17.1387 -7.05078 C 17.1387 -11.3574 13.5449 -14.9316 9.23828 -14.9316 C 4.94141 -14.9316 1.36719 -11.3574 1.36719 -7.05078 C 1.36719 -2.74414 4.95117 0.830078 9.24805 0.830078 Z M 9.24805 -0.654297 C 5.70312 -0.654297 2.87109 -3.49609 2.87109 -7.05078 C 2.87109 -10.6055 5.69336 -13.4473 9.23828 -13.4473 C 12.793 -13.4473 15.6348 -10.6055 15.6445 -7.05078 C 15.6543 -3.49609 12.8027 -0.654297 9.24805 -0.654297 Z M 9.22852 -3.42773 C 9.69727 -3.42773 9.9707 -3.74023 9.9707 -4.25781 L 9.9707 -6.31836 L 12.1973 -6.31836 C 12.6953 -6.31836 13.0371 -6.57227 13.0371 -7.04102 C 13.0371 -7.51953 12.7148 -7.7832 12.1973 -7.7832 L 9.9707 -7.7832 L 9.9707 -10.0098 C 9.9707 -10.5273 9.69727 -10.8496 9.22852 -10.8496 C 8.75977 -10.8496 8.50586 -10.5078 8.50586 -10.0098 L 8.50586 -7.7832 L 6.29883 -7.7832 C 5.78125 -7.7832 5.44922 -7.51953 5.44922 -7.04102 C 5.44922 -6.57227 5.80078 -6.31836 6.29883 -6.31836 L 8.50586 -6.31836 L 8.50586 -4.25781 C 8.50586 -3.75977 8.75977 -3.42773 9.22852 -3.42773 Z"/>
  </g>
  <g id="" transform="matrix(1 0 0 1 281.506 1933)">
   <path d="M 11.709 2.91016 C 17.1582 2.91016 21.6699 -1.60156 21.6699 -7.05078 C 21.6699 -12.4902 17.1484 -17.0117 11.6992 -17.0117 C 6.25977 -17.0117 1.74805 -12.4902 1.74805 -7.05078 C 1.74805 -1.60156 6.26953 2.91016 11.709 2.91016 Z M 11.709 1.25 C 7.09961 1.25 3.41797 -2.44141 3.41797 -7.05078 C 3.41797 -11.6504 7.08984 -15.3516 11.6992 -15.3516 C 16.3086 -15.3516 20 -11.6504 20.0098 -7.05078 C 20.0195 -2.44141 16.3184 1.25 11.709 1.25 Z M 11.6895 -2.41211 C 12.207 -2.41211 12.5195 -2.77344 12.5195 -3.33984 L 12.5195 -6.23047 L 15.5762 -6.23047 C 16.123 -6.23047 16.5039 -6.51367 16.5039 -7.03125 C 16.5039 -7.55859 16.1426 -7.86133 15.5762 -7.86133 L 12.5195 -7.86133 L 12.5195 -10.9277 C 12.5195 -11.5039 12.207 -11.8555 11.6895 -11.8555 C 11.1719 -11.8555 10.8789 -11.4844 10.8789 -10.9277 L 10.8789 -7.86133 L 7.83203 -7.86133 C 7.26562 -7.86133 6.89453 -7.55859 6.89453 -7.03125 C 6.89453 -6.51367 7.28516 -6.23047 7.83203 -6.23047 L 10.8789 -6.23047 L 10.8789 -3.33984 C 10.8789 -2.79297 11.1719 -2.41211 11.6895 -2.41211 Z"/>
  </g>
  <g id="" transform="matrix(1 0 0 1 304.924 1933)">
   <path d="M 14.9707 5.67383 C 21.9336 5.67383 27.6953 -0.078125 27.6953 -7.04102 C 27.6953 -14.0039 21.9238 -19.7559 14.9609 -19.7559 C 8.00781 -19.7559 2.25586 -14.0039 2.25586 -7.04102 C 2.25586 -0.078125 8.01758 5.67383 14.9707 5.67383 Z M 14.9707 3.85742 C 8.93555 3.85742 4.08203 -1.00586 4.08203 -7.04102 C 4.08203 -13.0762 8.92578 -17.9395 14.9609 -17.9395 C 21.0059 -17.9395 25.8594 -13.0762 25.8691 -7.04102 C 25.8789 -1.00586 21.0156 3.85742 14.9707 3.85742 Z M 14.9512 -1.06445 C 15.5176 -1.06445 15.8691 -1.45508 15.8691 -2.06055 L 15.8691 -6.13281 L 20.1074 -6.13281 C 20.6934 -6.13281 21.1133 -6.46484 21.1133 -7.02148 C 21.1133 -7.59766 20.7227 -7.93945 20.1074 -7.93945 L 15.8691 -7.93945 L 15.8691 -12.1875 C 15.8691 -12.8027 15.5176 -13.1934 14.9512 -13.1934 C 14.3848 -13.1934 14.0625 -12.7832 14.0625 -12.1875 L 14.0625 -7.93945 L 9.83398 -7.93945 C 9.21875 -7.93945 8.80859 -7.59766 8.80859 -7.02148 C 8.80859 -6.46484 9.23828 -6.13281 9.83398 -6.13281 L 14.0625 -6.13281 L 14.0625 -2.06055 C 14.0625 -1.47461 14.3848 -1.06445 14.9512 -1.06445 Z"/>
  </g>
  <text style="stroke:none;fill:black;font-family:-apple-system,&quot;SF Pro Display&quot;,&quot;SF Pro Text&quot;,Helvetica,sans-serif;font-weight:bold;" transform="matrix(1 0 0 1 263 1953)">Design Variations</text>
  <text style="stroke:none;fill:black;font-family:-apple-system,&quot;SF Pro Display&quot;,&quot;SF Pro Text&quot;,Helvetica,sans-serif;" transform="matrix(1 0 0 1 263 1971)">Symbols are supported in up to nine weights and three scales.</text>
  <text style="stroke:none;fill:black;font-family:-apple-system,&quot;SF Pro Display&quot;,&quot;SF Pro Text&quot;,Helvetica,sans-serif;" transform="matrix(1 0 0 1 263 1989)">For optimal layout with text and other symbols, vertically align</text>
  <text style="stroke:none;fill:black;font-family:-apple-system,&quot;SF Pro Display&quot;,&quot;SF Pro Text&quot;,Helvetica,sans-serif;" transform="matrix(1 0 0 1 263 2007)">symbols with the adjacent text.</text>
  <rect height="14" id="" style="fill:#00AEEF;stroke:none;opacity:0.4;" width="3" x="776" y="1919"/>
  <g id="" transform="matrix(1 0 0 1 779 1933)">
   <path d="M 10.5273 0 L 12.373 0 L 7.17773 -14.0918 L 5.43945 -14.0918 L 0.244141 0 L 2.08984 0 L 3.50586 -4.0332 L 9.11133 -4.0332 Z M 6.2793 -11.9531 L 6.33789 -11.9531 L 8.59375 -5.52734 L 4.02344 -5.52734 Z"/>
  </g>
  <rect height="14" id="" style="fill:#00AEEF;stroke:none;opacity:0.4;" width="3" x="791.617" y="1919"/>
  <text style="stroke:none;fill:black;font-family:-apple-system,&quot;SF Pro Display&quot;,&quot;SF Pro Text&quot;,Helvetica,sans-serif;font-weight:bold;" transform="matrix(1 0 0 1 776 1953)">Margins</text>
  <text style="stroke:none;fill:black;font-family:-apple-system,&quot;SF Pro Display&quot;,&quot;SF Pro Text&quot;,Helvetica,sans-serif;" transform="matrix(1 0 0 1 776 1971)">Leading and trailing margins on the left and right side of each symbol</text>
  <text style="stroke:none;fill:black;font-family:-apple-system,&quot;SF Pro Display&quot;,&quot;SF Pro Text&quot;,Helvetica,sans-serif;" transform="matrix(1 0 0 1 776 1989)">can be adjusted by modifying the width of the blue rectangles.</text>
  <text style="stroke:none;fill:black;font-family:-apple-system,&quot;SF Pro Display&quot;,&quot;SF Pro Text&quot;,Helvetica,sans-serif;" transform="matrix(1 0 0 1 776 2007)">Modifications are automatically applied proportionally to all</text>
  <text style="stroke:none;fill:black;font-family:-apple-system,&quot;SF Pro Display&quot;,&quot;SF Pro Text&quot;,Helvetica,sans-serif;" transform="matrix(1 0 0 1 776 2025)">scales and weights.</text>
  <g id="" transform="matrix(1 0 0 1 1289 1933)">
   <path d="M 2.83203 3.11523 L 4.375 4.6582 C 5.22461 5.48828 6.19141 5.41992 7.06055 4.46289 L 17.2754 -6.66016 C 17.7051 -6.36719 18.0957 -6.37695 18.5645 -6.47461 L 19.6094 -6.68945 L 20.3027 -5.99609 L 20.2539 -5.47852 C 20.1855 -4.95117 20.3516 -4.53125 20.8496 -4.0332 L 21.6602 -3.22266 C 22.168 -2.71484 22.8223 -2.68555 23.3008 -3.16406 L 26.5527 -6.41602 C 27.0312 -6.89453 27.0117 -7.54883 26.5039 -8.05664 L 25.6836 -8.87695 C 25.1855 -9.375 24.7754 -9.55078 24.2383 -9.47266 L 23.7109 -9.41406 L 23.0566 -10.0781 L 23.3398 -11.2207 C 23.4863 -11.7871 23.3398 -12.2559 22.7148 -12.8613 L 20.3027 -15.2539 C 16.7578 -18.7793 12.2266 -18.6719 9.11133 -15.5371 C 8.69141 -15.1074 8.64258 -14.5215 8.91602 -14.0918 C 9.15039 -13.7207 9.62891 -13.4961 10.2734 -13.6621 C 11.7871 -14.043 13.3008 -13.9258 14.7852 -12.9199 L 14.1602 -11.3379 C 13.9258 -10.752 13.9453 -10.2734 14.1797 -9.83398 L 3.01758 0.439453 C 2.08008 1.30859 1.97266 2.25586 2.83203 3.11523 Z M 10.6738 -15.1465 C 13.3398 -17.1387 16.6504 -16.8262 19.0527 -14.4141 L 21.6797 -11.8066 C 21.9141 -11.5723 21.9434 -11.3867 21.8848 -11.0938 L 21.5039 -9.53125 L 23.0762 -7.95898 L 24.043 -8.04688 C 24.3262 -8.07617 24.4141 -8.05664 24.6387 -7.83203 L 25.2637 -7.20703 L 22.5098 -4.46289 L 21.8848 -5.07812 C 21.6602 -5.30273 21.6406 -5.40039 21.6699 -5.68359 L 21.7578 -6.64062 L 20.1953 -8.20312 L 18.5742 -7.89062 C 18.291 -7.83203 18.1445 -7.83203 17.9102 -8.07617 L 15.7324 -10.2539 C 15.5078 -10.4883 15.4785 -10.625 15.6055 -10.9473 L 16.5527 -13.2227 C 14.9512 -14.7559 12.8418 -15.6055 10.8008 -14.9512 C 10.7129 -14.9219 10.6445 -14.9414 10.6152 -14.9805 C 10.5859 -15.0293 10.5859 -15.0781 10.6738 -15.1465 Z M 4.10156 2.41211 C 3.61328 1.91406 3.78906 1.61133 4.12109 1.30859 L 15.0781 -8.80859 L 16.3086 -7.57812 L 6.15234 3.34961 C 5.84961 3.68164 5.46875 3.7793 5.06836 3.37891 Z"/>
  </g>
  <text style="stroke:none;fill:black;font-family:-apple-system,&quot;SF Pro Display&quot;,&quot;SF Pro Text&quot;,Helvetica,sans-serif;font-weight:bold;" transform="matrix(1 0 0 1 1289 1953)">Exporting</text>
  <text style="stroke:none;fill:black;font-family:-apple-system,&quot;SF Pro Display&quot;,&quot;SF Pro Text&quot;,Helvetica,sans-serif;" transform="matrix(1 0 0 1 1289 1971)">Symbols should be outlined when exporting to ensure the</text>
  <text style="stroke:none;fill:black;font-family:-apple-system,&quot;SF Pro Display&quot;,&quot;SF Pro Text&quot;,Helvetica,sans-serif;" transform="matrix(1 0 0 1 1289 1989)">design is preserved when submitting to Xcode.</text>
  <text id="template-version" style="stroke:none;fill:black;font-family:-apple-system,&quot;SF Pro Display&quot;,&quot;SF Pro Text&quot;,Helvetica,sans-serif;text-anchor:end;" transform="matrix(1 0 0 1 3036 1933)">Template v.1.0</text>
  <text style="stroke:none;fill:black;font-family:-apple-system,&quot;SF Pro Display&quot;,&quot;SF Pro Text&quot;,Helvetica,sans-serif;text-anchor:end;" transform="matrix(1 0 0 1 3036 1951)">Generated from gobackward.10</text>
  <text style="stroke:none;fill:black;font-family:-apple-system,&quot;SF Pro Display&quot;,&quot;SF Pro Text&quot;,Helvetica,sans-serif;text-anchor:end;" transform="matrix(1 0 0 1 3036 1969)">Typeset at 100 points</text>
  <text style="stroke:none;fill:black;font-family:-apple-system,&quot;SF Pro Display&quot;,&quot;SF Pro Text&quot;,Helvetica,sans-serif;" transform="matrix(1 0 0 1 263 726)">Small</text>
  <text style="stroke:none;fill:black;font-family:-apple-system,&quot;SF Pro Display&quot;,&quot;SF Pro Text&quot;,Helvetica,sans-serif;" transform="matrix(1 0 0 1 263 1156)">Medium</text>
  <text style="stroke:none;fill:black;font-family:-apple-system,&quot;SF Pro Display&quot;,&quot;SF Pro Text&quot;,Helvetica,sans-serif;" transform="matrix(1 0 0 1 263 1586)">Large</text>
 </g>
 <g id="Guides">
  <g id="H-reference" style="fill:#27AAE1;stroke:none;" transform="matrix(1 0 0 1 339 696)">
   <path d="M 54.9316 0 L 57.666 0 L 30.5664 -70.459 L 28.0762 -70.459 L 0.976562 0 L 3.66211 0 L 12.9395 -24.4629 L 45.7031 -24.4629 Z M 29.1992 -67.0898 L 29.4434 -67.0898 L 44.8242 -26.709 L 13.8184 -26.709 Z"/>
  </g>
  <line id="Baseline-S" style="fill:none;stroke:#27AAE1;opacity:1;stroke-width:0.577;" x1="263" x2="3036" y1="696" y2="696"/>
  <line id="Capline-S" style="fill:none;stroke:#27AAE1;opacity:1;stroke-width:0.577;" x1="263" x2="3036" y1="625.541" y2="625.541"/>
  <g id="H-reference" style="fill:#27AAE1;stroke:none;" transform="matrix(1 0 0 1 339 1126)">
   <path d="M 54.9316 0 L 57.666 0 L 30.5664 -70.459 L 28.0762 -70.459 L 0.976562 0 L 3.66211 0 L 12.9395 -24.4629 L 45.7031 -24.4629 Z M 29.1992 -67.0898 L 29.4434 -67.0898 L 44.8242 -26.709 L 13.8184 -26.709 Z"/>
  </g>
  <line id="Baseline-M" style="fill:none;stroke:#27AAE1;opacity:1;stroke-width:0.577;" x1="263" x2="3036" y1="1126" y2="1126"/>
  <line id="Capline-M" style="fill:none;stroke:#27AAE1;opacity:1;stroke-width:0.577;" x1="263" x2="3036" y1="1055.54" y2="1055.54"/>
  <g id="H-reference" style="fill:#27AAE1;stroke:none;" transform="matrix(1 0 0 1 339 1556)">
   <path d="M 54.9316 0 L 57.666 0 L 30.5664 -70.459 L 28.0762 -70.459 L 0.976562 0 L 3.66211 0 L 12.9395 -24.4629 L 45.7031 -24.4629 Z M 29.1992 -67.0898 L 29.4434 -67.0898 L 44.8242 -26.709 L 13.8184 -26.709 Z"/>
  </g>
  <line id="Baseline-L" style="fill:none;stroke:#27AAE1;opacity:1;stroke-width:0.577;" x1="263" x2="3036" y1="1556" y2="1556"/>
  <line id="Capline-L" style="fill:none;stroke:#27AAE1;opacity:1;stroke-width:0.577;" x1="263" x2="3036" y1="1485.54" y2="1485.54"/>
  <rect height="119.336" id="left-margin" style="fill:#00AEEF;stroke:none;opacity:0.4;" width="8.74023" x="1391.3" y="1030.79"/>
  <rect height="119.336" id="right-margin" style="fill:#00AEEF;stroke:none;opacity:0.4;" width="8.74023" x="1499.65" y="1030.79"/>
 </g>
 <g id="Symbols">
  <g id="Black-L" transform="matrix(1 0 0 1 2854.05 1556)">
   <path d="M 79.3457 32.8125 C 116.748 32.8125 147.412 2.14844 147.412 -35.2539 C 147.412 -67.334 124.951 -94.3848 95.0195 -101.514 L 95.0195 -111.572 C 95.0195 -117.578 89.6973 -119.434 84.3262 -115.479 L 59.5215 -97.3145 C 55.2246 -94.1895 55.3223 -89.0137 59.5215 -85.9375 L 84.3262 -67.6758 C 89.6484 -63.7695 95.0195 -65.4297 95.0195 -71.6309 L 95.0195 -80.2734 C 113.672 -73.8281 126.953 -56.1523 126.953 -35.2539 C 126.953 -8.88672 105.713 12.3535 79.3457 12.3535 C 52.9785 12.3535 31.6895 -8.88672 31.7383 -35.2539 C 31.7383 -48.5352 37.0117 -59.8145 45.8984 -68.9941 C 50.1465 -73.584 51.6113 -79.6875 47.3145 -84.3262 C 43.457 -88.5254 37.3535 -88.5742 31.8848 -83.6914 C 19.5801 -73.0957 11.2793 -52.9297 11.2793 -35.2539 C 11.2793 2.14844 41.9434 32.8125 79.3457 32.8125 Z M 94.5312 -7.27539 C 104.346 -7.27539 112.305 -16.6504 112.305 -33.252 C 112.305 -49.8535 104.346 -59.2285 94.5312 -59.2285 C 84.668 -59.2285 77.1484 -51.2207 77.1484 -33.252 C 77.1484 -15.332 84.668 -7.27539 94.5312 -7.27539 Z M 63.3789 -7.12891 C 67.3828 -7.12891 69.9707 -9.66797 69.9707 -13.916 L 69.9707 -50.4395 C 69.9707 -55.957 66.6504 -58.9355 61.7676 -58.9355 C 58.9844 -58.9355 56.543 -58.0566 53.418 -55.2734 L 47.1191 -49.707 C 44.6777 -47.4121 43.6523 -45.6543 43.6523 -43.2617 C 43.6523 -40.332 45.9961 -37.9395 48.9258 -37.9395 C 50.9277 -37.9395 52.2949 -38.5742 53.7598 -40.4785 L 56.5918 -43.9941 L 56.8848 -43.9941 L 56.8848 -13.916 C 56.8848 -9.7168 59.4238 -7.12891 63.3789 -7.12891 Z M 94.7754 -19.043 C 91.6504 -19.043 89.9902 -23.6328 89.9902 -33.252 C 89.9902 -42.9199 91.6016 -47.4609 94.7754 -47.4609 C 97.9004 -47.4609 99.5117 -42.9199 99.5117 -33.252 C 99.5117 -23.6328 97.9004 -19.043 94.7754 -19.043 Z"/>
  </g>
  <g id="Heavy-L" transform="matrix(1 0 0 1 2558.39 1556)">
   <path d="M 78.2715 31.7383 C 115.088 31.7383 145.312 1.5625 145.312 -35.2539 C 145.312 -66.9922 122.852 -93.8477 93.0176 -100.635 L 93.0176 -110.498 C 93.0176 -116.016 88.3301 -117.725 83.4961 -114.16 L 59.8633 -96.9727 C 56.0059 -94.1895 56.0547 -89.5996 59.8633 -86.8164 L 83.4961 -69.5801 C 88.3301 -66.0645 93.0176 -67.627 93.0176 -73.2422 L 93.0176 -82.2754 C 113.086 -76.0254 127.49 -57.4219 127.49 -35.2539 C 127.49 -8.00781 105.566 13.9648 78.2715 13.9648 C 51.0254 13.9648 29.0039 -8.00781 29.0527 -35.2539 C 29.0527 -49.8047 35.3027 -62.3047 45.459 -71.582 C 49.2188 -75.4883 50.5371 -80.7617 46.9238 -84.8633 C 43.6523 -88.5254 38.2812 -88.7207 33.5938 -84.5703 C 20.2148 -73.7793 11.2793 -53.8574 11.2793 -35.2539 C 11.2793 1.5625 41.5039 31.7383 78.2715 31.7383 Z M 93.457 -7.66602 C 103.418 -7.66602 111.084 -17.1387 111.084 -33.3984 C 111.084 -49.6582 103.418 -59.2285 93.457 -59.2285 C 83.4961 -59.2285 76.123 -50.6836 76.123 -33.3984 C 76.123 -16.1133 83.4961 -7.66602 93.457 -7.66602 Z M 61.8164 -7.71484 C 65.332 -7.71484 67.6758 -10.0586 67.6758 -13.8184 L 67.6758 -51.3672 C 67.6758 -56.2012 64.7949 -58.8867 60.498 -58.8867 C 57.959 -58.8867 55.9082 -58.1055 53.0273 -55.6641 L 45.9961 -49.9023 C 43.8477 -47.998 42.9199 -46.4355 42.9199 -44.2871 C 42.9199 -41.6016 45.0195 -39.4043 47.7051 -39.4043 C 49.4629 -39.4043 50.6348 -39.9414 52.002 -41.5527 L 55.8594 -45.459 L 56.0547 -45.459 L 56.0547 -13.8184 C 56.0547 -10.0586 58.3008 -7.71484 61.8164 -7.71484 Z M 93.6523 -18.2129 C 89.7949 -18.2129 87.5977 -23.3887 87.5977 -33.3984 C 87.5977 -43.457 89.7461 -48.6816 93.6523 -48.6816 C 97.5098 -48.6816 99.6094 -43.5059 99.6094 -33.3984 C 99.6094 -23.3887 97.4609 -18.2129 93.6523 -18.2129 Z"/>
  </g>
  <g id="Bold-L" transform="matrix(1 0 0 1 2262.88 1556)">
   <path d="M 77.0996 30.5664 C 113.232 30.5664 142.92 0.878906 142.92 -35.2539 C 142.92 -66.6504 120.459 -93.2129 90.8691 -99.6094 L 90.8691 -109.277 C 90.8691 -114.258 86.8164 -115.771 82.5684 -112.695 L 60.2539 -96.6309 C 56.8359 -94.1895 56.8848 -90.2344 60.2539 -87.793 L 82.5684 -71.7285 C 86.8164 -68.6035 90.8691 -70.0195 90.8691 -75.0977 L 90.8691 -84.4238 C 112.402 -78.4668 128.125 -58.7891 128.125 -35.2539 C 128.125 -6.93359 105.371 15.8203 77.0996 15.8203 C 48.8281 15.8203 26.0254 -6.93359 26.0254 -35.2539 C 26.0742 -51.2207 33.3984 -65.0879 45.0195 -74.5117 C 48.1934 -77.6367 49.2676 -81.9336 46.4355 -85.4004 C 43.8965 -88.5742 39.3555 -88.8672 35.4492 -85.5469 C 20.9473 -74.5117 11.2793 -54.834 11.2793 -35.2539 C 11.2793 0.878906 41.0156 30.5664 77.0996 30.5664 Z M 92.2363 -8.10547 C 102.344 -8.10547 109.766 -17.7246 109.766 -33.5938 C 109.766 -49.4629 102.344 -59.1797 92.2363 -59.1797 C 82.1289 -59.1797 74.9512 -50.1465 74.9512 -33.5938 C 74.9512 -17.041 82.1289 -8.10547 92.2363 -8.10547 Z M 60.0586 -8.44727 C 63.0859 -8.44727 65.1367 -10.4492 65.1367 -13.7207 L 65.1367 -52.4414 C 65.1367 -56.4941 62.6953 -58.8867 59.0332 -58.8867 C 56.8848 -58.8867 55.127 -58.2031 52.5879 -56.1035 L 44.7266 -50.1953 C 42.9199 -48.6328 42.0898 -47.2656 42.0898 -45.4102 C 42.0898 -43.0176 43.9941 -41.0645 46.3379 -41.0645 C 47.8027 -41.0645 48.7793 -41.4551 50.0488 -42.8223 L 54.9805 -47.0703 L 55.127 -47.0703 L 55.127 -13.7207 C 55.127 -10.498 57.0312 -8.44727 60.0586 -8.44727 Z M 92.3828 -17.2852 C 87.7441 -17.2852 84.9121 -23.1445 84.9121 -33.5938 C 84.9121 -44.1406 87.6953 -50 92.3828 -50 C 97.0215 -50 99.7559 -44.1406 99.7559 -33.5938 C 99.7559 -23.1445 97.0215 -17.2852 92.3828 -17.2852 Z"/>
  </g>
  <g id="Semibold-L" transform="matrix(1 0 0 1 1966.97 1556)">
   <path d="M 76.2695 29.7852 C 111.914 29.7852 141.309 0.390625 141.309 -35.2051 C 141.309 -66.4062 118.848 -92.8223 89.3555 -98.9258 L 89.3555 -108.447 C 89.3555 -113.086 85.791 -114.404 81.9336 -111.67 L 60.5469 -96.3867 C 57.4219 -94.1895 57.4219 -90.7227 60.5469 -88.4277 L 81.9336 -73.1934 C 85.791 -70.4102 89.3555 -71.6797 89.3555 -76.3672 L 89.3555 -85.9375 C 111.963 -80.1758 128.564 -59.7168 128.564 -35.2051 C 128.564 -6.25 105.273 17.0898 76.2695 17.0898 C 47.3145 17.0898 23.9258 -6.25 23.9746 -35.2051 C 24.0234 -52.1973 32.0801 -66.9922 44.6777 -76.5137 C 47.5098 -79.1016 48.4375 -82.7637 46.1426 -85.791 C 44.043 -88.5742 40.0879 -89.0137 36.7676 -86.2305 C 21.4355 -75 11.2793 -55.5176 11.2793 -35.2051 C 11.2793 0.390625 40.6738 29.7852 76.2695 29.7852 Z M 91.4062 -8.34961 C 101.611 -8.34961 108.838 -18.1152 108.838 -33.6914 C 108.838 -49.3652 101.611 -59.1309 91.4062 -59.1309 C 81.2012 -59.1309 74.1211 -49.7559 74.1211 -33.6914 C 74.1211 -17.6758 81.2012 -8.34961 91.4062 -8.34961 Z M 58.8379 -8.88672 C 61.5723 -8.88672 63.3301 -10.7422 63.3301 -13.6719 L 63.3301 -53.125 C 63.3301 -56.7383 61.2793 -58.8379 58.0566 -58.8379 C 56.1035 -58.8379 54.6387 -58.2031 52.2461 -56.3965 L 43.8477 -50.3906 C 42.2363 -49.0723 41.5039 -47.8516 41.5039 -46.1914 C 41.5039 -43.9941 43.2617 -42.1875 45.3613 -42.1875 C 46.6797 -42.1875 47.4609 -42.5293 48.6816 -43.6523 L 54.3945 -48.1934 L 54.4434 -48.1934 L 54.4434 -13.6719 C 54.4434 -10.7422 56.1523 -8.88672 58.8379 -8.88672 Z M 91.5039 -16.6016 C 86.3281 -16.6016 83.0566 -22.9492 83.0566 -33.6914 C 83.0566 -44.5801 86.2793 -50.8789 91.5039 -50.8789 C 96.7285 -50.8789 99.9023 -44.6289 99.9023 -33.6914 C 99.9023 -22.9492 96.6797 -16.6016 91.5039 -16.6016 Z"/>
  </g>
  <g id="Medium-L" transform="matrix(1 0 0 1 1670.87 1556)">
   <path d="M 75.6836 29.1992 C 110.938 29.1992 140.088 0.0488281 140.088 -35.2051 C 140.088 -66.2109 117.578 -92.4805 88.1836 -98.3887 L 88.1836 -107.861 C 88.1836 -112.158 85.0098 -113.379 81.4453 -110.889 L 60.791 -96.2402 C 57.8613 -94.1895 57.8613 -91.0645 60.791 -88.9648 L 81.4453 -74.3164 C 84.9609 -71.7285 88.1836 -72.9492 88.1836 -77.3438 L 88.1836 -87.0117 C 111.621 -81.4453 128.906 -60.4492 128.906 -35.2051 C 128.906 -5.71289 105.176 18.0176 75.6836 18.0176 C 46.1426 18.0176 22.3633 -5.71289 22.4121 -35.2051 C 22.4609 -52.9297 31.1035 -68.457 44.4336 -78.0273 C 46.9727 -80.2246 47.8027 -83.3984 45.8984 -86.084 C 44.1895 -88.5742 40.6738 -89.1113 37.7441 -86.7676 C 21.8262 -75.3906 11.2793 -56.0547 11.2793 -35.2051 C 11.2793 0.0488281 40.3809 29.1992 75.6836 29.1992 Z M 90.8203 -8.59375 C 101.074 -8.59375 108.154 -18.4082 108.154 -33.7891 C 108.154 -49.2188 101.074 -59.1309 90.8203 -59.1309 C 80.4688 -59.1309 73.4863 -49.4629 73.4863 -33.7891 C 73.4863 -18.1641 80.4688 -8.59375 90.8203 -8.59375 Z M 57.9102 -9.27734 C 60.4004 -9.27734 62.0117 -10.9375 62.0117 -13.623 L 62.0117 -53.7109 C 62.0117 -56.8848 60.2051 -58.7891 57.2754 -58.7891 C 55.5176 -58.7891 54.248 -58.252 52.002 -56.6406 L 43.2129 -50.5371 C 41.748 -49.4141 41.0645 -48.291 41.0645 -46.7773 C 41.0645 -44.7266 42.6758 -43.0664 44.6777 -43.0664 C 45.8496 -43.0664 46.4844 -43.3594 47.6562 -44.2871 L 53.9551 -49.0234 L 53.9551 -13.623 C 53.9551 -10.9863 55.5176 -9.27734 57.9102 -9.27734 Z M 90.8203 -16.1133 C 85.2051 -16.1133 81.6406 -22.8027 81.6406 -33.7891 C 81.6406 -44.9219 85.2051 -51.6113 90.8203 -51.6113 C 96.4844 -51.6113 99.9512 -44.9707 99.9512 -33.7891 C 99.9512 -22.8027 96.4355 -16.1133 90.8203 -16.1133 Z"/>
  </g>
  <g id="Regular-L" transform="matrix(1 0 0 1 1374.97 1556)">
   <path d="M 74.8535 28.3691 C 109.668 28.3691 138.477 -0.390625 138.477 -35.2051 C 138.477 -66.0156 115.967 -92.0898 86.6699 -97.7051 L 86.6699 -107.031 C 86.6699 -110.986 83.9355 -112.061 80.8594 -109.863 L 61.0352 -95.9961 C 58.4473 -94.1895 58.3984 -91.5039 61.0352 -89.5996 L 80.8105 -75.7324 C 83.9355 -73.4863 86.6699 -74.6094 86.6699 -78.5645 L 86.6699 -88.4277 C 111.182 -83.1055 129.297 -61.377 129.297 -35.2051 C 129.297 -5.0293 105.078 19.2871 74.8535 19.2871 C 44.6777 19.2871 20.3125 -5.0293 20.3613 -35.2051 C 20.4102 -53.9062 29.7852 -70.3125 44.0918 -80.0293 C 46.2891 -81.6406 46.9727 -84.1797 45.6055 -86.4258 C 44.3359 -88.5742 41.4062 -89.209 39.0137 -87.4023 C 22.3145 -75.9277 11.2793 -56.7383 11.2793 -35.2051 C 11.2793 -0.390625 40.0879 28.3691 74.8535 28.3691 Z M 89.9902 -8.88672 C 100.342 -8.88672 107.227 -18.7988 107.227 -33.9355 C 107.227 -49.1211 100.342 -59.1309 89.9902 -59.1309 C 79.5898 -59.1309 72.7051 -49.1211 72.7051 -33.9355 C 72.7051 -18.7988 79.5898 -8.88672 89.9902 -8.88672 Z M 56.7383 -9.7168 C 58.8379 -9.7168 60.2539 -11.1816 60.2539 -13.5254 L 60.2539 -54.3945 C 60.2539 -57.0801 58.7891 -58.7891 56.2988 -58.7891 C 54.7852 -58.7891 53.7598 -58.3008 51.709 -56.9336 L 42.334 -50.6836 C 41.1133 -49.8535 40.5273 -48.877 40.5273 -47.5098 C 40.5273 -45.7031 41.9434 -44.1895 43.75 -44.1895 C 44.7266 -44.1895 45.2148 -44.3848 46.2891 -45.1172 L 53.3203 -50.0977 L 53.3203 -13.5254 C 53.3203 -11.2793 54.6875 -9.7168 56.7383 -9.7168 Z M 89.9902 -15.4785 C 83.8379 -15.4785 79.834 -22.6562 79.834 -33.9355 C 79.834 -45.3613 83.7891 -52.4902 89.9902 -52.4902 C 96.1426 -52.4902 100.049 -45.4102 100.049 -33.9355 C 100.049 -22.6562 96.0938 -15.4785 89.9902 -15.4785 Z"/>
  </g>
  <g id="Light-L" transform="matrix(1 0 0 1 1079.18 1556)">
   <path d="M 73.9258 27.4902 C 108.301 27.4902 136.621 -0.830078 136.621 -35.1562 C 136.621 -65.6738 114.307 -91.4062 85.3027 -96.7773 L 85.3027 -106.641 C 85.3027 -109.863 83.0078 -110.84 80.3711 -108.984 L 60.9863 -95.4102 C 58.7402 -93.8477 58.7402 -91.6504 60.9863 -90.0391 L 80.3223 -76.5137 C 83.0078 -74.5605 85.3027 -75.5371 85.3027 -78.8086 L 85.3027 -89.7949 C 110.693 -84.5703 129.688 -62.1582 129.688 -35.1562 C 129.688 -4.3457 104.785 20.6055 73.9258 20.6055 C 43.1152 20.6055 18.1641 -4.3457 18.1641 -35.1562 C 18.2129 -54.9316 28.4668 -72.2168 43.9453 -82.0312 C 45.6055 -83.2031 46.1426 -85.1562 45.1172 -86.8652 C 44.1895 -88.5254 41.9922 -89.0137 40.1855 -87.6953 C 22.8516 -76.5137 11.2793 -57.0801 11.2793 -35.1562 C 11.2793 -0.830078 39.5996 27.4902 73.9258 27.4902 Z M 88.916 -9.08203 C 99.2188 -9.08203 106.104 -18.9941 106.104 -34.1309 C 106.104 -49.2676 99.2188 -59.2773 88.916 -59.2773 C 78.5645 -59.2773 71.6797 -49.2676 71.6797 -34.1309 C 71.6797 -18.9941 78.5645 -9.08203 88.916 -9.08203 Z M 55.0781 -10.0586 C 56.7383 -10.0586 57.9102 -11.2305 57.9102 -13.0859 L 57.9102 -55.7129 C 57.9102 -57.7637 56.7383 -59.1309 54.6875 -59.1309 C 53.418 -59.1309 52.5879 -58.7402 50.9277 -57.666 L 40.6738 -50.8789 C 39.6484 -50.1953 39.209 -49.4141 39.209 -48.3398 C 39.209 -46.875 40.332 -45.7031 41.7969 -45.7031 C 42.5781 -45.7031 42.9199 -45.8496 43.7012 -46.3867 L 52.2461 -52.1973 L 52.3926 -52.1973 L 52.3926 -13.0859 C 52.3926 -11.2793 53.4668 -10.0586 55.0781 -10.0586 Z M 88.916 -14.3555 C 81.9336 -14.3555 77.3438 -22.168 77.3438 -34.1309 C 77.3438 -46.1914 81.9336 -54.0039 88.916 -54.0039 C 95.8496 -54.0039 100.391 -46.1914 100.391 -34.1309 C 100.391 -22.168 95.8008 -14.3555 88.916 -14.3555 Z"/>
  </g>
  <g id="Thin-L" transform="matrix(1 0 0 1 783.693 1556)">
   <path d="M 72.7051 26.3184 C 106.494 26.3184 134.18 -1.36719 134.18 -35.1074 C 134.18 -65.2344 112.158 -90.5273 83.4473 -95.6055 L 83.4473 -106.152 C 83.4473 -108.447 81.7871 -109.277 79.7363 -107.812 L 60.9375 -94.6777 C 59.1797 -93.457 59.1797 -91.8457 60.9375 -90.625 L 79.7363 -77.4902 C 81.7871 -75.9766 83.4473 -76.8555 83.4473 -79.1016 L 83.4473 -91.6016 C 110.01 -86.5723 130.176 -63.1836 130.176 -35.1074 C 130.176 -3.41797 104.443 22.3145 72.7051 22.3145 C 41.0156 22.3145 15.2832 -3.41797 15.2832 -35.1074 C 15.2832 -56.25 26.709 -74.6582 43.75 -84.668 C 44.7266 -85.3027 45.0195 -86.4746 44.4824 -87.4512 C 43.9941 -88.3789 42.7734 -88.7207 41.6992 -88.0371 C 23.4863 -77.2949 11.2793 -57.5684 11.2793 -35.1074 C 11.2793 -1.36719 38.9648 26.3184 72.7051 26.3184 Z M 52.9297 -10.4492 C 54.0039 -10.4492 54.7852 -11.2793 54.7852 -12.5 L 54.7852 -57.4219 C 54.7852 -58.6914 54.0039 -59.5703 52.5879 -59.5703 C 51.6602 -59.5703 51.0742 -59.3262 49.9023 -58.5938 L 38.4766 -51.123 C 37.7441 -50.6836 37.4512 -50.1953 37.4512 -49.4629 C 37.4512 -48.4375 38.2324 -47.7051 39.209 -47.7051 C 39.6973 -47.7051 39.8926 -47.8027 40.332 -48.0957 L 50.7812 -54.8828 L 51.123 -54.8828 L 51.123 -12.5 C 51.123 -11.2793 51.8555 -10.4492 52.9297 -10.4492 Z M 87.5 -9.32617 C 97.6562 -9.32617 104.59 -19.2871 104.59 -34.375 C 104.59 -49.4629 97.6562 -59.5215 87.5 -59.5215 C 77.2461 -59.5215 70.3613 -49.4629 70.3613 -34.375 C 70.3613 -19.2871 77.2461 -9.32617 87.5 -9.32617 Z M 87.5 -12.8418 C 79.4922 -12.8418 74.0723 -21.5332 74.0723 -34.375 C 74.0723 -47.2656 79.4922 -55.957 87.5 -55.957 C 95.4102 -55.957 100.83 -47.2656 100.83 -34.375 C 100.83 -21.5332 95.4102 -12.8418 87.5 -12.8418 Z"/>
  </g>
  <g id="Ultralight-L" transform="matrix(1 0 0 1 487.616 1556)">
   <path d="M 72.1191 25.7324 C 105.566 25.7324 132.91 -1.61133 132.91 -35.1074 C 132.91 -65.0391 111.035 -90.0879 82.4707 -95.0195 L 82.4707 -105.908 C 82.4707 -107.715 81.2012 -108.447 79.3945 -107.178 L 60.8887 -94.2871 C 59.375 -93.2129 59.375 -91.9434 60.8887 -90.918 L 79.3945 -77.9785 C 81.2012 -76.709 82.4707 -77.4902 82.4707 -79.248 L 82.4707 -92.4805 C 109.668 -87.5488 130.42 -63.6719 130.42 -35.1074 C 130.42 -2.97852 104.248 23.2422 72.1191 23.2422 C 39.9414 23.2422 13.7695 -2.97852 13.7695 -35.1074 C 13.7695 -56.8848 25.7812 -75.9277 43.6523 -86.0352 C 44.2871 -86.377 44.4824 -87.1582 44.1895 -87.7441 C 43.8965 -88.3301 43.1641 -88.623 42.4316 -88.1836 C 23.8281 -77.6855 11.2793 -57.8125 11.2793 -35.1074 C 11.2793 -1.61133 38.623 25.7324 72.1191 25.7324 Z M 51.8555 -10.6934 C 52.5879 -10.6934 53.2227 -11.3281 53.2227 -12.207 L 53.2227 -58.3008 C 53.2227 -59.1309 52.5879 -59.8145 51.5137 -59.8145 C 50.7324 -59.8145 50.293 -59.6191 49.3652 -59.082 L 37.3535 -51.2695 C 36.7676 -50.9277 36.5723 -50.5859 36.5723 -50 C 36.5723 -49.2676 37.1094 -48.7305 37.8906 -48.7305 C 38.2324 -48.7305 38.3789 -48.7793 38.5742 -48.9746 L 50 -56.2988 L 50.4395 -56.2988 L 50.4395 -12.207 C 50.4395 -11.3281 51.0254 -10.6934 51.8555 -10.6934 Z M 86.7676 -9.42383 C 96.875 -9.42383 103.809 -19.4336 103.809 -34.5215 C 103.809 -49.5605 96.875 -59.6191 86.7676 -59.6191 C 76.5625 -59.6191 69.6777 -49.5605 69.6777 -34.5215 C 69.6777 -19.4336 76.5625 -9.42383 86.7676 -9.42383 Z M 86.7676 -12.0605 C 78.2227 -12.0605 72.4121 -21.1914 72.4121 -34.5215 C 72.4121 -47.8516 78.2227 -56.9824 86.7676 -56.9824 C 95.2148 -56.9824 101.074 -47.8516 101.074 -34.5215 C 101.074 -21.1914 95.2148 -12.0605 86.7676 -12.0605 Z"/>
  </g>
  <g id="Black-M" transform="matrix(1 0 0 1 2870.97 1126)">
   <path d="M 62.4023 18.4082 C 91.9922 18.4082 116.113 -5.66406 116.113 -35.2539 C 116.113 -60.3516 98.8281 -81.4453 75.5371 -87.3047 L 75.5371 -95.6543 C 75.5371 -100.586 70.8496 -102.197 66.2109 -98.7305 L 45.6055 -83.4473 C 41.9434 -80.7617 42.0898 -76.2207 45.6055 -73.584 L 66.2109 -58.2031 C 70.8008 -54.834 75.5371 -56.25 75.5371 -61.3281 L 75.5371 -68.1641 C 88.623 -62.9395 97.8027 -50.1953 97.8027 -35.2539 C 97.8027 -15.7227 81.9824 0.146484 62.4023 0.146484 C 42.8711 0.146484 27.002 -15.7227 27.002 -35.2539 C 27.002 -44.3848 30.2246 -51.9531 36.084 -58.9355 C 39.7461 -63.2324 41.0645 -68.7988 36.9141 -72.8516 C 33.3496 -76.4648 27.9785 -76.2207 23.0469 -71.7773 C 14.5508 -64.0137 8.74023 -47.9492 8.74023 -35.2539 C 8.74023 -5.66406 32.8125 18.4082 62.4023 18.4082 Z M 74.1211 -13.1836 C 81.543 -13.1836 88.0371 -20.2637 88.0371 -33.5449 C 88.0371 -46.875 81.543 -53.9551 74.1211 -53.9551 C 66.748 -53.9551 60.6445 -48.3398 60.6445 -33.5449 C 60.6445 -18.7988 66.748 -13.1836 74.1211 -13.1836 Z M 50.3418 -12.793 C 53.8086 -12.793 56.0547 -14.9902 56.0547 -18.6035 L 56.0547 -46.4355 C 56.0547 -51.2695 53.0273 -53.8574 48.7793 -53.8574 C 46.2891 -53.8574 44.0918 -53.0762 41.5527 -50.5859 L 37.1582 -46.1914 C 35.0098 -44.043 34.1309 -42.627 34.1309 -40.5273 C 34.1309 -38.0859 36.084 -36.1816 38.5254 -36.1816 C 40.2832 -36.1816 41.5527 -36.7188 42.6758 -38.4766 L 44.2871 -41.1621 L 44.6777 -41.1621 L 44.6777 -18.6035 C 44.6777 -14.9414 46.875 -12.793 50.3418 -12.793 Z M 74.3652 -23.1934 C 72.5098 -23.1934 71.6797 -26.2695 71.6797 -33.5449 C 71.6797 -40.8203 72.5098 -43.8965 74.3652 -43.8965 C 76.2695 -43.8965 77.0996 -40.8203 77.0996 -33.5449 C 77.0996 -26.2695 76.2695 -23.1934 74.3652 -23.1934 Z"/>
  </g>
  <g id="Heavy-M" transform="matrix(1 0 0 1 2575.19 1126)">
   <path d="M 61.5234 17.5293 C 90.5273 17.5293 114.258 -6.20117 114.258 -35.2539 C 114.258 -60.1074 96.9238 -81.0059 73.7305 -86.5723 L 73.7305 -94.5801 C 73.7305 -99.1699 69.6289 -100.635 65.4297 -97.5098 L 45.9961 -83.252 C 42.6758 -80.8105 42.7734 -76.8066 45.9961 -74.4141 L 65.4297 -60.1074 C 69.5801 -57.0312 73.7305 -58.3496 73.7305 -63.0859 L 73.7305 -70.0195 C 88.0859 -64.9902 98.3398 -51.3672 98.3398 -35.2539 C 98.3398 -14.8926 81.8848 1.61133 61.5234 1.61133 C 41.1133 1.61133 24.6582 -14.8926 24.6582 -35.2539 C 24.6582 -45.5078 28.7598 -54.1992 35.6445 -61.2793 C 38.916 -64.8926 40.0391 -69.6777 36.6211 -73.291 C 33.5938 -76.5137 28.8574 -76.4648 24.6094 -72.6562 C 15.1367 -64.5996 8.74023 -48.8281 8.74023 -35.2539 C 8.74023 -6.20117 32.4707 17.5293 61.5234 17.5293 Z M 73.2422 -13.5254 C 80.8105 -13.5254 87.0117 -20.752 87.0117 -33.6914 C 87.0117 -46.6309 80.8105 -53.9062 73.2422 -53.9062 C 65.6738 -53.9062 59.7656 -47.7539 59.7656 -33.6914 C 59.7656 -19.6289 65.6738 -13.5254 73.2422 -13.5254 Z M 49.0723 -13.3789 C 52.1484 -13.3789 54.1504 -15.332 54.1504 -18.6035 L 54.1504 -47.1191 C 54.1504 -51.416 51.5625 -53.7109 47.7539 -53.7109 C 45.5566 -53.7109 43.7012 -53.0273 41.3086 -50.8301 L 36.3281 -46.4355 C 34.4727 -44.6289 33.6426 -43.3105 33.6426 -41.4062 C 33.6426 -39.1602 35.4492 -37.3535 37.6953 -37.3535 C 39.2578 -37.3535 40.332 -37.8418 41.4062 -39.3555 L 43.75 -42.2363 L 44.043 -42.2363 L 44.043 -18.6035 C 44.043 -15.3809 45.9961 -13.3789 49.0723 -13.3789 Z M 73.4375 -22.6074 C 70.9473 -22.6074 69.6777 -26.1719 69.6777 -33.6914 C 69.6777 -41.2598 70.9473 -44.8242 73.4375 -44.8242 C 75.8789 -44.8242 77.1484 -41.2598 77.1484 -33.6914 C 77.1484 -26.1719 75.8789 -22.6074 73.4375 -22.6074 Z"/>
  </g>
  <g id="Bold-M" transform="matrix(1 0 0 1 2279.5 1126)">
   <path d="M 60.498 16.5039 C 88.8672 16.5039 112.207 -6.83594 112.207 -35.2539 C 112.207 -59.8145 94.8242 -80.5664 71.7285 -85.7422 L 71.7285 -93.3594 C 71.7285 -97.5586 68.2129 -98.8281 64.5508 -96.1426 L 46.4844 -83.0566 C 43.5547 -80.9082 43.5547 -77.4902 46.4844 -75.3418 L 64.5508 -62.207 C 68.2129 -59.5215 71.7285 -60.7422 71.7285 -65.0391 L 71.7285 -72.0215 C 87.5 -67.2363 98.9258 -52.6367 98.9258 -35.2539 C 98.9258 -13.9648 81.7871 3.22266 60.498 3.22266 C 39.1602 3.22266 22.0215 -13.9648 22.0215 -35.2539 C 22.0703 -46.7773 27.0508 -56.6406 35.1562 -63.8672 C 37.9883 -66.748 38.9648 -70.7031 36.2793 -73.7793 C 33.8867 -76.5625 29.834 -76.709 26.3184 -73.6328 C 15.7715 -65.2344 8.74023 -49.8047 8.74023 -35.2539 C 8.74023 -6.83594 32.0801 16.5039 60.498 16.5039 Z M 72.2168 -13.916 C 79.9805 -13.916 85.8887 -21.3379 85.8887 -33.8379 C 85.8887 -46.3867 79.9805 -53.8086 72.2168 -53.8086 C 64.502 -53.8086 58.7891 -47.1191 58.7891 -33.8379 C 58.7891 -20.6055 64.502 -13.916 72.2168 -13.916 Z M 47.6074 -14.0137 C 50.293 -14.0137 52.0508 -15.7715 52.0508 -18.6523 L 52.0508 -47.9004 C 52.0508 -51.5137 49.9023 -53.5645 46.6309 -53.5645 C 44.7754 -53.5645 43.2129 -52.9785 41.0156 -51.123 L 35.4492 -46.6797 C 33.8379 -45.2148 33.1543 -44.043 33.1543 -42.4316 C 33.1543 -40.3809 34.7656 -38.7207 36.7676 -38.7207 C 38.0859 -38.7207 38.9648 -39.1113 39.9902 -40.332 L 43.1641 -43.4082 L 43.2617 -43.4082 L 43.2617 -18.6523 C 43.2617 -15.8203 44.9707 -14.0137 47.6074 -14.0137 Z M 72.3633 -21.875 C 69.2383 -21.875 67.4805 -26.0254 67.4805 -33.8379 C 67.4805 -41.6992 69.2383 -45.8496 72.3633 -45.8496 C 75.4883 -45.8496 77.2461 -41.748 77.2461 -33.8379 C 77.2461 -26.0254 75.4395 -21.875 72.3633 -21.875 Z"/>
  </g>
  <g id="Semibold-M" transform="matrix(1 0 0 1 1983.5 1126)">
   <path d="M 59.7656 15.7715 C 87.7441 15.7715 110.791 -7.27539 110.791 -35.2539 C 110.791 -59.6191 93.3594 -80.2246 70.3613 -85.1562 L 70.3613 -92.5293 C 70.3613 -96.4844 67.2852 -97.6074 63.9648 -95.2148 L 46.7773 -82.9102 C 44.0918 -80.957 44.1406 -77.9297 46.7773 -76.0254 L 63.916 -63.6719 C 67.2363 -61.2793 70.3613 -62.3535 70.3613 -66.3574 L 70.3613 -73.3887 C 87.1094 -68.7988 99.3164 -53.5156 99.3164 -35.2539 C 99.3164 -13.3301 81.6895 4.3457 59.7656 4.3457 C 37.8418 4.3457 20.166 -13.3301 20.2148 -35.2539 C 20.2637 -47.6074 25.8789 -58.3984 34.8145 -65.6738 C 37.3535 -68.0664 38.1836 -71.3867 36.0352 -74.0723 C 34.082 -76.5625 30.5176 -76.9043 27.4902 -74.3164 C 16.2109 -65.6738 8.74023 -50.4883 8.74023 -35.2539 C 8.74023 -7.27539 31.7871 15.7715 59.7656 15.7715 Z M 71.5332 -14.209 C 79.4434 -14.209 85.1074 -21.7285 85.1074 -33.9355 C 85.1074 -46.1914 79.4434 -53.7598 71.5332 -53.7598 C 63.6719 -53.7598 58.1055 -46.6797 58.1055 -33.9355 C 58.1055 -21.2402 63.6719 -14.209 71.5332 -14.209 Z M 46.6309 -14.502 C 49.0234 -14.502 50.5859 -16.0645 50.5859 -18.6523 L 50.5859 -48.4375 C 50.5859 -51.6113 48.7305 -53.4668 45.8984 -53.4668 C 44.1895 -53.4668 42.8711 -52.9297 40.8203 -51.3184 L 34.8633 -46.8262 C 33.3984 -45.6543 32.7637 -44.5801 32.7637 -43.1152 C 32.7637 -41.2109 34.2773 -39.6484 36.1328 -39.6484 C 37.3047 -39.6484 37.9883 -39.9902 39.0137 -41.0156 L 42.7246 -44.1895 L 42.7734 -44.1895 L 42.7734 -18.6523 C 42.7734 -16.1133 44.2871 -14.502 46.6309 -14.502 Z M 71.6309 -21.4355 C 68.0664 -21.4355 65.918 -25.9277 65.918 -33.9355 C 65.918 -42.041 68.0664 -46.5332 71.6309 -46.5332 C 75.1953 -46.5332 77.2949 -42.0898 77.2949 -33.9355 C 77.2949 -25.9277 75.1465 -21.4355 71.6309 -21.4355 Z"/>
  </g>
  <g id="Medium-M" transform="matrix(1 0 0 1 1687.3 1126)">
   <path d="M 59.2285 15.2832 C 86.9141 15.2832 109.766 -7.56836 109.766 -35.2539 C 109.766 -59.4727 92.2363 -79.9805 69.3359 -84.7168 L 69.3359 -91.8945 C 69.3359 -95.6055 66.5527 -96.6797 63.5254 -94.4824 L 47.0215 -82.8125 C 44.5312 -81.0059 44.5312 -78.2715 47.0215 -76.5137 L 63.4766 -64.7949 C 66.5039 -62.5977 69.3359 -63.5742 69.3359 -67.3828 L 69.3359 -74.4141 C 86.8164 -69.9707 99.6094 -54.1992 99.6094 -35.2539 C 99.6094 -12.8418 81.6406 5.17578 59.2285 5.17578 C 36.8164 5.17578 18.7988 -12.8418 18.8477 -35.2539 C 18.8965 -48.291 25 -59.668 34.5703 -67.041 C 36.8652 -69.043 37.5977 -71.9238 35.8398 -74.3164 C 34.2285 -76.6113 31.0547 -77.002 28.418 -74.8535 C 16.5527 -65.9668 8.74023 -51.0254 8.74023 -35.2539 C 8.74023 -7.56836 31.5918 15.2832 59.2285 15.2832 Z M 71.0449 -14.4043 C 79.0039 -14.4043 84.5215 -22.0215 84.5215 -33.9844 C 84.5215 -46.0938 79.0039 -53.7109 71.0449 -53.7109 C 63.0371 -53.7109 57.6172 -46.3379 57.6172 -33.9844 C 57.6172 -21.7285 63.0371 -14.4043 71.0449 -14.4043 Z M 45.8496 -14.8438 C 48.0469 -14.8438 49.4629 -16.3086 49.4629 -18.6523 L 49.4629 -48.8281 C 49.4629 -51.709 47.8516 -53.3691 45.3125 -53.3691 C 43.75 -53.3691 42.627 -52.8809 40.7227 -51.4648 L 34.375 -46.9727 C 33.1055 -45.9473 32.5195 -44.9707 32.5195 -43.6035 C 32.5195 -41.8457 33.8867 -40.3809 35.6445 -40.3809 C 36.6699 -40.3809 37.3047 -40.625 38.2812 -41.5039 L 42.3828 -44.7754 L 42.3828 -18.6523 C 42.3828 -16.3574 43.75 -14.8438 45.8496 -14.8438 Z M 71.0938 -21.0449 C 67.1875 -21.0449 64.7949 -25.8301 64.7949 -33.9844 C 64.7949 -42.2852 67.1387 -47.0703 71.0938 -47.0703 C 75 -47.0703 77.2949 -42.334 77.2949 -33.9844 C 77.2949 -25.8301 74.9512 -21.0449 71.0938 -21.0449 Z"/>
  </g>
  <g id="Regular-M" transform="matrix(1 0 0 1 1391.3 1126)">
   <path d="M 58.5449 14.5508 C 85.791 14.5508 108.35 -8.00781 108.35 -35.2539 C 108.35 -59.2773 90.8203 -79.6387 67.9688 -84.1309 L 67.9688 -91.0645 C 67.9688 -94.5312 65.5762 -95.459 62.9395 -93.5547 L 47.3633 -82.666 C 45.1172 -81.1035 45.0684 -78.7598 47.3633 -77.1484 L 62.8906 -66.2109 C 65.5762 -64.2578 67.9688 -65.1855 67.9688 -68.7012 L 67.9688 -75.6836 C 86.4258 -71.4844 100 -55.0293 100 -35.2539 C 100 -12.207 81.5918 6.25 58.5449 6.25 C 35.498 6.25 16.9922 -12.207 17.041 -35.2539 C 17.0898 -49.1211 23.8281 -61.377 34.2285 -68.7988 C 36.2305 -70.3125 36.8652 -72.6074 35.6445 -74.6582 C 34.4238 -76.6602 31.7383 -77.1973 29.5898 -75.5371 C 17.041 -66.4062 8.74023 -51.6602 8.74023 -35.2539 C 8.74023 -8.00781 31.3477 14.5508 58.5449 14.5508 Z M 70.3613 -14.6973 C 78.418 -14.6973 83.7402 -22.3633 83.7402 -34.082 C 83.7402 -45.8984 78.418 -53.6621 70.3613 -53.6621 C 62.2559 -53.6621 56.9336 -45.8984 56.9336 -34.082 C 56.9336 -22.3633 62.2559 -14.6973 70.3613 -14.6973 Z M 44.873 -15.2832 C 46.7773 -15.2832 48.0469 -16.6016 48.0469 -18.6523 L 48.0469 -49.3652 C 48.0469 -51.7578 46.7285 -53.2715 44.5312 -53.2715 C 43.2129 -53.2715 42.2852 -52.832 40.5273 -51.6602 L 33.7402 -47.1191 C 32.666 -46.3379 32.1289 -45.459 32.1289 -44.2871 C 32.1289 -42.6758 33.4473 -41.3086 35.0098 -41.3086 C 35.8887 -41.3086 36.377 -41.5039 37.3535 -42.1875 L 41.8945 -45.5078 L 41.8945 -18.6523 C 41.8945 -16.6504 43.0664 -15.2832 44.873 -15.2832 Z M 70.3613 -20.6055 C 66.0156 -20.6055 63.2812 -25.7324 63.2812 -34.082 C 63.2812 -42.5781 65.9668 -47.7539 70.3613 -47.7539 C 74.707 -47.7539 77.3438 -42.627 77.3438 -34.082 C 77.3438 -25.7324 74.6582 -20.6055 70.3613 -20.6055 Z"/>
  </g>
  <g id="Light-M" transform="matrix(1 0 0 1 1095.42 1126)">
   <path d="M 57.7148 13.7695 C 84.5215 13.7695 106.689 -8.39844 106.689 -35.2051 C 106.689 -58.9844 89.3555 -79.0527 66.6992 -83.3496 L 66.6992 -90.7715 C 66.6992 -93.5547 64.7461 -94.3848 62.5 -92.7734 L 47.3145 -82.1289 C 45.4102 -80.8105 45.3613 -78.8574 47.3145 -77.5391 L 62.4512 -66.8945 C 64.7461 -65.2344 66.6992 -66.0645 66.6992 -68.8965 L 66.6992 -76.9043 C 85.9863 -72.8027 100.342 -55.7129 100.342 -35.2051 C 100.342 -11.5723 81.3477 7.4707 57.7148 7.4707 C 34.082 7.4707 15.0391 -11.5723 15.0879 -35.2051 C 15.0879 -50.0488 22.6562 -63.0371 34.1309 -70.6055 C 35.6445 -71.7285 36.1328 -73.4863 35.2051 -75.0488 C 34.2773 -76.5625 32.2754 -77.002 30.6152 -75.7324 C 17.4805 -66.9434 8.74023 -52.002 8.74023 -35.2051 C 8.74023 -8.39844 30.9082 13.7695 57.7148 13.7695 Z M 69.3848 -14.8926 C 77.3926 -14.8926 82.7148 -22.5586 82.7148 -34.2773 C 82.7148 -46.0449 77.3926 -53.8086 69.3848 -53.8086 C 61.3281 -53.8086 56.0059 -46.0449 56.0059 -34.2773 C 56.0059 -22.5586 61.3281 -14.8926 69.3848 -14.8926 Z M 43.4082 -15.5762 C 44.9219 -15.5762 45.9473 -16.6016 45.9473 -18.2617 L 45.9473 -50.5371 C 45.9473 -52.3926 44.873 -53.6133 43.1152 -53.6133 C 41.9922 -53.6133 41.2598 -53.2227 39.8438 -52.2949 L 32.2754 -47.2656 C 31.3965 -46.6797 30.957 -45.9961 30.957 -45.0195 C 30.957 -43.75 31.9824 -42.6758 33.252 -42.6758 C 33.9355 -42.6758 34.2773 -42.8223 35.0098 -43.3105 L 41.0156 -47.4609 L 41.0156 -18.2617 C 41.0156 -16.6504 41.9434 -15.5762 43.4082 -15.5762 Z M 69.3848 -19.5801 C 64.3555 -19.5801 61.0352 -25.293 61.0352 -34.2773 C 61.0352 -43.3594 64.3066 -49.1211 69.3848 -49.1211 C 74.4141 -49.1211 77.6367 -43.3594 77.6367 -34.2773 C 77.6367 -25.293 74.3652 -19.5801 69.3848 -19.5801 Z"/>
  </g>
  <g id="Thin-M" transform="matrix(1 0 0 1 799.806 1126)">
   <path d="M 56.6406 12.7441 C 82.9102 12.7441 104.492 -8.83789 104.492 -35.1562 C 104.492 -58.5938 87.4023 -78.2715 65.0391 -82.2754 L 65.0391 -90.332 C 65.0391 -92.2852 63.6719 -92.9688 61.9141 -91.6992 L 47.2168 -81.4453 C 45.752 -80.4199 45.752 -79.0527 47.2168 -78.0273 L 61.9141 -67.7734 C 63.6719 -66.5039 65.0391 -67.1875 65.0391 -69.1895 L 65.0391 -78.5156 C 85.4004 -74.5605 100.781 -56.6406 100.781 -35.1562 C 100.781 -10.791 81.0059 8.98438 56.6406 8.98438 C 32.2266 8.98438 12.4512 -10.791 12.4512 -35.1562 C 12.4512 -51.2207 21.0938 -65.2344 33.9355 -72.998 C 34.8633 -73.584 35.1074 -74.6582 34.6191 -75.5859 C 34.1309 -76.4648 32.959 -76.7578 31.9824 -76.0742 C 18.0664 -67.627 8.74023 -52.4414 8.74023 -35.1562 C 8.74023 -8.83789 30.3223 12.7441 56.6406 12.7441 Z M 41.5039 -15.9668 C 42.4316 -15.9668 43.1641 -16.6504 43.1641 -17.7246 L 43.1641 -52.0508 C 43.1641 -53.2227 42.4316 -54.0039 41.2109 -54.0039 C 40.4297 -54.0039 39.9414 -53.7598 38.916 -53.125 L 30.2734 -47.5098 C 29.6875 -47.0703 29.3945 -46.6797 29.3945 -45.9961 C 29.3945 -45.1172 30.0781 -44.4336 30.957 -44.4336 C 31.3965 -44.4336 31.5918 -44.5312 31.9824 -44.8242 L 39.6484 -49.9023 L 39.8926 -49.9023 L 39.8926 -17.7246 C 39.8926 -16.6992 40.5273 -15.9668 41.5039 -15.9668 Z M 68.1152 -15.0879 C 76.0254 -15.0879 81.3477 -22.8027 81.3477 -34.5215 C 81.3477 -46.1914 76.0254 -54.0039 68.1152 -54.0039 C 60.1562 -54.0039 54.7852 -46.1914 54.7852 -34.5215 C 54.7852 -22.8027 60.1562 -15.0879 68.1152 -15.0879 Z M 68.1152 -18.2129 C 62.1582 -18.2129 58.1055 -24.7559 58.1055 -34.5215 C 58.1055 -44.3359 62.1094 -50.8789 68.1152 -50.8789 C 74.0234 -50.8789 78.0273 -44.3359 78.0273 -34.5215 C 78.0273 -24.7559 74.0234 -18.2129 68.1152 -18.2129 Z"/>
  </g>
  <g id="Ultralight-M" transform="matrix(1 0 0 1 503.656 1126)">
   <path d="M 56.0547 12.207 C 82.0801 12.207 103.369 -9.08203 103.369 -35.1562 C 103.369 -58.3984 86.377 -77.8809 64.209 -81.7383 L 64.209 -90.0879 C 64.209 -91.6016 63.0859 -92.2363 61.6211 -91.1621 L 47.168 -81.1035 C 45.9473 -80.2246 45.9473 -79.1504 47.168 -78.2715 L 61.6211 -68.2129 C 63.0859 -67.1387 64.209 -67.7734 64.209 -69.2871 L 64.209 -79.3457 C 85.1074 -75.4883 100.977 -57.1289 100.977 -35.1562 C 100.977 -10.3516 80.8594 9.81445 56.0547 9.81445 C 31.2988 9.81445 11.1328 -10.3516 11.1328 -35.1562 C 11.1328 -51.8066 20.2637 -66.4062 33.8379 -74.1699 C 34.4238 -74.5605 34.6191 -75.2441 34.3262 -75.8789 C 34.0332 -76.3672 33.3008 -76.6113 32.666 -76.2207 C 18.3594 -68.0176 8.74023 -52.6855 8.74023 -35.1562 C 8.74023 -9.08203 30.0293 12.207 56.0547 12.207 Z M 40.5273 -16.1621 C 41.1621 -16.1621 41.6992 -16.6992 41.6992 -17.4805 L 41.6992 -52.832 C 41.6992 -53.6133 41.1621 -54.248 40.2832 -54.248 C 39.5996 -54.248 39.209 -54.0527 38.4277 -53.5645 L 29.2969 -47.6074 C 28.8086 -47.3145 28.6133 -47.0215 28.6133 -46.5332 C 28.6133 -45.8496 29.1016 -45.3613 29.7852 -45.3613 C 30.0781 -45.3613 30.1758 -45.4102 30.4199 -45.6055 L 38.9648 -51.123 L 39.3066 -51.123 L 39.3066 -17.4805 C 39.3066 -16.6992 39.7949 -16.1621 40.5273 -16.1621 Z M 67.4805 -15.1855 C 75.293 -15.1855 80.6641 -22.9492 80.6641 -34.668 C 80.6641 -46.2891 75.293 -54.1016 67.4805 -54.1016 C 59.5703 -54.1016 54.1992 -46.2891 54.1992 -34.668 C 54.1992 -22.9492 59.5703 -15.1855 67.4805 -15.1855 Z M 67.4805 -17.4805 C 60.9863 -17.4805 56.5918 -24.4629 56.5918 -34.668 C 56.5918 -44.8242 60.9863 -51.8066 67.4805 -51.8066 C 73.877 -51.8066 78.2715 -44.8242 78.2715 -34.668 C 78.2715 -24.4629 73.877 -17.4805 67.4805 -17.4805 Z"/>
  </g>
  <g id="Black-S" transform="matrix(1 0 0 1 2884.57 696)">
   <path d="M 48.8281 6.73828 C 71.9727 6.73828 90.8203 -12.1094 90.8203 -35.2539 C 90.8203 -54.8828 77.2949 -71.4355 59.0332 -75.9766 L 59.0332 -82.4707 C 59.0332 -86.3281 55.4199 -87.5977 51.8066 -84.9121 L 35.7422 -72.998 C 32.9102 -70.8984 33.0078 -67.3828 35.7422 -65.332 L 51.8066 -53.3691 C 55.3711 -50.7324 59.0332 -51.8555 59.0332 -55.8105 L 59.0332 -61.1816 C 69.3848 -57.0801 76.6602 -47.0703 76.6602 -35.2539 C 76.6602 -19.873 64.209 -7.42188 48.8281 -7.42188 C 33.4473 -7.42188 20.9961 -19.873 20.9961 -35.2539 C 20.9961 -42.4805 23.584 -48.4863 28.2227 -53.9551 C 31.0547 -57.2754 32.0801 -61.5723 28.9062 -64.7461 C 26.123 -67.5293 21.9727 -67.3828 18.1641 -63.916 C 11.4258 -57.8125 6.83594 -45.2637 6.83594 -35.2539 C 6.83594 -12.1094 25.6836 6.73828 48.8281 6.73828 Z M 58.0078 -17.9688 C 63.8184 -17.9688 68.8965 -23.5352 68.8965 -33.9355 C 68.8965 -44.3359 63.8184 -49.9023 58.0078 -49.9023 C 52.1973 -49.9023 47.4609 -45.459 47.4609 -33.9355 C 47.4609 -22.4121 52.1973 -17.9688 58.0078 -17.9688 Z M 39.3555 -17.6758 C 42.041 -17.6758 43.7988 -19.3848 43.7988 -22.2168 L 43.7988 -44.043 C 43.7988 -47.8027 41.4551 -49.8047 38.1348 -49.8047 C 36.2305 -49.8047 34.5215 -49.2188 32.5195 -47.2656 L 29.0527 -43.8477 C 27.3926 -42.1875 26.709 -41.0645 26.709 -39.4531 C 26.709 -37.5488 28.2227 -36.0352 30.127 -36.0352 C 31.4941 -36.0352 32.4707 -36.4746 33.3496 -37.8418 L 34.668 -39.9414 L 34.9609 -39.9414 L 34.9609 -22.2168 C 34.9609 -19.3848 36.6699 -17.6758 39.3555 -17.6758 Z M 58.2031 -25.7812 C 56.6895 -25.7812 56.0059 -28.2227 56.0059 -33.9355 C 56.0059 -39.6484 56.6895 -42.0898 58.2031 -42.0898 C 59.7168 -42.0898 60.4004 -39.6484 60.4004 -33.9355 C 60.4004 -28.2227 59.7168 -25.7812 58.2031 -25.7812 Z"/>
  </g>
  <g id="Heavy-S" transform="matrix(1 0 0 1 2588.47 696)">
   <path d="M 48.2422 6.15234 C 70.9961 6.15234 89.5996 -12.5 89.5996 -35.2539 C 89.5996 -54.7363 75.9766 -71.1426 57.8125 -75.5371 L 57.8125 -81.6895 C 57.8125 -85.3516 54.541 -86.4746 51.2695 -84.082 L 36.084 -72.9004 C 33.4473 -70.9961 33.4961 -67.8223 36.084 -65.918 L 51.2695 -54.7363 C 54.541 -52.3438 57.8125 -53.3691 57.8125 -57.1289 L 57.8125 -62.4512 C 69.043 -58.4961 77.002 -47.8516 77.002 -35.2539 C 77.002 -19.2871 64.1602 -6.44531 48.2422 -6.44531 C 32.2754 -6.44531 19.3848 -19.2871 19.4336 -35.2539 C 19.4336 -43.2617 22.5586 -50 27.9297 -55.5176 C 30.4688 -58.3984 31.3965 -62.1582 28.7109 -65.0391 C 26.3184 -67.5781 22.6074 -67.5781 19.2383 -64.5508 C 11.8164 -58.2031 6.83594 -45.8984 6.83594 -35.2539 C 6.83594 -12.5 25.4395 6.15234 48.2422 6.15234 Z M 57.4219 -18.2129 C 63.3789 -18.2129 68.2129 -23.877 68.2129 -34.0332 C 68.2129 -44.1406 63.3789 -49.8047 57.4219 -49.8047 C 51.4648 -49.8047 46.875 -45.0195 46.875 -34.0332 C 46.875 -23.0469 51.4648 -18.2129 57.4219 -18.2129 Z M 38.5254 -18.1152 C 40.9668 -18.1152 42.5781 -19.6777 42.5781 -22.2656 L 42.5781 -44.4336 C 42.5781 -47.8027 40.5273 -49.6582 37.5488 -49.6582 C 35.791 -49.6582 34.3262 -49.1211 32.4219 -47.4121 L 28.6133 -43.9941 C 27.0996 -42.5781 26.4648 -41.5039 26.4648 -40.0391 C 26.4648 -38.2324 27.8809 -36.8164 29.6875 -36.8164 C 30.9082 -36.8164 31.7383 -37.207 32.666 -38.3789 L 34.375 -40.5273 L 34.5703 -40.5273 L 34.5703 -22.2656 C 34.5703 -19.6777 36.084 -18.1152 38.5254 -18.1152 Z M 57.5684 -25.4395 C 55.7129 -25.4395 54.7363 -28.1738 54.7363 -34.0332 C 54.7363 -39.8926 55.7129 -42.627 57.5684 -42.627 C 59.4727 -42.627 60.4004 -39.8926 60.4004 -34.0332 C 60.4004 -28.1738 59.4727 -25.4395 57.5684 -25.4395 Z"/>
  </g>
  <g id="Bold-S" transform="matrix(1 0 0 1 2292.44 696)">
   <path d="M 47.5586 5.46875 C 69.873 5.46875 88.2324 -12.9395 88.2324 -35.2539 C 88.2324 -54.541 74.5605 -70.8496 56.4453 -74.9512 L 56.4453 -80.8105 C 56.4453 -84.2285 53.6133 -85.2539 50.6348 -83.1055 L 36.4258 -72.8027 C 34.0332 -71.0938 34.082 -68.3105 36.4258 -66.6016 L 50.6348 -56.2988 C 53.5645 -54.1504 56.4453 -55.0781 56.4453 -58.5938 L 56.4453 -63.8184 C 68.6523 -60.0586 77.4414 -48.7305 77.4414 -35.2539 C 77.4414 -18.7012 64.1113 -5.37109 47.5586 -5.37109 C 30.957 -5.37109 17.627 -18.7012 17.627 -35.2539 C 17.6758 -44.0918 21.4355 -51.709 27.5391 -57.3242 C 29.8828 -59.668 30.6641 -62.8418 28.5156 -65.332 C 26.5625 -67.627 23.291 -67.7734 20.4102 -65.2832 C 12.2559 -58.5938 6.83594 -46.6309 6.83594 -35.2539 C 6.83594 -12.9395 25.1953 5.46875 47.5586 5.46875 Z M 56.7871 -18.5059 C 62.8906 -18.5059 67.4805 -24.3164 67.4805 -34.082 C 67.4805 -43.9453 62.8906 -49.7559 56.7871 -49.7559 C 50.6836 -49.7559 46.2402 -44.4824 46.2402 -34.082 C 46.2402 -23.7305 50.6836 -18.5059 56.7871 -18.5059 Z M 37.5977 -18.5547 C 39.7949 -18.5547 41.2109 -20.0195 41.2109 -22.3145 L 41.2109 -44.873 C 41.2109 -47.8516 39.502 -49.5117 36.8652 -49.5117 C 35.3516 -49.5117 34.082 -49.0234 32.2754 -47.5586 L 28.125 -44.1406 C 26.8066 -43.0176 26.2207 -42.041 26.2207 -40.7227 C 26.2207 -39.0625 27.5391 -37.6953 29.1992 -37.6953 C 30.2734 -37.6953 30.957 -37.9883 31.8359 -38.9648 L 34.0332 -41.2109 L 34.082 -41.2109 L 34.082 -22.3145 C 34.082 -20.0195 35.4492 -18.5547 37.5977 -18.5547 Z M 56.8848 -25 C 54.5898 -25 53.3203 -28.125 53.3203 -34.082 C 53.3203 -40.1367 54.5898 -43.2617 56.8848 -43.2617 C 59.1797 -43.2617 60.4004 -40.1855 60.4004 -34.082 C 60.4004 -28.125 59.1797 -25 56.8848 -25 Z"/>
  </g>
  <g id="Semibold-S" transform="matrix(1 0 0 1 1996.2 696)">
   <path d="M 47.0703 4.98047 C 69.0918 4.98047 87.3047 -13.2324 87.3047 -35.2539 C 87.3047 -54.3945 73.584 -70.6543 55.5176 -74.6094 L 55.5176 -80.2246 C 55.5176 -83.4961 52.9297 -84.4238 50.2441 -82.4707 L 36.6699 -72.7539 C 34.4727 -71.1914 34.4727 -68.6523 36.6699 -67.0898 L 50.1953 -57.3242 C 52.9297 -55.3711 55.5176 -56.25 55.5176 -59.5703 L 55.5176 -64.7461 C 68.3594 -61.1328 77.6855 -49.3652 77.6855 -35.2539 C 77.6855 -18.2617 64.0625 -4.58984 47.0703 -4.58984 C 30.0781 -4.58984 16.4062 -18.2617 16.4062 -35.2539 C 16.4551 -44.6777 20.6055 -52.8809 27.2949 -58.5449 C 29.4434 -60.498 30.127 -63.2812 28.3691 -65.5762 C 26.7578 -67.6758 23.7793 -67.9199 21.2402 -65.8203 C 12.5488 -58.8867 6.83594 -47.1191 6.83594 -35.2539 C 6.83594 -13.2324 25.0488 4.98047 47.0703 4.98047 Z M 56.3477 -18.7012 C 62.5488 -18.7012 66.9922 -24.6094 66.9922 -34.1309 C 66.9922 -43.7988 62.5488 -49.707 56.3477 -49.707 C 50.1465 -49.707 45.8008 -44.1406 45.8008 -34.1309 C 45.8008 -24.2188 50.1465 -18.7012 56.3477 -18.7012 Z M 36.9629 -18.8965 C 38.9648 -18.8965 40.2832 -20.2148 40.2832 -22.3633 L 40.2832 -45.2148 C 40.2832 -47.8516 38.7695 -49.4141 36.377 -49.4141 C 35.0098 -49.4141 33.9355 -48.9746 32.2266 -47.6562 L 27.7832 -44.2871 C 26.6113 -43.3105 26.0742 -42.3828 26.0742 -41.1621 C 26.0742 -39.5996 27.2949 -38.2812 28.8574 -38.2812 C 29.834 -38.2812 30.4199 -38.5254 31.2988 -39.4043 L 33.7891 -41.6504 L 33.7891 -22.3633 C 33.7891 -20.2637 35.0098 -18.8965 36.9629 -18.8965 Z M 56.3965 -24.7559 C 53.8574 -24.7559 52.3438 -28.0762 52.3438 -34.1309 C 52.3438 -40.332 53.8086 -43.6523 56.3965 -43.6523 C 58.9844 -43.6523 60.4492 -40.3809 60.4492 -34.1309 C 60.4492 -28.0762 58.9355 -24.7559 56.3965 -24.7559 Z"/>
  </g>
  <g id="Medium-S" transform="matrix(1 0 0 1 1699.83 696)">
   <path d="M 46.7285 4.63867 C 68.5547 4.63867 86.6211 -13.4277 86.6211 -35.2539 C 86.6211 -54.2969 72.8516 -70.5078 54.7852 -74.3164 L 54.7852 -79.7363 C 54.7852 -82.9102 52.4414 -83.7891 49.9023 -81.9824 L 36.8652 -72.7051 C 34.7656 -71.2402 34.7656 -68.9453 36.8652 -67.4316 L 49.8535 -58.1543 C 52.4414 -56.2988 54.7852 -57.1289 54.7852 -60.3516 L 54.7852 -65.4297 C 68.1641 -61.9141 77.8809 -49.8047 77.8809 -35.2539 C 77.8809 -17.9199 64.0625 -4.05273 46.7285 -4.05273 C 29.3945 -4.05273 15.4785 -17.9199 15.4785 -35.2539 C 15.5273 -45.1172 20.0195 -53.7598 27.1484 -59.4727 C 29.1016 -61.1816 29.7363 -63.623 28.2715 -65.7227 C 26.8555 -67.6758 24.1211 -68.0176 21.875 -66.2109 C 12.793 -59.1309 6.83594 -47.4609 6.83594 -35.2539 C 6.83594 -13.4277 24.9023 4.63867 46.7285 4.63867 Z M 56.0059 -18.8477 C 62.3047 -18.8477 66.6016 -24.8047 66.6016 -34.1797 C 66.6016 -43.6523 62.3047 -49.6582 56.0059 -49.6582 C 49.707 -49.6582 45.459 -43.8965 45.459 -34.1797 C 45.459 -24.6094 49.707 -18.8477 56.0059 -18.8477 Z M 36.4746 -19.1406 C 38.3789 -19.1406 39.5508 -20.4102 39.5508 -22.4121 L 39.5508 -45.4102 C 39.5508 -47.9004 38.2324 -49.3164 36.0352 -49.3164 C 34.7656 -49.3164 33.7891 -48.9258 32.1289 -47.7051 L 27.4902 -44.3359 C 26.416 -43.5059 25.9277 -42.627 25.9277 -41.5039 C 25.9277 -39.9902 27.0996 -38.7207 28.5645 -38.7207 C 29.4922 -38.7207 30.0293 -38.9648 30.9082 -39.6973 L 33.5449 -41.9434 L 33.5449 -22.4121 C 33.5449 -20.4102 34.668 -19.1406 36.4746 -19.1406 Z M 56.0547 -24.5117 C 53.2715 -24.5117 51.6113 -28.0273 51.6113 -34.1797 C 51.6113 -40.4785 53.2227 -43.9941 56.0547 -43.9941 C 58.8379 -43.9941 60.4492 -40.4785 60.4492 -34.1797 C 60.4492 -28.0273 58.7891 -24.5117 56.0547 -24.5117 Z"/>
  </g>
  <g id="Regular-S" transform="matrix(1 0 0 1 1403.58 696)">
   <path d="M 46.2402 4.15039 C 67.7734 4.15039 85.6934 -13.7207 85.6934 -35.2539 C 85.6934 -54.1992 71.8262 -70.3125 53.8574 -73.9258 L 53.8574 -79.1504 C 53.8574 -82.1777 51.7578 -82.959 49.5117 -81.2988 L 37.1094 -72.6074 C 35.2051 -71.2891 35.1562 -69.2383 37.1094 -67.8711 L 49.4629 -59.1797 C 51.7578 -57.5195 53.8574 -58.3008 53.8574 -61.377 L 53.8574 -66.3086 C 67.9199 -62.9883 78.1738 -50.3906 78.1738 -35.2539 C 78.1738 -17.4805 64.0137 -3.27148 46.2402 -3.27148 C 28.5156 -3.27148 14.2578 -17.4805 14.3066 -35.2539 C 14.3555 -45.7031 19.2383 -54.8828 26.9043 -60.6934 C 28.6621 -62.0117 29.248 -64.1113 28.125 -65.918 C 27.0508 -67.7246 24.6094 -68.1641 22.6562 -66.6992 C 13.0859 -59.4238 6.83594 -47.9492 6.83594 -35.2539 C 6.83594 -13.7207 24.7559 4.15039 46.2402 4.15039 Z M 55.5664 -19.0918 C 61.9629 -19.0918 66.1133 -25.0977 66.1133 -34.2773 C 66.1133 -43.5059 61.9629 -49.5605 55.5664 -49.5605 C 49.1699 -49.5605 45.0195 -43.5059 45.0195 -34.2773 C 45.0195 -25.0977 49.1699 -19.0918 55.5664 -19.0918 Z M 35.8398 -19.4824 C 37.5488 -19.4824 38.623 -20.6055 38.623 -22.4609 L 38.623 -45.752 C 38.623 -47.9004 37.5 -49.2188 35.5469 -49.2188 C 34.4238 -49.2188 33.6426 -48.8281 32.0801 -47.8027 L 27.1484 -44.4824 C 26.2207 -43.7988 25.7324 -43.0176 25.7324 -41.9434 C 25.7324 -40.5273 26.8555 -39.3066 28.2227 -39.3066 C 29.0527 -39.3066 29.4434 -39.502 30.3711 -40.1367 L 33.2031 -42.334 L 33.2031 -22.4609 C 33.2031 -20.6543 34.2773 -19.4824 35.8398 -19.4824 Z M 55.5664 -24.2676 C 52.5391 -24.2676 50.6348 -28.0273 50.6348 -34.2773 C 50.6348 -40.625 52.4902 -44.3848 55.5664 -44.3848 C 58.6426 -44.3848 60.4492 -40.6738 60.4492 -34.2773 C 60.4492 -28.0273 58.5938 -24.2676 55.5664 -24.2676 Z"/>
  </g>
  <g id="Light-S" transform="matrix(1 0 0 1 1107.6 696)">
   <path d="M 45.5078 3.4668 C 66.6992 3.4668 84.2285 -14.0625 84.2285 -35.2051 C 84.2285 -53.9551 70.5566 -69.8242 52.7344 -73.2422 L 52.7344 -78.8574 C 52.7344 -81.2988 51.0254 -81.9824 49.1211 -80.6152 L 37.0605 -72.168 C 35.4492 -71.0449 35.4004 -69.3848 37.0605 -68.2129 L 49.0723 -59.7656 C 51.0254 -58.3496 52.7344 -59.0332 52.7344 -61.5234 L 52.7344 -67.4316 C 67.5293 -64.1602 78.4668 -51.0254 78.4668 -35.2051 C 78.4668 -16.9434 63.8184 -2.24609 45.5078 -2.24609 C 27.2461 -2.24609 12.5 -16.9434 12.5488 -35.2051 C 12.5977 -46.4844 18.2129 -56.3965 26.7578 -62.2559 C 28.125 -63.2812 28.5645 -64.8926 27.7344 -66.2598 C 26.9043 -67.627 25.0488 -68.0176 23.584 -66.8945 C 13.5254 -59.8633 6.83594 -48.2422 6.83594 -35.2051 C 6.83594 -14.0625 24.3652 3.4668 45.5078 3.4668 Z M 54.7363 -19.2383 C 61.0352 -19.2383 65.1855 -25.2441 65.1855 -34.4238 C 65.1855 -43.6523 61.0352 -49.707 54.7363 -49.707 C 48.3887 -49.707 44.2383 -43.6523 44.2383 -34.4238 C 44.2383 -25.2441 48.3887 -19.2383 54.7363 -19.2383 Z M 34.5703 -19.7266 C 35.8887 -19.7266 36.7676 -20.6543 36.7676 -22.1191 L 36.7676 -46.7773 C 36.7676 -48.4375 35.8398 -49.5117 34.3262 -49.5117 C 33.3496 -49.5117 32.7148 -49.1699 31.4453 -48.3398 L 25.8301 -44.6289 C 25.0488 -44.0918 24.707 -43.457 24.707 -42.627 C 24.707 -41.5039 25.5859 -40.5273 26.709 -40.5273 C 27.3438 -40.5273 27.6367 -40.6738 28.3203 -41.1133 L 32.4707 -44.0918 L 32.4707 -22.1191 C 32.4707 -20.6543 33.3008 -19.7266 34.5703 -19.7266 Z M 54.7363 -23.3398 C 51.0254 -23.3398 48.6816 -27.6367 48.6816 -34.4238 C 48.6816 -41.3086 51.0254 -45.6055 54.7363 -45.6055 C 58.3984 -45.6055 60.6934 -41.3574 60.6934 -34.4238 C 60.6934 -27.6367 58.3496 -23.3398 54.7363 -23.3398 Z"/>
  </g>
  <g id="Thin-S" transform="matrix(1 0 0 1 811.867 696)">
   <path d="M 44.5801 2.53906 C 65.2832 2.53906 82.2754 -14.4531 82.2754 -35.2051 C 82.2754 -53.6133 68.7988 -69.0918 51.2695 -72.3145 L 51.2695 -78.4668 C 51.2695 -80.1758 50.0977 -80.7129 48.6328 -79.6875 L 37.0117 -71.582 C 35.791 -70.7031 35.7422 -69.5312 37.0117 -68.6523 L 48.584 -60.5469 C 50.0977 -59.4727 51.2695 -60.0586 51.2695 -61.7676 L 51.2695 -68.8477 C 66.9922 -65.7227 78.8574 -51.8555 78.8574 -35.2051 C 78.8574 -16.2109 63.5254 -0.878906 44.5801 -0.878906 C 25.5859 -0.878906 10.2539 -16.2109 10.2539 -35.2051 C 10.2539 -47.5098 16.7969 -58.3496 26.6113 -64.3555 C 27.4414 -64.9414 27.6855 -65.918 27.2461 -66.748 C 26.7578 -67.5293 25.6836 -67.8223 24.7559 -67.1387 C 14.0137 -60.498 6.83594 -48.6328 6.83594 -35.2051 C 6.83594 -14.4531 23.877 2.53906 44.5801 2.53906 Z M 53.6133 -19.3848 C 59.8145 -19.3848 64.0137 -25.4395 64.0137 -34.6191 C 64.0137 -43.7988 59.8145 -49.9023 53.6133 -49.9023 C 47.3633 -49.9023 43.1641 -43.7988 43.1641 -34.6191 C 43.1641 -25.4395 47.3633 -19.3848 53.6133 -19.3848 Z M 32.8613 -20.0684 C 33.6914 -20.0684 34.3262 -20.6543 34.3262 -21.6309 L 34.3262 -48.0957 C 34.3262 -49.1699 33.6914 -49.8535 32.666 -49.8535 C 31.9336 -49.8535 31.543 -49.6582 30.6641 -49.0723 L 24.1211 -44.7754 C 23.584 -44.4336 23.3398 -44.043 23.3398 -43.5059 C 23.3398 -42.7246 23.9258 -42.0898 24.6582 -42.0898 C 25.0488 -42.0898 25.2441 -42.1875 25.6348 -42.4805 L 31.2988 -46.2402 L 31.4453 -46.2402 L 31.4453 -21.6309 C 31.4453 -20.7031 32.0312 -20.0684 32.8613 -20.0684 Z M 53.6133 -22.168 C 49.0723 -22.168 46.0938 -27.1484 46.0938 -34.6191 C 46.0938 -42.1875 49.0723 -47.168 53.6133 -47.168 C 58.0566 -47.168 61.0352 -42.1875 61.0352 -34.6191 C 61.0352 -27.1484 58.0566 -22.168 53.6133 -22.168 Z"/>
  </g>
  <g id="Ultralight-S" transform="matrix(1 0 0 1 515.644 696)">
   <path d="M 44.043 2.05078 C 64.502 2.05078 81.2988 -14.6973 81.2988 -35.1562 C 81.2988 -53.418 67.9199 -68.75 50.5371 -71.8262 L 50.5371 -78.2715 C 50.5371 -79.5898 49.5605 -80.0781 48.3398 -79.1992 L 36.9629 -71.2402 C 35.9375 -70.5566 35.9375 -69.6289 36.9629 -68.8965 L 48.3398 -60.9375 C 49.5605 -60.0586 50.5371 -60.5957 50.5371 -61.8652 L 50.5371 -69.5801 C 66.748 -66.5527 79.0527 -52.2461 79.0527 -35.1562 C 79.0527 -15.8691 63.3789 -0.146484 44.043 -0.146484 C 24.7559 -0.146484 9.08203 -15.8691 9.08203 -35.1562 C 9.08203 -48.0469 16.0645 -59.3262 26.5137 -65.4297 C 27.0996 -65.7715 27.2461 -66.4551 26.9531 -66.9922 C 26.6602 -67.4805 26.0254 -67.7246 25.3906 -67.2852 C 14.3066 -60.8398 6.83594 -48.8281 6.83594 -35.1562 C 6.83594 -14.6973 23.584 2.05078 44.043 2.05078 Z M 31.9824 -20.2148 C 32.5684 -20.2148 33.0566 -20.7031 33.0566 -21.3867 L 33.0566 -48.8281 C 33.0566 -49.5117 32.5684 -50.0488 31.7871 -50.0488 C 31.2012 -50.0488 30.9082 -49.9023 30.2246 -49.4629 L 23.1934 -44.9219 C 22.8027 -44.6289 22.6074 -44.3848 22.6074 -43.9453 C 22.6074 -43.3594 23.0469 -42.9199 23.6328 -42.9199 C 23.877 -42.9199 24.0234 -42.9688 24.2188 -43.1641 L 30.7129 -47.3633 L 30.9082 -47.3633 L 30.9082 -21.3867 C 30.9082 -20.7031 31.3477 -20.2148 31.9824 -20.2148 Z M 53.0273 -19.5312 C 59.1797 -19.5312 63.3789 -25.5371 63.3789 -34.7168 C 63.3789 -43.8965 59.1797 -50 53.0273 -50 C 46.8262 -50 42.627 -43.8965 42.627 -34.7168 C 42.627 -25.5371 46.8262 -19.5312 53.0273 -19.5312 Z M 53.0273 -21.5332 C 48.0957 -21.5332 44.7266 -26.8555 44.7266 -34.7168 C 44.7266 -42.627 48.0957 -47.9492 53.0273 -47.9492 C 57.9102 -47.9492 61.2305 -42.627 61.2305 -34.7168 C 61.2305 -26.8555 57.9102 -21.5332 53.0273 -21.5332 Z"/>
  </g>
 </g>
</svg>
